<svg id="Layer_1" xmlns="http://www.w3.org/2000/svg" viewBox="0 0 380 380"><style>.st0{fill:#29B5C8;} .st1{fill:#58595B;} .st2{fill:#009CAD;} .st3{fill:none;stroke:#FFFFFF;stroke-width:1.0281;stroke-miterlimit:10;}</style><path class="st0" d="M298.4 339.4c82.4-59.9 100.6-175.3 40.7-257.7C279.2-.6 163.8-18.8 81.4 41.1-1 101-19.2 216.4 40.8 298.7c59.9 82.4 175.2 100.6 257.6 40.7z"/><path class="st1" d="M161.8 199.3l-.3-1.8.3 1.8zM208.1 186.9c1 .3 2.3.3 3.1 1 3.4 2.7-3.1 5.3-5.2 3.9-.4-.2.9-.6.8-1.1-1-4.5-3.6 4.5 1.7-1.3.5-.6-.4-2.5-.4-2.5zM139.1 185.8c2.4 4.4-2.6 2-1.3 5.9.2.5 1.7-.7 1.4-.3-.7 1.1-2.2 1.4-2.8 2.5-.3.7 1.1 1.7.5 2.2-.9.7-2.3-.1-3.4 0-.8.1-1.7 1.1-2.2.5-.5-.6 1.1-1.3 1-2-.2-.8-1.7-1-1.8-1.8-.1-.8.8-1.3 1.1-2 .4-.7.4-1.6 1-2 .5-.3 1.4.7 1.8.2.3-.4-.9-.8-.8-1.3.1-.5.7-1.2 1.2-1.1.6.1.5 1.7 1.1 1.6 1.3-.4 2.1-1.7 3.2-2.4z"/><path class="st1" d="M150.4 190.5c.7.2 1.4.5 2.2.5.1 0 4.3-1.9 3.4 1.1-.2.6-2.2 0-1.8.4.6.5 1.8-.5 2.3.1 3.2 3.5-.5 3.5-2.2 4.6-.3.2-.3.6-.6.9-.3.4-1.9.9-2.2.9-2.5.4-5 .9-7.6 1-2.9.2-4.3-1.2-4.4.1 0 .1 3.4 3.6 1.3 3.9-15.5 2.8 5.3-1.7-7.1-1.6-.7 0-1.5.9-1.5 1.6.1.9 1.7 1.1 1.8 2 .6 3.6-2.7 2.7-4.3 1.7-.3-.2.9-.3 1-.6.2-.8.4-2-.1-2.6-.4-.4-.3 1.9-.8 1.6-.5-.3.7-1.4.2-1.9-.3-.4-.4 1.1-.9 1.2-.3.1-.5-.5-.6-.9-.5-2.4-2.1-6.4 2-6.8 2.3-.2-.6 3.6 1.2 4.8 3.4 2.2 3.2-4 3.1-4.3 0-.6-.8-1.3-.4-1.9.2-.4 1 .3 1.2.7.4.8 0 1.9.4 2.7.1.2.5-.3.5-.5 0-.8-.6-1.6-.4-2.3 0-.2 1.8-4.7 3.2-4.6.7 0 1.1 1 1.1 1.7 0 1.1-1.1 2-1 3.1.1.5.9 1 1.4.7.4-.2-.9-.6-.9-1 .1-5.3 2.2-1.3 4.3-.8 1.1.2 3.4-.6 3.1-2.2-.4-2.2-3.2.9-5.2.1-6.4-2.4 1.2-3.2 1.2-3.4.1-1-6.8-2.1-1.5-4.7.9-.4 1.9.6 2.9.8.8.2 1.9-.3 2.3.3 1 1.4-3.1 3.2.3 4.5 1 .4 3.1-.9 3.1-.9zM205.2 134c2.3 0 5.7-.9 2.5 4.7-.6 1-4.1.3-4.3-1.1-.1-.5.9-.5 1.1-1 .4-.7.7-2.6.7-2.6zM209.2 130.4c-2.1.9-4 2.2-6.2 2.6-.8.1 1.6-1 1.8-1.8.2-.9-1-1.7-1-2.6 0-.3.6-.3.9-.2 1 .4 1.7 1.2 2.7 1.6.5.3 1.8.4 1.8.4zM129.7 183.1c-.8 2.3-1 5.7-4.1 6.2-.4.1-.5-.8-.4-1.2.2-1 1.1-1.7 1.2-2.7.1-.6-1.2-1.2-.7-1.6.5-.4 1.2.7 1.9.6.7-.1 2.1-1.3 2.1-1.3zM125.8 178.8c-.6-.4-1.3-.8-1.9-1.2-.2-.1-.7-.6-.5-.4.8.4 1.6 1 2.4 1.6zM204.4 197.6c.2-.9 0-2 .6-2.8.3-.4-.2 1.3.3 1.7.4.3 4.2-.5 4.3-.6.3-.3-.9-.5-1.3-.7-1.7-.9-3.3-1.7-2.7-2.4 2.2-2.4 1.9 1 3 1.1 1.4 0 2.7-1.6 4-1.1.8.3-.4 1.8-.1 2.6.2.5 1.1.3 1.3.8.9 1.9 1.2 4 2.1 5.9.2.3.6-1 .3-1.1-2.8-.6-3.3 1.8-5.2-.8-.2-.2.7 0 .7-.3.3-1.1.5-2.2.2-3.3-.2-.5-1.2-.7-1.4-.3-.6 1.1.2 2.7-.3 3.8-.2.4-.5-.9-1-1.1-.8-.3-1.6.2-2.4-.1-1-.2-2.4-1.3-2.4-1.3zM122.4 176.2c-.4 0-1 .3-1.3 0-.3-.2 1.2-.4 1.3 0zM140.4 209.9v0zM119.1 172.8c.1 1 .9 2.2.3 3-.7.9-4.1 0-4.5-1-.8-1.8-1.1-3.7-1-5.7 0-.5.9.3 1.3.5 1.3 1 3.9 3.2 3.9 3.2zM126.3 199c-1.7-.4-.2-.2-.2-.2.2 0 .2.1.2.2zM117.6 190.3c-.2-.1-.7-.3-.7-.3s.4.2.7.3z"/><path class="st1" d="M120.7 190.6c.6 2.6 2.6 7.3-5.5 2.8-.9-.5 0-2.3.6-3.2.3-.4 1 .1 1.4 0 .7-.1 1.4-.8 2.2-.7.6.1 1.3 1.1 1.3 1.1z"/><path class="st1" d="M124.7 197.8c.1 1.1.7 2.2.3 3.2-.4 1.1-1.8 1.4-2.5 2.4-.1.2.4.3.5.5.6.8.9 1.7 1.6 2.5.2.2-.4-.8-.1-.8 3.9.2 4 3.9 1.6 7.5-.6.8-1.4-1.5-2.1-2.2-.4-.4-1-.5-1.2-1-.2-.3.4-.9.1-1.2-.2-.2-.6.6-.8.4-.9-.8-1.9-1.8-2.2-3-.1-.5 1.4-.6 1.2-1.1-.5-1-2.8-1-2.7-2.1.1-1.4 2.1-1.8 3.1-2.8.7-.8 1.6-1.5 1.7-2.5.2-1.7-3.1-2.2-.6-4.2.5-.4 1.3-.1 1.7.3.8 1 .4 4.1.4 4.1zM115.3 179.8c-.6 1.4-1.4 2.8-1.7 4.3-.1.6.6-1.2 1.1-1.6.7-.6 5-2.6 4 0-.5 1.4-3.6.7-3.8 2.1-.1.9.8 2.1.3 2.8-.4.7-1.8.7-2.4.2-.8-.7-.5-2.1-1-3-.6-1.3-2.7-1.6-3.2-3-.3-.8-.2-2.1.6-2.5.6-.3.7 1.4 1.4 1.4.5 0 .4-1.1.9-1.3.2-.1 1 .6.7.4-.7-.5-1.8-.6-2-1.4-.3-1-.3-2.8.7-3.1 1.1-.2 1.3 1.7 2 2.5.8.8 1.7 1.5 2.4 2.2zM178.6 103.8c1 .7 2.5 1 3 2.1.5 1-1.7 3.8-2.5 3.4-.9-.4-.7-2.3-1.7-2.4-.8-.1-.2 1.8-.9 2.1-.5.2-.6-1-1.1-1.3-.9-.6-2.6-.3-2.9-1.3-.3-.9 1-1.8 1.9-2.2 1.3-.6 4.2-.4 4.2-.4zM171.3 106.6c-.7-.4-1.4-1-2.2-1.3-.8-.2-1.8.3-2.6-.1-.3-.1 0-.8.3-1 .8-.4 1.8-1 2.6-.6 1 .6 1.3 2 1.9 3zM237.9 164.3c-7.3 2.1-6.3-4-7.6-7.2-1.4-3.7-.8-.2-3.2-2.4-.4-.3-.7-1.1-.3-1.4.8-.6 1.8-.4 2.8-.4.1 0 .1.2.1.3 2.5 2.5 5 4.9 7.5 7.3.9.8 3 1.6 3.5 2.3.2.3-1 .7-.7.9.4.3.9-.9 1.3-.6.4.3-.5 1.4 0 1.6.4.2.2-1.1.7-1.2.3-.1-.1.9.2 1 .4.2 1.1-.8 1.3-.3.4 1.1.7 2.6 0 3.6-.4.6-.7-1.8-1.5-1.6-.7.1.3 2.3-.4 2-.9-.4-.6-2-1.3-2.7-.6-.6-2.4-1.2-2.4-1.2zM108 191.7c-.4-.9-1.1-2.8-1.1-2.8s.7 1.9 1.1 2.8zM123.3 215.1c.5 2.2 1.3 4.4 1.4 6.6 0 .6-.8-.9-1.1-1.4-.5-1-1.2-2-1.3-3.1 0-.8 1-2.1 1-2.1zM114.2 200.9c.5 1 .9 2 1.4 3 .4.7 1.3 1.3 1.2 2.2 0 .5-1.1.4-1.6.2-1.6-.6-3-1.9-4.7-1.9-1 0-1.4 1.8-2.4 2-.5.1-.9-.8-.7-1.3 1.1-2.2 5-3.4 6.8-4.2zM200.5 101.8c-3.4 2-3.4 3.6-5.3-.3-.1-.3 0-.7.2-1 .5-.9.8-2.3 1.8-2.5.7-.2.7 1.3 1.2 1.8.5.7 2.1 2 2.1 2z"/><path class="st1" d="M196.5 98.1c-.8 1.2-1 3.2-2.4 3.7-.9.3-1.4-1.5-1.5-2.4 0-.5.9-.3 1.3-.5.9-.2 1.8-.5 2.6-.8zM106.1 173.6c.1 1.2.5 2.4.2 3.6-.2.8-.9 1.7-1.7 2-.5.1-.6-.9-1.1-1.2-2.2-1.5-4.8-2.5-6.9-4.1-1-.8-2.2-2.4-1.5-3.4 1-1.4 1.7-3.2 3.1-3.9.7-.4 1.4 1 2.2 1.2.4.1.8-.3 1.1-.2 1.2.3 2.1 1.4 3.4 1.4.8 0 1.5-1.8 2.2-1.3 1 .7 1.1 2.4.9 3.6-.2 1-1.9 2.3-1.9 2.3zM111.4 195.9c.3 1.2 1.5 2.6.8 3.6-.7.9-2.3-.7-3.3-.2-.5.2.7.9.5 1.4-.1.5-.7.6-1.2.9-1.1.6-2.2 1.6-3.4 1.6-.5 0 .2-1 .1-1.5-.1-.6-.8-1-.8-1.6 0-.7.7-1.1.9-1.8.4-1.1.2-2.4.8-3.4.3-.4 1.3-.6 1.5-.1.2.7-1.1 1.4-.8 2.1.2.5 1.2-.2 1.6.1.2.1-.7.7-.4.6 1.3-.3 2.5-1.1 3.7-1.7zM249.8 171.7c-1.1-.9-2.2-1.9-3.4-2.7-2.8-1.6-4 .6-2.1-4.3.1-.3.1.8.4 1 .8.5 1.7.8 2.6.9 2.7.5 4.6-1.5 7.1-2 .1 0-.2.2-.2.3 0 .5-.1 1 0 1.5.2 1.2 1.4 1.2-.3 2.7-.3.3-.9.2-1.1-.1-.3-.2.2-1.3-.1-1-1.3 1.1-2.9 3.7-2.9 3.7zM171.9 267c-.8-.3-1.6-.5-2.4-.9-.4-.2-.9-.9-1.1-.5-.6.9.1 2.4-.7 3.1-.5.5-1.3-.7-1.9-.6-.3 0 .1.6 0 .8-.6 1.5-.9 3.2-2 4.3-.5.5-1.9-.6-2.2.1-.3.6 1.4.3 1.8.8.3.4.5 1.4 0 1.6-.6.3-1.1-1-1.8-.8-.1 0 .5 1.5.4 1.8-.6 1.2-1.4 2.3-2 3.5-.3.7-.6 1.5-.8 2.3 0 .1.6.1.4.1-.5.1-1.3-.2-1.7.2-.3.3.9.1 1.1.4.2.3 0 .8-.3.9-.4.1-.8-.4-1.2-.4-.3 0-1 .3-.8.6.9 1 5.6-.2.7 3.8-.6.5-1.4-.5-2.2-.6-.7-.1-1.8.6-2 0-.4-1.3 3.3-2.7.3-4-.6-.3-1.2 1-1.7.7-.4-.3 1.2-1.4.7-1.4-3.5.1-1.1 3.5-5.1.7-.3-.2 1.2 0 1.2-.4 0-.6-.6-1.2-1.1-1.6-.4-.3-1.5 0-1.4-.5.1-.5 1.8.1 1.5-.4-.3-.6-1.3 0-1.9-.3-.4-.2 1.2.5 1.4.1.3-.7.1-1.7-.5-2.2-.3-.3-1 .7-1.4.4-.6-.4-.8-1.3-.9-2.1-.1-1.1.3-2.2.4-3.3 0-.4.4-.8.2-1-.5-.3-1.5.5-1.7 0-.2-.5 1.2-.6 1.2-1.2 0-.5-1.7-.6-1.2-.7 1.9-.6 4.4 1.8 3.6-2.3-.1-.3-.7 0-1.1.1-1 .4-1.9 1.6-3 1.3-.6-.1.2-1.3.3-1.9 0-.8-.6-1.7-.2-2.4 1.1-2.3 2.4-.1 3.7-.4.5-.1-.9-.7-1.5-.6-.8 0-1.4 1.2-2.1.9-.8-.5-.7-1.8-1-2.7 0-.1.1-.2.1-.2 1.4-.7 2.7-1.4 4.2-1.9.7-.2 1.5.4 2.1.1.7-.4-1.8-.4-2.6-.1-.9.4-3.7 1.8-3.8 1.6-.9-.9-.6-2.9.2-3.8 1.3-1.6 5 .6 5.7 1.4.3.3-1 .1-1.3-.2-.2-.3.6-.9.3-1.1-1.4-.6-3.4.4-4.4-.7-1.7-1.9 6-1.2 5.1-1.1-1.5.2-3.2.7-4.6 0-.6-.3.7-1.5 1.4-1.7 3.6-1-.9 4.6 4.5 1.9.7-.3-1.1-1.2-1.7-1.6-.9-.6-2.2-.6-2.8-1.5-.3-.4 1-.4 1.6-.4.8 0 1.6.6 2.5.5.3 0 .4-.5.5-.8.6-1.5 2-2.9 1.7-4.4-.2-1-2-.5-2.9-1-.4-.2-.3-.8-.5-1.2-.6-.8-2.1-1.3-1.9-2.2.1-.7 1.5 0 2.3.2 1.4.4 1 3.2 2.7 2.8.9-.2.2-1.8.2-2.7 0-.3 0-.6-.2-.8-4-2.9 1.7 4.2.1-2.5-.2-.7-1.7 0-2.1-.6-.4-.8.4-1.8.3-2.7 0-1-.5 8.9-3.7 1.5-.4-.9 2.1-.5 2.5-1.4.3-.6-1.5-.9-1.2-1.5.2-.5 1.1.5 1.7.5.3 0-.8-.1-.8-.4 0-.7.9-1.1.9-1.8 0-.4-.9-.3-1-.7-.2-.8.2-1.6.3-2.4.2-.9 1.1-1.7.8-2.5-.2-.5-1.4.7-1.5.2-1.2-4.6 2.3-3.5.2-8.7-.1-.2-.4-.1-.6-.2-1.4-.8-2.9-1.5-4.3-2.4-.9-.6-1.9-1.1-2.5-1.9-.4-.5-.2-1.2-.2-1.8 0-1.1-.4-2.2.1-3.2.2-.4 1-.2 1.4 0 1 .6 1.5 2.1 2.7 2.5.8.3 1.8-2 1.1-2.4-.7-.4-1.7 0-2.5-.3-1.7-.7-.3-5.2 0-5.5.4-.4.9.5 1.4.7.6.1 1.3 0 2 .1.9.1 1.8.4 2.7.2 3.5-.7-.1-4.7 1.5-5.1 1.2-.3 2.6.6 3.7.1.6-.2-.1-1.5.4-1.7.5-.2.9 1.1 1.3.8.9-.7.1-3.2 2-3 1 .1 1.3 4.1 1.1 3.3-.2-1.1-.7-2.2-.7-3.3 0-.1 2.4-1.1 3.5.8.4.8-1.3 1.7-.8 2.5.4.7 1.6.2 2.4.3 1.1.1 2.4.7 3.3.1.7-.4.4-1.5.4-2.3 0-.7-.9-1.9-.3-2.2 1-.5 2.1.9 3.1.9.5 0-.7-.7-1.1-.9-.7-.4-1.6-.7-2.3-1.1-.5-.3 1.1 1 1.7.7.4-.2-1.5-1.1-1-1.1 1.1-.1 2.1.8 3.3 1 .1 0 .1-.3.2-.3 2.2-.5 4.5-1 6.7-1.3 1.3-.2-2.7.3-3.9 1-.6.3-1.7 1.8-1 1.8 1.3-.2 6.6-4.9 7.9-.3.8 2.9-5.6 2.6-5.6 2.6-.7.4-1.2 2-.5 2.3.8.4 1.4-1.2 2.2-1.6 1.2-.5 2.6-1.4 3.9-1 1.4.5 0 6.6 0 6.9 0 .3.3-.6.4-.9 0-.2-.2-.5-.1-.7.4-1.3.8-2.7 1.5-3.9.2-.3-.2 1 .1 1.2.4.2 1 0 1.2-.4.3-.6-.4-1.4-.1-1.9.5-1.2 3.1-.9 3.6-.1.2.3-.8 4.2-1 4.5-.3.3-1-.1-1.4.1-.8.4-2.7 1.3-2 1.7 1.1.6 2.4-1 3.6-.8.5.1 0 1-.3 1.3-.6.6-2 .5-2.3 1.3-.1.1 2.2 2.7 2.2 3.5-.1.8-.9 1.3-1.2 2.1-.1.2-.2.5 0 .8.1.1.5-.1.5 0 .2 1.4-.4 2.8 0 4.2.2.6.1-1.4.7-1.6.6-.2 1.6.1 1.7.7.1.6-1.5.7-1.4 1.3.3 1.4 4.4.6 3.4 1.7-1.1 1.3-3.9-.2-4 1.6-.1 1.3 3.3 2 3.5 2.2.8.9 1.7 3.6.9 4.1-.8.5-2 0-2.8.6-.3.2.6.7 1 .7s.7-.9 1.1-.8c1 .3 1.9 1 2.5 1.9.2.4 0 1.2-.5 1.2-1.1.1-2.2-1.2-3.1-.7-.7.3-.1 1.5.1 2.2.2.6.7 1.2 1.2 1.5.5.3 1.9-.2 1.8.4-.1.8-1.3 1.4-2.1 1.4-.9 0-2.3-.5-2.4-1.4-.1-.8 2.4.6 2.3-.2-.2-.8-1.6-.6-2.4-.3-.4.2.2 1.3-.3 1.3-.8-.1-1-1.7-1.8-1.5-6.5 1.7-.3 2.6-.3 3.1-.1.6-1.2.2-1.6.6-.2.2.1.6.4.8.9.7 2.1 1 2.9 1.8.3.3-.2 1.1.2 1.2.8.1 1.4-1 2.2-1 .7 0 1.3.7 2 1.1.3.2.9.1 1 .5.1.4-.5.8-.6 1.2 0 .3.3.6.4.9l.9 3.3c.1.6 0-1.6-.5-1.6-.8-.1-1.2 1.4-2 1.2-1.2-.3-5.8-4-7.3-5.1-.7-.5 1.3 1.1 2 1.5.9.6 2.8.4 2.9 1.5.1 1.1-1.9 1.1-2.6 1.8-.8.7-1.7 1.5-2.1 2.4-.2.4.8-.8 1.2-.5.8.4.8 1.8 1.6 2.1.5.2.1-1.2.6-1.3 1.4-.4 2.9-.2 4.4-.3.8 0 2.1-.7 2.4.1.3.8-1 1.5-1.6 2.2-2.7 3.7-3 4.7-8.7 5.9-1.4.3-3-1.4-4.2-.5-.8.6 1 2 .8 3-.1.6-1.3.3-1.7.7-.3.3.1.8-.1 1.1-.1.2-.4 0-.5.1-.5 1-.3 2.3-1 3.2-.9.7-2 1-2.8 1.6zM129.8 102.8c-.5 1.4-.4 3.1-1.4 4.2-.4.5-1.8.2-1.9-.5-.2-.8.9-1.4 1.4-2 .5-.5 1.9-1.7 1.9-1.7zM243.2 206.6v-.8.8z"/><path class="st1" d="M101.5 180.8c.6.5 1.6.8 1.9 1.5.3.8-.6 1.6-.6 2.5-.1 1.1.6 2.4.1 3.5-.5.9-3.8 1.5-2.7 1.5 1.9 0 3.6-.9 5.4-1.5.2-.1.5-.7.5-.5.1 1 .2 2.1-.3 3-.4.8-1.4 1.1-2.1 1.8-1.9 1.8-4.1 3.4-5.5 5.6-.6 1 .4 2.3 0 3.4-.6 1.5-4.2.8-5.5-.4-3.7-3.5 1.1-3.1.5-6.2-.1-.7-1.4 0-2-.4-1.9-1.4-4-6.8-4-8.1 0-.9 2.1-.2 2.4-1 .6-1.4-.4-3.1.1-4.6.3-.8 1.1-2 2-1.7 1 .4 1.1 1.9 1.4 2.9.5 1.7.7 3.4 1.1 5.1.1.2-.1-.5 0-.7.2-1 .8-2 .7-3-.1-1.7-3-5.2.2-6.3.7-.2.6 1 1.7 3.3.2.3.8 1.1.7.8-.1-1-1-1.9-1-2.9 0-.4.9-.3 1-.6.2-.6-.7-1.6-.1-1.8.7-.3 1.4.7 2.1.9.9.3 1.8.2 2.6.5 1.3.2-.6 3.4-.6 3.4zM242.2 211.8c.1-.4.2-.9.4-1.3s-.2.9-.4 1.3zM241.9 217.1c0-.4-.2-.8-.1-1.2.2-.3.1 1.2.1 1.2zM145.5 245.5c-.1 1.5.2 3.1-.2 4.5-.1.4-1-.7-.8-1 .2-.4 1.3.3 1.5-.2.3-1.1-.5-3.3-.5-3.3zM149.6 248.6c-.2.5-.3 1.1-.7 1.4-.4.2.7-1.4.7-1.4zM99.6 209.8c-.1-.1-.2-.4-.2-.4s.1.3.2.4zM99 206.1c-.5 1.3-1 2.5-1.5 3.8-.2.6-.1 1.5-.7 1.7-.5.2-1.2-.4-1.4-.9-.5-1.5-.6-3.2-.6-4.8.1-1.4 4.2.2 4.2.2zM241.7 225.3c-.9 1.4-.6-1.2 0-1.1.3 0 .4.6.4 1 0 .1-.4.1-.4.1zM116.1 235.5c-.2.4-.1 1.3-.5 1.2-.4-.1.2-.8.4-1.2 0-.1 0 0 .1 0zM102.9 224.5c-.5.3-.9.8-1.4.8-.3 0 0-.7.2-.8.4-.2 1.2 0 1.2 0z"/><path class="st1" d="M125.1 244.3c0 .4.3 3.3.5 3.2.2 0 1.9-3 2.4-.1.1.5-1.2.3-1.2.8 0 .9 1.2 1.4 1.2 2.3 0 .5-1.6-1.1-1.2-.9.8.4 2.2.5 2.3 1.4.1.7-2.1.6-1.8 1.2.6 1.3 2.6 1.5 3.5 2.6.2.3-.5.9-.9.8-.8-.1-1.3-.9-2-1.1-1.6-.3.2 1.7.1 2.3 0 .3-.6.3-.9.5-.8.5-1.5 1.5-2.4 1.6-.4.1.1-.8.1-1.2 0-.4-.4-.8-.3-1.2.3-1.1 1.8-2.2 1.3-3.2-.4-.9-2.1.6-2.9 0-.5-.3 1.2-.5 1.3-1.1.1-.4-.9.9-1.2.5-.4-.5.1-5.8-3.3-3-5.6 4.5-.1 2.3.3 3.6.1.2-.9 2.7-.3 3.1.2.2.3-1.1.5-.8.3.4-.2 1.1.1 1.6.2.3.8-.2 1.1.1 2.6 3.2-.6.8-.8 1.7-.4 1.9.9 5.1-.6 5.5-.3.1-.6-.7-.9-.5-.4.1-.2.8-.5 1.1-.7.6-1.6 1-2.5 1.3-.2.1-.4-.2-.6-.3-1.2-1.9-2.1-4.1-3.3-6-.1-.2-.5-.1-.7-.3-.2-.2-3.2-3.8-2.3-4.9.4-.4 1.5 1.1 1.6.6.2-.7-1.2-.8-1.4-1.5-.1-.3.8-.1.7-.4-.1-.9-.5-1.9-1.1-2.6-2.7-2.9-4.9-2.5-5.9-6-.7-2.4 3-1.1 4.6.4.5.4-.8 1.3-.5 1.9.2.4.6-.9 1.1-.9 1 0 2.2 1.5 3 .9 1.8-1.3-2.5-5.7 3.1-3.5 5.7 2.3 0 1.8.9 4.3.2.5 1-.6 1.6-.6.8 0 1.9 1.3 2.4.6.5-.6-.8-1.3-1.4-1.8-1-.9-2.8-1.2-3.2-2.5-.2-.7 1.4-.4 2.1-.8.3-.2 0-.6.1-.9.3-1 .9-1.9.9-3 0-.5-.8-.7-.8-1.2.1-2.1 2.9.3-.3-2.6-.6-.6-1.7-.6-2.2-1.3-.2-.3.5-.6.8-.9.4-.5.7-1.2 1.3-1.6.2-.2.9.3.8.1-.2-.4-1.1-.4-1.2-.9-.1-.4 1-.3.9-.7-.1-.4-1.1.3-1.1-.1-.1-1.4 1-2.7.9-4.2 0-.4-.9.2-1.3.3-1 .2-2.1.5-3.1.6-.2 0 .1-.3 0-.5-.1-1.1-.2-2.2-.5-3.3-.2-.8.4 1.6.2 2.4-.1.3-.7.2-.8 0-3.2-5.1-5.5-6.8-2.8-11.6 1.6-2.9 4-3.6 7.1-4.8.1-.1.1.3.3.4 1.2.4 2.6.1 3.5.9.4.4-.2 1.2-.7 1.5-.8.5-1.9.2-2.7.6-1 .6-1.7 1.5-2.3 2.5-.4.7-.5 1.5-.7 2.3-.1.4.3 1.4-.1 1.4-.9 0-1.6-1.6-2.5-1.4-.8.2 1.6.8 2.1 1.4.2.2-.5 1-.4.8.6-1.4 2-6.2 4.7-6.1.8 0 .2 2.4.9 2.1.8-.3-.8-2.1 0-2.4.7-.3.2 2.3 1 2.1.7-.2-.6-1.6-.3-2.3.2-.4.8.3 1.2.4.8.4 1.7.7 2.5 1.2 1 .6-.7 3.9-1.3 4.4-.9.8-2.4.8-2.9 1.8-.3.6 1.2.7 1.8.5.5-.1.6-.8.8-1.2.2-.3-1 .7-.7.9 1.2.6 2.9-.1 3.8.8.9.8 1.1 2.2.8 3.3-.1.5-1-.3-1.6-.3-.3 0-.7.1-.8.4-.3 1-1 4.7 1 5.4.9.3 1.9-1 2.9-.7.5.2.6 1.3.2 1.7-.8.7-2.3 0-3 .8-.6.8-.9 2.4-.1 3 .7.5 1.2-1.3 1.9-1.6.6-.2 1.6-.5 1.8.1.2.6-1.4.3-1.5.8-.2 1 1.1 1.9.7 2.8-.3.7-2.4 0-2.2.7.4 1.3 2.7 1.3 3.3 2.5 0 .1-4-2.6-3.8.2 0 .7 1 1.1 1.3 1.8.4.6.4 1.3.5 2zM98.7 231.9l-.3-.3.3.3zM248.7 237c-.2 0-.5-.1-.5-.1s.3 0 .5.1zM199 272.8c-.9-.1-2.4.5-2.7-.3-.2-.9 2.2-.8 2.1-1.7-.1-2.2-4.9-.7-5.2-.8-.5-.2.9-.7 1.4-.9.8-.3 1.8 0 2.4-.6.4-.4.3-1.5-.2-1.6-1.7-.2-3.3 1-5 .8-.5 0 .3-.9.5-1.3.4-.9.5-2 1.1-2.8 1.3-1.7 5 2.7 5.4 2.6.7-.3-1.1-1.8-.5-2.3.5-.5 1.3 1.1 2 .9.4-.1-.6-.9-.4-1.3.3-.4 1-.6 1.5-.4.6.2.9 1.7 1.3 1.3 1.2-1.1.8-3.3 2-4.3.5-.4 1.1 1.1 1.8 1 .6-.1.5-1.4 1-1.4s-.8.9-.6 1.4c.1.4.8 0 1.1.1.8.3 1.9.6 2.4 1.3.3.6-.6 1.3-.4 2 .1.3 1.1-.3 1.1.1-.1.5-1.1.5-1.2.9-.1.5.8 1 .5 1.5-.3.5-1.1.2-1.6.6-.1.1.4.2.3.4-.4.8-.7 1.6-1.4 2-1.9 1.4-4 2.6-6.2 3.3-.8.4-2.5-.5-2.5-.5zM163.6 272.8c0-.4 0-.8-.1-1.2 0-.1-.1.2 0 .3 0 .3.1.6.1.9zM98.1 237.2c-.3 1.3-.8 2.5-1 3.8-.1.9.9 2.7 0 2.8-.9.1-1.6-3.4-1.4-4.3.1-.2.9-.4.6-.4-1.2-.4-5.1-.4-5.2-.5-.4-.7 1.2-1.5 1-2.3-.2-.9-2.3-.8-2.1-1.7.2-.8 1.6.5 2.4.2.6-.2.6-1.1 1-1.5.2-.2.5-.1.7-.2.9-.6 1.6-2.3 2.6-1.9.9.3-.4 1.9-.1 2.7.1.3.8-.5 1-.2.8.9.5 3.5.5 3.5zM101.2 248.8c-.1-.5-.5-1.1-.4-1.6.1-.5.4 1.6.4 1.6zM276.4 217.8c.3.4.4 1 .8 1.2.2.1.3-.4.2-.6-.3-.3-.7-.4-1-.6zM68.8 130.5c0-.4-.2-1.2.1-1.1.3.2 0 .8 0 1.1 0 .1-.1.1-.1 0zM116.3 272.1c-.1.1-.4.2-.4.2s.2-.2.4-.2zM234.7 283.4c0 .2.1.5 0 .7 0 .1-.3 0-.3-.1 0-.3.3-.6.3-.6zM69 114.3c-.5-.5-1.7-.7-1.6-1.4 0-.9 1.1-2.8 1.8-2.2.9.8-.2 3.6-.2 3.6zM54.2 150.1c-1.1.2-2.3.8-3.4.7-.5 0 .7-.7 1.1-.8.7-.1 2.3.1 2.3.1zM277.1 249.3c.7 1.2 1.6 2.2 2 3.5.1.4-.8-.3-1-.6-.6-.9-1-2.9-1-2.9zM238.5 285.3c.1.4.6.9.3 1.3-.2.3-.5-.5-.6-.9 0-.1.3-.4.3-.4zM239.4 286.9c0 .1-.1.4-.1.4s0-.2.1-.4zM241.8 287.1c0 .2.1.6.1.6s0-.4-.1-.6zM273.5 260.2c1.1 1.7 3.8 3.7 0 4.2-.7.1-1.5-.1-1.9-.6-.2-.3.6-.6.7-.9.5-.9 1.2-2.7 1.2-2.7zM50.8 153.2c-.9 1-1.6 2.3-2.7 3.1-.3.2-.2-.9.1-1.2.7-.8 1.8-1.3 2.6-1.9zM72.2 97.6c-.1-.2-.4-.6-.4-.6s.3.4.4.6z"/><path class="st1" d="M237.3 278.1c1.3.3 2.7.2 3.8 1 .4.3-.8 1.7-.3 1.6.7-.1.7-1.4 1.4-1.7 6.9-2.9 2.3 4.7 2.4 5.4 0 .5 1-.5 1.5-.6 1.1-.3 2.3-1 3.4-.7 1.1.3 1.6 1.7 2.7 2.1.5.2 1.1-.6 1.6-.5 1.1.2 1.8 1.3 2.9 1.4 1.8.2 3.7-.4 5.3.4 1.6.8-.9 4.3-1 4.7 0 .7 1 1.3.9 2 0 .4-.7.2-1.1.4-1 .5-2 1-2.9 1.6-2.3 1.8-.3 5.8-6.4 3.1-.9-.4 2-.9 2.6-1.7.5-.6 1.2-2.2.5-2.2-.8-.1-.6 1.7-1.3 2.1-.8.5-1.8.4-2.7.6-.9.2-1.9 1.4-2.6.8-1.1-1-.1-4.8.8-5.8.6-.7 2.2-.6 2.4-1.5 0-.2-3.1-4.1-3.5-4.2-.8 0-.8 1.7-1.6 1.8-.6.1-4.2-2.6-5.2-1.8-.6.6.6 3.3.5 2.5-.3-1.6-.1-3.4-.9-4.9-.2-.5-.5 1-.9 1.4-.2.2-.8.2-.9-.1-.2-.7.4-1.4.4-2-.1-2-1.5.2-2.1-1.8-.3-1.1.3-3.4.3-3.4zM242.5 292.9c2.7 5.4 4.5 4.5 1.5 6-2.7 1.3-5.4 2.7-8.1 4-.6.3 1.1-.5 1.6-1 .7-.7 2.4-1.7 1.7-2.2-.8-.6-1.9 2.3-2.6 1.6-.7-.8 2.1-2.1 1.4-2.9-3.6-4.4-2.9 5.6-4-1.2-.3-1.7 2.9-1.6 3.4-2 .4-.3.1-1.1.3-1.7.3-.8.7-1.5 1.1-2.2.4-.5.7-1.7 1.3-1.4 1.2.5 1.6 2 2.4 3zM41.9 163.9c-.3-.2-1-.5-1-.5s.7.3 1 .5zM267.9 279.4c.6.4 1.4.8 1.9 1.3.1.1.1.5-.1.5-.8-.2-1.6-.4-2.2-1-.2-.2.2-.6.4-.8zM184.6 38.1c-.7.3-1.5.3-2.1.8-.5.3-.7.9-1 1.4-.1.2.5-.3.5-.6-.1-.8-.8-1.5-.8-2.3 0-1 .6-1.9.7-2.8 0-.2-.4.4-.4.2-.5-1.6-1.4-3.2-1.1-4.8.2-.7 1.8.9 2.1.3.7-1.7-.2-3.6 0-5.4 0-.3.3-.6.6-.6.8.2 1.2 1.2 2 1.2.7 0 .9-1.3 1.6-1.3.4 0 .6.8.4 1.2-.2.9-1.2 1.5-1.4 2.4-.1.5.6.9.6 1.5-.7 4.7-2.5-3.1-1.9 4.6.1.7 1.2 1 1.3 1.6-.1.9-1.1 2.6-1.1 2.6zM35.8 167.8c-.4 1.7-.4 3.5-1.1 5.1-.3.8-1.4 1.1-1.8 1.9-1 1.8.5 2.9-2.4 3.6-.3.1.1-.6.1-1 .2-1.1.2-2.3.8-3.2.2-.3.8.9 1 .6.2-.5-.7-1.1-.6-1.6.1-.4.8-.5.9-.9.2-.6 0-1.4.2-2 .5-1.2 2.9-2.5 2.9-2.5zM105.9 303.3c1.9 1.7 4.1 3.8 3.1 4-1.1.2-2.5-3.1-3.1-4zM125.4 307.3c-.4.1-1.1-.2-1.2.2-.2.4.7.7.6 1.1-.1.4-1 .3-1 .7-.1 1.7-.4 3.7.5 5.1 1.5 2.4 3.8-4.7 4.8 1.1.1.7-1.8 0-2 .7-.2.5 1.3.3 1.4.8.2 1-1.4 2.1-.8 2.9.5.7 1.6-.9 2.4-.7.5.1-1.1.4-1.3.9-.3.8.5 1.8 0 2.5-.3.4-1.1-.1-1.4-.5-.6-1.1-.3-2.6-1-3.7-.2-.3-.3.8-.6 1-.9.4-2.1 1.1-2.8.5-.8-.7.4-2.3-.3-3.1-.7-.6-1.9.3-2.8 0-4.4-1.3-1.2-1.2-3.5-2.1-.8-.3-1.8-.4-2.6-.8-.2-.1-.2-.6 0-.7 1-.3 2.6.5 3.1-.4.4-.7-1.7-.5-2.2-1.1-.3-.3.9.1 1.2-.1 1.8-.9 3.5-1.9 5.1-3 .6-.4.8-1.3 1.5-1.5 1-.3 2.9.2 2.9.2zM110.9 314.4c.4 1.9 1.7 3.3-.6 2.8-.9-.2-1.9-.4-2.7-.9-1.6-1.1 1.2-2.3 2.7-2.6.3-.1.4.5.6.7zM187.1 23.5c-1.5-.7-2.9-1.7-4.4-2.2-.6-.2-5.1-.2-5.4-1-.3-.8 1.6-.5 2.4-.6.9-.1 1.9.1 2.8-.2.9-.3 1.5-1 2.4-1.3.1-.1.2.1.3.2 1.1.3 2.3.7 3.4.8.8.1 1.5-.4 2.3-.3.5 0 .9.6 1.3.4.7-.2 2.3-1.6 1.6-1.4-1.6.5-3.1 1.4-4.5 2.3-1 .7-2.2 3.3-2.2 3.3zM79.2 308.8c-1.4-.8-2.8-1.4-4.1-2.3-1.2-.8 4.1 2.3 4.1 2.3zM297 296.4c1.2.8 3 1.1 3.7 2.3.4.7-.3 2-1.1 2.3-.7.3-1.3-.7-2.1-.9-1.5-.5-2.7-.4-2.4-1.1.5-.9 1.9-2.6 1.9-2.6zM322.7 273.5c.1.2.4.6.2.7-.3.1-.2-.4-.2-.7-.1 0 0 .1 0 0zM190.8 17.7c0-1.1-.8-2.7.1-3.3 2.6-1.9 6-2.4 9.1-3.3.1 0-.1.4.1.4.6 0 1.1-.3 1.7-.3 1.6 0 3.4.8 5 .6.9-.1 1.8-.8 2.7-.7.4.1.3 1 .7 1.1 1.6.7 5 .5 6.8.7 1.5.1 6.1.9 6.6 1 .2 0-.3.3-.5.3-.4 0-.9-.2-1.3-.3-1.8-.3-3.7.2-5.5 0-1.2-.1-2.3-.4-3.5-.6-2-.3-3.2-1-5-.3-1 .3-1.9.8-2.9 1-2.8.5-4.8-1-7.9.1-2.3.8-6.2 3.6-6.2 3.6zM314.4 286.8c0 1.5.7 3.3-.1 4.6-.7 1.2-2.5 1.4-3.7 2.2-.7.4-2.3 2-2 1.3 1.1-2.3 3-4.2 4.5-6.3.5-.7 1.3-1.8 1.3-1.8zM346.8 238.9c0 1.8.4 3.7 0 5.4-.2.8-.8 1.8-1.6 1.8-.6 0 .5-1.2.6-1.8 0-.2-.4-.2-.3-.4.2-.9.8-1.8 1-2.7.1-.7.3-2.3.3-2.3z"/><path class="st1" d="M212.6 12c.5-.1 1.1-.4 1.6-.4.4 0 .8.4 1.2.4.8.1 1.7-.3 2.5-.2.9.1 3 .1 2.6 1-.4 1-3.9-.2-4.7-.4-1.1-.1-3.2-.4-3.2-.4zM222 12.5c3-.2 4-1.1 5.6 1.9.1.3-.6 0-.9-.1-1.2-.1-2.4 0-3.6-.5-.5-.2-.7-.9-1.1-1.3zM43.6 301.5c6.1 6.6 11.9 13.4 18 20.1.7.8 1.6 1.3 2.2 2.2.6.8-1.2-.6-1.6-1-3.7-4.1-7.4-8.2-11-12.3-.5-.6-1-1.3-1.5-1.9-2-2.4-4.1-4.7-6.1-7.1zM327.2 67.7l24.6 35.1M371 223.3c-.5 2.6-1.6 8.9-2.7 11-1.8 3.6-2 2.5-4.9 6.3-.4.5-.5 1.3-1 1.8-1.7 1.7-3.6 3.1-5.3 4.7-.1.1 0 .2-.1.2-.8.4-2.3 1.8-2.6.9-.6-1.9.1-4.1 1-5.8l-.5.2-2.6.7c0 1.2-1.1 4-1.3 4.7-.1.2.3-.9.1-.7-.6.9-2.5 4.4-2.8 5.3-.3.8-.3 1.7-.5 2.5-1.1 4-5.3 10.8-7.8 14.3-.1.2-.5 0-.6.2-2.1 2.2-4 4.5-5.8 6.8-.6.7-3 5.4-2.7 6.3.6 1.5 4.3.4.7 3.7-7 6.5-14.6 12.5-22.1 18.5-.9.7.1-3.7 0-3.8-.8-.4-1.7.4-2.6.4-1 0-2-.6-2.9-.4-.6.2-.8 1.1-1.3 1.6-3.2 3.3-6.4 6.5-9.7 9.7-6.7 6.5-14.4 13.1-21.4 19-2.3 2 .6-2.3-3.6.5-.8.6-.8 1.8-1.4 2.6-2 2.8-4.9 5-6.6 8-2.6 4.6 2.9 1.8-.5 5.4-2.6 2.7-4.2 3.2-7.2 4.9-3.1 1.8-5.1 5-7.5 7.5-.2.2.8-.6.6-.4-.9.9-2 1.6-2.9 2.6-.2.2-.3.8 0 .9 1 .1 2-1 2.9-.6.6.3.6 1.5.2 2.1-.7.8-3.6 1.1-3 2.1-.1 0 4.4-1.6 4.5-1.6l2.3-.9 4.4-1.3 4-1.6 4.2-1.7 3.6-1.8 3.4-1.7 4.8-1.9 4-2.3 3.9-2 4-2.6 4.4-2.9 4.5-3 5.6-3.8 4.6-3.6 4.3-3.4 2.7-2.2 3.6-3.2 3.6-3.2 3.1-3.6 3.5-3.7 2.7-3 3.8-4.4 3.2-4.5 3.5-4.4 3.6-5.1 2.7-4.1 3.4-5.7 2.3-3.9 2-3.6 1.7-3.6 2.2-4.3 2.3-4.9 1.9-4.9 2.1-5.3 2.1-6.1 1.1-3.7 1.2-3.9 1.1-4 1-4.2.9-3.9.6-4.2zM290.5 36c-1.2-.8-2.4-1.6-3.7-2.3M291.6 36.8c-.4-.2-.8-.5-1.1-.7M22.2 266.2c4.2 4.3 7.8 9.1 11.5 13.8.1.1-.3.1-.2.2.6 1.1 1.1 2.4 2.1 3.2.2.2-.3-.8-.2-.7.5.9 1 1.8 1.4 2.7.1.1-.4-.3-.3-.2 2.3 2.7 4.7 5.2 7 7.9.4.5.3 1.3.7 1.8 1.1 1.3 2.8 2.2 3.3 3.8.5 1.5 1 5.4 2.4 6.9.2.2.4.2.6.4.1.2 1.7 5.6 3.7 4 1.3-1-4.3-6.8-1.9-7 2.9-.1 2.2.4 5.5 2.3.7.4 1.5.5 2.2.8 1.8 1.1 3.3 2.9 5.4 3.4.8.2-2.1-2.5-1.2-2.3 1.3.2 1.6 2.4 2.9 2.6 1 .1-2.1-1.4-2-2.5.1-.8 1.7 0 2.2.6.5.5.4 2.9.3 2.1-.1-1.4-.2-2.8-.5-4.1-.3-.9-2.1-2-1.4-2.6 1-.9 2.8-.2 3.9.5.6.3-1.6.2-1.7.9-.2.7 1 1.3.9 2-.1.5-1.6.3-1.2.6.5.4 1.3-.1 1.9-.1.3 0 .9.3 1 0 .4-.9-.2-2 .2-2.9.2-.3.9.1 1 .4.2.7-1.1 1.8-.4 2 .9.3 1.6-1.1 2.5-1.3.6-.1 1.2.1 1.8.3 1.4.4 5.4 3.9 6 3.7 1-.3 1.1-2.4 2.2-2.2 1.5.2 3 .6 4.5.9.6.1 1.3-.2 1.9.1 2.1.8-1 2.3 3.1 1.7.4-.1 0-1.1.4-1.1 1 .1 1.7.9 2.6 1.4.3.2.6.7.9.7 1 .1 2-.8 2.9-.4.5.3-1.3.9-1 1.3.6.9 1.9 1 2.8 1.6l.9.6c-1-.5-3.8-2.7-5.3-1.7-.8.5-1.7 1.9-1.1 2.7.8.9 2.3 0 3.5.1.6.1 1 .5 1.6.5.2 0 0-.7.2-.6.7.2 1.2.9 2 1.1 1 .3 2.1.2 3.1.5.6.2 1.9 1.4 1.8.8 0-3.4-2.4-2.2-4.1-3.1-1.3-.7-3.3-2.9-4-4.2-.4-.8-1.2-1.8-.9-2.7.3-.7 2.2.2 2.1-.5-.2-1.7-4.8-2.5-4.6-3.7.1-.8 1.6.4 2.3.9.5.3.6 1.1 1.1 1.3.9.4 4.2 1 3.1-.9-1.9-3.3-8.5-5.2-12.2-5.1-1.1 0-2.2.5-3.3.5-.7 0-2.6-.4-2-.7.9-.5 2.5.9 3.1.1.7-.9-1.8-3.1-.7-3.4 1.2-.4 1.4 2.3 2.6 2.8.6.3 1.3-.4 2-.5 5.6-.8-3.4.8 4.2 1.2 1 0 1.9-.9 2.9-1 .7-.1 5.5 3.5 6.6 4.1.5.3 1.2.3 1.7.6 1.8 1 3.4 3.5 5.7 3.4 1 0 2 .1 3-.2.5-.1.7-.9 1.2-1 1-.1 2 .3 3 .6.4.1.5.8 1.1.7 1.1-.2 2.2-.8 3.3-1.1.1 0 .4.3.4.2.2-1.4.5-2.9.1-4.2-2.8-8.4-.9 1.9-3.1-.9-.6-.8-.6-1.9-.8-2.9 0-.3.7.7.4.7-.1 0-6.4-.4-6.5-.4-.4-.3.6-1.1 1.1-1.1 1.2-.1 2.3.7 3.5.8.3 0 .5-.3.8-.3.8-.1 3.1.6 2.5 0-1.4-1.5-3.9-1.6-5.4-3-.4-.4.9-.9.9-1.5 0-.9-2.1.4-2.2 0-.6-1.4-.1-3.2-.5-4.7-.4-1.6-1.6-.5-1.2-2.4 0-.2.3.5.5.5.6-.1 1.5-.1 1.6-.7.2-1.2-.9-2.2-1-3.4 0-.3.7-.3.7-.5 0-.3-.8-.2-.8-.6.1-.4 1.3-.2 1-.4-.6-.5-2 .2-2.2-.5-.1-.7 1.9-.1 1.9-.8 0-.9-1.7-1-1.8-1.9-.1-.6 1.1-.6 1.2-1.2.1-.3-.7-.1-.7-.4 0-.9.6-1.7.5-2.5-.1-2.2-2.8.4-3.9 1.9-.2.3.9.7.6.8-.4.2-.7-.8-1-.6-.7.4-.6 1.9-1.3 1.9-.6 0 .7-1.6.2-1.9-.8-.5-1.9.1-2.8.4-.4.1-.8 1.1-.9.7-.2-.7 1-1.7.5-2.3-.4-.5-.9 1-1.5 1.1-.7.1-2.6.1-2.1-.5.8-.8 2.8.3 3.3-.8.4-1-1.8-1.4-2-2.4-.1-.6 1.2-.6 1.3-1.1.1-.3-.9-.3-.9-.6.1-.7 1.2-1.2 1.1-1.9-.2-.9-2.8-1.5-2-1.9.9-.4 1.5 2.2 2.3 1.7 4.3-2.6-.8-4.3-1.3-5.5-.3-.7.3-1.5.3-2.3-.4-4.4-2.4-6.3-6.2-9.2-2.1-1.7-2 2.7-2.2 2.9-.6.7-2.1.2-2.6 1-.6 1 .5 2.3 0 3.4-.2.5-1-.1-1.5 0-1.2.2-3.4.6-3.3 1.6.2 5 3.5 2.5-1 8.9-.4.6-1.4.6-2.1.7-1 0-2.1-.1-3-.4-1.1-.3-2.1-2.1-3-1.5-.9.6.3 2.3 0 3.4-.2.7-1.2 1-1.5 1.7-.3.9.3 2-.3 2.7-.4.5-1.3-.4-1.8-.1-.5.3-.1 1.6-.7 1.5-.7-.2-.3-2-1-1.9-.7.1.1 2.6-.4 2.1-3.7-3.5-.4-2.3-.6-4.3-.1-.9-.3-1.7-.6-2.6-.1-.3-.8-.5-.7-.8.6-1.9 2.7-3.3 2.7-5.3-.1-2.5-2.3-4.5-3-7-.1-.4 1.2.1 1.1-.3-.2-1.9-1.1-3.6-1.7-5.4-.1-.2-.4-.3-.4-.5 0-.5.5-1 .4-1.6-.3-2-.9-4-1.4-6-.4-1.4-1.2-2-2.4-3.1-.3-.3-1.3-.5-1.1-.9.2-.4 1.1.4 1.5.1.9-.8 1.2-2.2 1.8-3.2.2-.3.7-.5.6-.9-.1-.7-.5-1.4-1-1.8-.2-.2-1 .5-.8.3 1.4-1.5 3-2.7 4.4-4.1.1-.1-.1-.5.1-.5 1-.3 2.1-.5 3.2-.4.5 0 1 .8 1.5.6.3-.1-.2-.9.2-1 .9-.2 1.9-.1 2.7.3.4.2.4.9.7 1.2.3.3.6.4 1 .5.5.2 1.3 1 1.5.5.3-1.3-.7-2.5-.6-3.8 0-.3.9.4.8.1 0-.9-.9-1.7-.9-2.7 0-.4.5-1.1.7-.8.4.7-.1 1.6.1 2.4.2 1.2.6 2.4 1 3.5.9 2.1 6.6 4.4 8.3 1.8.5-.8-1-1.6-1.4-2.5-.1-.2-.3-.4-.4-.6 0-.8.4-1.6.3-2.3-.1-.9-1.9-2.7-1-2.6 3.1.4.6 6.7 2.3 7.2 1.1.3 2.4.7 3.4.2.7-.4-.2-2 .5-2.3.7-.3 1.2.9 1.4 1.6.1.4-.6.7-.6 1.1 0 .5.2 1.2.6 1.4.3.2.2-1.1.5-.8 2.3 2.2-3.8 3.7.6-2.2.4-.6 1.2 1 1.3 1.7.1.7-1.3 1.5-.8 2 .8.7 4.3 1.3 5.1-.4.5-.9.4-2.1.6-3.1.1-.4 0-1.1.4-1.2.7 0 1.2 1.2 1.9 1 .5-.1-.5-1.1-.2-1.5.3-.4 1.5.4 1.5-.1.2-1.4-.5-2.7-1-4.1-.3-.9-.3-2.2-1.2-2.5-1.4-.4-2 3.7-2.4 3.9-1 .6-2.3.1-3.4.4-.7.2-1.3.9-2 1-.2 0 .1-.4-.1-.5-.2-.1-.8.3-.7.1.7-1.3 1.6-2.5 2.5-3.8.5-.7 2.3-2.5 1.3-3.5-1.3-1.3-4 2.5-4 .7 0-.8 1.3-1 1.7-1.7.5-.9.7-1.9 1-2.9 0-.1-.2-.2-.2-.3-.2-.6-.8-1.5-.3-1.8.8-.4 1.9 1.1 2.6.6.9-.7.4-2.4 1-3.4.3-.5 1.1-.5 1.5-1 .8-.9 1.2-3.2 1-3.3-.9-.4-2 .6-2.9.4-1.2-.3.2-3.4-2.2-.3-.3.4.1 1.3-.3 1.6-1.4 1-2.6-1.9-2.5 1.6 0 1.2 1 2.3.9 3.5 0 .4-.7-.7-1.1-.7-.7 0-1.8.1-2 .7-.2.5 1.4-.1 1.6.4.2.6-.4 1.5-1 1.5-1.2 0-2.1-1.4-3.3-1.6-.5-.1-.8 1-1.3.9-2.1-.4 1.4-2.3 1.4-2.7-.2-2.3-2.5.5-2.7.3-.6-.7-.6-1.8-.9-2.6-.5-1.3-1.1-2.5-1.7-3.8-.9-2.1 0-.1-.1-3.8 0-.4-.4-.7-.4-1.1-.1-2.1.6-4.3.1-6.4-.1-.5-1.4-.1-1.4.4-.1 1 .6 1.9 1.2 2.7.4.5 2 .4 1.6.8-.5.5-1.3-.4-2-.5-1.3-.2-2.7-.7-4-.4-.9.2-2.6 2.4-2.2 1.6.9-1.5 2.6-2.4 3.5-3.9.2-.3-.9.5-1 .1-.2-1.4.5-2.8.4-4.1-.1-1-.7-1.8-.9-2.8-.2-1.1-.9-2.6-.1-3.3.7-.6 1.5 1.5 2.3 1.3.8-.2 1.2-1.2 1.3-2 .2-1.1-.5-2.2-.4-3.2.1-1 .8-1.8 1-2.7.2-.7.1-1.5.3-2.1.5-1.3 2.3-2.4 1.4-4.2-.2-.5-1.1-.1-1.5-.5-.3-.3-.6-1.1-.2-1.4.8-.6 2.9.4 2.8-.5-.1-1-2.2-.3-2.9-1.1-.3-.4.4-.9.8-1.2.8-.6 2.7-.4 2.7-1.4 0-1-4.7-8.1-4.6-8.7.1-.3.5-.8.8-.6.8.5 1.5 1.4 1.9 2.3.2.5-.3 1.1-.1 1.5.3.8 1.5 2.9 1.4 2.1-.5-3.1-1.4-6.2-2.6-9.1-.1-.3-1.1.9-.9.6.9-1.7 1.9-3.2 3.1-4.7.3-.3.8-.3 1.1-.6 1.3-1.5 2.3-3.2 3.5-4.9.1-.1.3-.2.3-.4.2-.8-.1-1.7.3-2.4 3.3-6.1 2-1.6 4.3-5.2.3-.5.6-1.1.7-1.6.1-.2-.3-.5-.1-.7.4-.6.8-1.3 1.5-1.5.3-.1.3 1.1.6.9.8-.7 1.2-1.9 1.7-2.9.3-.6.1-1.5.7-1.7.1 0 1.6 3.1 2.3.5 2.8-9.9-5.3 6.4-1-5.9.2-.5 1.2.7 1.5.3 1.5-2-1-5.1-1.1-7 0-1.1 3.9-4.9 1.2-5.1-1.6-.1-3 1.9-4.6 1.7-.6-.1-1.1-.6-1.7-.5-1.4.2-2.8.7-3.9 1.5-.6.4 2.7.3 2.2-.2-.7-.8-3.3.2-3.2-.9.1-1.5 3.4-.7 4.1-2.1.3-.5 2.3-6.8 2-6.7-.8.2-1.5.5-2.3.6-.8.1-1.8-.6-2.5-.2-3.4 1.8-.4 1.4-3.2 4.1-.3.3-1-.4-1.2-.1-1.3 2.1 1.6 4.2-3.3 2-1.6-.7.8-2.7.9-2.8.4-1 .1-2.1.4-3.1.1-.2.4.8.4.5.2-1.1.3-2.2.1-3.3-.1-.7-.8-1.1-.9-1.8 0-.3.9-.8.6-.8-1.1.1-4.4 2.3-5.2 2.2-1-.1-1.3-2.1-2.2-1.9-.7.1-.2 1.5-.2 2.3 0 .7.6 2.2 0 2-1.7-.6-2.6-2.6-4.1-3.5-.3-.2-.6.4-.8.7-.5 1-.8 2.1-1.2 3-.5 1-.9 2.2-1.7 3-.3.3-1.1-.4-1.3 0-.5.9.7 2.9-.3 3.1-1 .2-.7-2-1.5-2.8-.4-.4-1.4.2-1.5-.3-.1-.4 1.1-6.5 1.1-6.8 0-.4-.4-.9-.2-1.3.3-.7 1.1-1.1 1.3-1.8.2-.6-.1-1.4 0-2 .3-1.9.4-2.7.1-2.1-.6 1.3-.7 2.8-1.3 4.2-.1.2-.5.1-.6.2-.3.6-.2 1.3-.5 1.9-.3.5-1 .8-1.2 1.4-.3.9.1 1.9-.1 2.8 0 .2-.5-.3-.5-.1 0 1 .6 1.9.6 2.8 0 .6-.7 1.1-.8 1.8 0 .3.7.1.7.4.1.9-.4 1.8-.5 2.8 0 .3.3.5.4.8 0 .4 0 .8-.2 1.2-.1.1-.4 0-.4.1.2 4.2 1.1.9 4 4.7.3.4-.7.7-.7 1.2.1.7.8 1.2 1 1.9 1.4 5.6.1.7-.7 3.4-.2.5.2 2.1.1 1.6-.3-1.7.7-6.2-2.1-6.5-.6-.1-.3 1.9-.8 1.6-.7-.4.4-2.1-.3-2.3-2.4-.8-.9 2.7-.6 3.7.5 1.3 1.5 2.4 1.4 3.8-.1 1.7-1.2 3.3-2 4.8-.1.2-.1-.5-.3-.5-.5 0-1.4 1.4-1.5 1.5-.1.5.8 1.1.5 1.5-.2.4-.5-.9-.9-.9-.5 0-1 .6-1.2 1.1-.5.9-.4 2-.8 3-.3.8-2.1 3.5-2.6 4.3-.8 1.2-1.5 2.5-2.5 3.6-.5.6-1.7.7-2 1.5-.2.5 1 .8 1 1.3-.1.7-1.1 1-1.3 1.7-.1.2.7-.1.8.1.3 1.7-1.6.2-1.9.3-.3.1.2.6.1.9-.2.3-1.2.5-.9.6.8.3 1.6-.1 2.4-.1.4 0 1.3-.3 1.1 0-.8 1.2-1.9 2.3-3.2 3-.4.2-.7-.6-1.1-.7-.2 0-1.3 1.8-1.8 2.1-1 .6-4.7 1.3-4.8 1.5-.5.8 1.1 2.1.5 2.8-.8 1-4.5.1-3.4.8.8.6 3.3.6 2.7 1.5-.6.9-2-.6-3.1-.9-.2-.1-.5-.3-.6-.1-.4.7-.2 1.6-.6 2.3-.4.8.3-2.8-.7-1.3-.5.8-.4 1.9-1.1 2.5-.8.8-2.3.7-2.9 1.7-.6 1.1.8 3.1-.3 3.8-.8.6-.7-1.9-1.4-2.6-.3-.3-.9 0-1.1.3-.5.9-.5 2.1-.9 3.1-.1.3-.7.4-.7.7-.1.7.4 1.4.3 2 0 .3-.6.4-.7.7-.3 1.1-.1 2.4-.6 3.4-.3.6-1.2.6-1.6 1.1-1 1.2-1.5 2.9-2.7 4-1.4 1.3-2-1.7-1.7-1.9.5-.4 2.1 1.1 2 .4-.2-1.3-1.3-2.3-2.4-3-.3-.2-.1.9-.4 1-.3.1-.5-.4-.8-.4-1.4 0-2.9.2-4.3.4-.1 0 .1.4 0 .3-.5-.3-.8-1.1-1.3-1-.6.1-.8 1-1.3 1.3-2.7 2-4.2 1.6-5.2 4.9-.5 1.4.9 3.3.1 4.6-.4.5-1.5-1.1-1.9-.6-.9 1.1-.6 2.8-1 4.2-.1.2-.5.1-.5.3-.4 2.8 0 6.3-.4 9.3-.3 2.3-.4.7-1.1 3.8-.5 2.1-.7 4.1-.6 6.3 0 1 .8 2.5 0 3.1-.7.5-.7-3.4-.8-2.5-.1 2 .4 4.1.6 6.1.1 1.4 0 4.6.3 6.7.2 1.2.4 2.4.6 3.5 0 .3.1.5.1.8 0 .2 0 .4.1.6l.3 1.2c-.1-1.4-.5-2.7-.6-4.1-.2-3-.2-5.6-.1-8.5.2-4.7 0-1.6 0-5.3 0-.4.2-3.9 1.1-3.1.8.8.2 2.2.3 3.3.3 4.7-.7 1.8-.6 6.9 0 1.9.4 3.7.5 5.6 0 .1-.2.2-.2.3 0 1.4 0 2.8.2 4.2.9 5.4 2.1 10.7 3.3 16l1.5 4.4 1.9 4 1.5 4 1.6 4.6.9 2.6z"/><path class="st1" d="M323.4 242.5c-.1.8-.7 1.6-.4 2.4.5 1.3 2.7 1.6 2.8 3 .1.6-.7 1.2-.4 1.7.6.8 1.6 1.2 2.6 1.2 1.1 0 2.6-2.4 3.1-1.4.6 1.3-1.4 2.6-1.9 4-.1.3.3.6.3.9 0 .7-.3 1.3-.4 1.9-.1.6.4 1.4 0 1.8-.4.3-1.1-.8-1.4-.4-1.5 1.8-2.3 4-3.4 6.1-.5 1-1.6 2.1-1.3 3.2 2.1 8.4 2.3.4 3.6 1 .8.3.6 1.8 1.4 2.2.7.4 1.8-.5 2.5 0 .4.3-1 .4-1.3.8-.2.4.2 1-.1 1.3-.3.3-.8-.2-1.2 0-1.1.4-2.1 2.4-3 1.7-1-.8 3-5.5 3-5.9 0-.9-1.3 1.1-1.8 1.8-.1.1.2.1.2.2-.6 1.1-1 2.4-2 3.2-.8.6-1.9.4-2.9.7-1.3.3-2.5 1.6-3.8 1.2-1-.3-1.3-1.9-2.4-2.2-.8-.3-1.6.3-2.3.7-3.2 1.7-6 4.1-9.4 5.4-1 .4-2.1-.8-3.2-.6-1.5.2-4.6 3.6-4.6 4.6 0 4.4 5.3.6 6 .5 5.7-.8-1.3 2.4 4.7-.1 1.2-.5 2.3-1.2 3.4-1.8.5-.3.9-1.1 1.5-1 .8.1 1.3 1 1.9 1.5.2.2.2.9.5.8.6-.1 1.1-1.5 1.6-1.1.6.4-.1 1.5-.1 2.2 0 .8.5 1.7.3 2.5-.1.4-.7 1.3-1 .9-1.7-2.3 2-3.8-3.1-2.9-.4.1-.4.8-.8.9-.6.2-1.4-.1-1.9.2-.7.3-1 1.1-1.6 1.5-2.1 1.1-4.2 2.1-6.4 2.9-2.1.8-5.4-1.5-7.1.4-1.6 1.7-3.4 3.4-4.7 5.4-.7 1.3-.9 2.8-1.8 4-1.7 2.3-4.1 4.2-5.7 6.7-.2.4.7.6.8 1 .3 1.2-3.6 4.9-4.1 5.6-.2.2-.3.6-.3.9-.2.9-.7 1.8-.7 2.8 0 .7.9 1.2 1 2 .1.8-.5 1.5-.5 2.3 0 .4.7.7.5 1-.5.8-1.4 1.3-2.1 2-2.9 2.7-4.8 7.3-8.6 8-1.1.2-2.3.4-3.4.6-1 .2-2.1.3-3.1.7-.5.2-.7 1.1-1.3 1.1-1.4 0-2.7-1-4.1-1.3-.6-.1-1.2.5-1.7.3-1.4-.7.8-2.9.5-5.1-.3-1.7-3.4-3.1-4.4-3.8-.1 0 .1-.2.1-.2 3.9-2.4 7.9-4.6 11.8-7 2.7-1.7 5.7-5.4 6.7-7.9 1-2.6-6.9-2.1-6.5-4 .1-.4 1.4-.7 1.1-.5-.7.3-1.2.9-2 1-.2 0 .3-.8.1-.7-1.8.5-3.3 1.9-5.1 2.2-.8.1-1.9-.4-2-1.1-.1-.7 1.1-1 1.5-1.6 2.1-3.1 1.7-5.1 4.6-6.2 1.1-.4 2.5-.2 3.3-1 .6-.5.1-1.5.5-2.2.4-.9 1.6-1.4 1.6-2.4 0-.7-1.4-.8-1.4-1.5.1-.9 1.1-1.3 1.6-2 .4-.6.9-1.3 1.1-2 .1-.2-.3-.4-.2-.5.5-.5 1.7-.5 1.8-1.2.3-1.6-2.2-2.7-2-4.3.6-5.1 1.7-1.4 4.1-4.7.5-.7-.2-1.8.4-2.4.4-.4 1.3.3 1.7 0 .9-.7 2.3-1.7 2-2.7-.2-.8-1.7.8-2.6.6-1.7-.4-2.5-2.2-3.8-3.1-1.1-.8-2.8-.9-3.4-2.1-.7-1.1 3.7-3.9 1.9-4.1-.9-.1-1.3 1.2-1.8 2-.3.4-.7 1.8-.5 1.3.4-.9.9-1.7 1.1-2.7.3-1.1-.3-2.4.4-3.3.4-.5.7 1 1.2 1.3.2.1 3.4.8 2.9 2.4-.1.3-.9 0-.9.3-.1 2.8 5.3 4.4 6.3 4.4 4 .1-.2-4 2.4-4.9 1.3-.4 2.4.8 3.6-.7.6-.8.3-1.9.6-2.9.2-.7.8-1.2 1-1.8.1-.4-.2-.9-.1-1.3.1-.6.3-1.2.6-1.7.9-2 2.1-3.8 3.2-5.7.5-.9 1.4-1.6 1.7-2.5.1-.3-.5-.2-.8-.3-1.1-.6-2.4-1-3.4-1.9-.8-.7-1.4-1.5-1.7-2.5-1.6-5.1 1-1.8 1.6-6.7.1-.6-.5-1.5-1.1-1.5-2.6.1 1.4 5.8-3.9.3-.3-.3.4-.8.5-1.2.3-1.2 0-2.6.5-3.8.3-.8 1.4-1 1.7-1.8.7-1.6.1-3.5.6-5.1.3-.8 1.8-2 1.1-2.3-.8-.3-1.1 1.4-1.8 2-.7.6-1.7.8-2.3 1.5-.5.7-.2 1.7-.6 2.4-.1.2-.7-.3-.7-.1-.1.6.5 1.2.5 1.9-.1 2.3-.7 1-1.2 2.7-.3 1.2-.3 2.5-.8 3.7-.1.4.2-1.3-.2-1.2-1.4.4-2.4 1.8-3.8 2.2-1.7.4-1.7-2-2.5-2.5-1.4-.8-3.4-.5-4.5-1.7-.7-.7.1-2.1-.3-3.1-.1-.3-.7-.1-.8-.5-.3-1-.1-2.1-.3-3.2 0-.1-.3 0-.3-.1-.5-1-1.1-1.9-1.4-3-.1-.6.6-1.2.3-1.7-1.1-1.8-3-.8-4 .2-1.2 1.2-3 3.7-1.1 5.4.2.2.7-.3.9-.1.4.4 0 1.3.4 1.6 2.4 1.7 2.3-3.5 2.9 2.8.1.8-.6 1.6-.6 2.4 0 1.2.9 2.3.9 3.6 0 .7-.5 1.6-.1 2.2.6.9 2 .9 2.7 1.7.2.2-.6.6-.4.8.7.8 1.6 1.6 2.7 1.8.5.1.7-.9 1.3-1.1 1.1-.3 2.3-.3 3.4-.3.2 0 .4.1.4.3.5 2.9-1.7 3.7-3.3 5.7-.4.5.8-1.1 1.5-1.2.8-.1 2.1-.2 2.4.6.3.8-1.4 1.4-1.3 2.3.1.6.9-.9 1.4-1 .4 0-.8.6-.7.9.8 2 1.8.8 3.1 1.7.2.2.1.5.2.8.1 1.9 0 3.8.3 5.6.2 1 1.2 1.7 1.2 2.6 0 .3-1.8 2.5-2.1 2.4-.4-.1 0-.9-.3-1.1-.8-.4-1.8 0-2.5-.4-.3-.1.8-.2.7-.5 0-.5-.5-.9-.9-1-4.8-1.6 3.4 4.3-4.5-.6-.6-.4-.7-1.4-1.3-1.8-4.8-3.6-.2.6-4-.4-.8-.2-1.8-2.2-1.9-1.4-.2 1 1.6 1.6 1.7 2.6.1.5-1.1.4-1.3.9-.2.3.1.7.3 1 .1.1.4-.1.4.1 0 1.2 0 2.4-.3 3.5 0 .2-.4-.1-.6 0-.8.8-1.1 1.9-2 2.5-.2.2.3-.9 0-.9-1.2-.1-2.3.9-3.4.7-5-.8 1.1-4.7-1.5-7.1-.5-.5-3 5-4.1 2.1-.5-1.2 1.1-2.2 1.7-3.3.4-.6 2.1-2.1 1.5-1.7-1.5 1.1-2.4 4-4.3 3.7-1.5-.3 2.1-2.9 1.4-4.2-.6-1-1.6 1.7-2.6 2.1-.3.1-1-.4-.8-.7.5-.7 2.1-.4 2.2-1.3.5-2.6-3.5-3 .1-4.7.5-.2 1.1.3 1.6.1.2-.1 0-.6-.2-.7-.5-.2-1.3.3-1.5-.1-.2-.5.9-.7.9-1.3 0-.3-.9.1-.9-.2 0-.3.7 0 .9-.3.2-.5-.2-1.2 0-1.8.4-1 1.6-1.7 1.9-2.8.1-.4-.8-1-1.1-.7-.4.4.1 1.3-.1 1.8-.2.6-.8 1.9-1.3 1.5-.8-.7-.4-2-.5-3.1 0-.4-.1-.8.1-1.1.3-.3 1.1-.1 1.2-.5.1-.3-.9 0-1-.3-.2-.6.5-1.1.4-1.7-.1-.5-1.1 1.9-1 1.4.2-1.1.7-2.2.8-3.3 0-.4-.3 1.3-.6 1.1-2.4-1.3-.7-2.7-1.3-4.5-.4-1.2-1.8-2.1-1.9-3.4-.1-.8 1.5-1 1.4-1.8-.1-1.1-1.4-1.9-1.7-3-.4-1.2 1.3-3 .1-2.8-.7.1-1 1.8-1.7 1.5-.6-.3.9-1.2.7-1.9-.2-.9-1.7-1.3-1.8-2.2 0-.7 1.7-.8 1.6-1.5-.1-.6-1.4.1-1.8-.3-.3-.3-.4-1.4.1-1.4.6-.1.6 1.4 1.1 1.2 3.3-1-.6-2.6-.6-2.9.1-.6 1.5-.4 1.6-1 .1-.5-.8-.9-1.3-.9s-1.1 1.4-1 .9c.1-1.1 1-2.1 1.2-3.2.9-3.5-2.3-2.6.2-6.7.6-1 4.7-2.8 5.2-2.8.7 0 1 1.2 1.7 1.2.5 0 1-.7 1-1.2 0-.4-1.1-.3-1-.7.2-.6.9-1.5 1.5-1.2.6.2-.5 1.5.1 1.8.5.2.7-.9 1-1.3.1-.2.1-.5.3-.5.4 0 .7.8 1.1.5 4.3-2.7 7.8-6.8 12.4-8.8 1-.5 1.9 3.3 1.8 4.1-.1 2-3.5 7.5-4.7 7.6-.1 0-.5-.3-.3-.3 1.4 0 2.9-.2 4.3.3.6.2.3 1.3.8 1.6 1 .5 2.1.6 3.2.5 1.7-.2 2.9-5 2.8-5.3-.3-1-1.4 1.7-2.4 2-.6.1-1.5-.5-1.4-1.1.2-1 1.1-1.8 2-2.3.3-.2.5 1.3.7.9.5-1.4 1.5-3.2.7-4.5-.6-1-2.3.5-3.4.2-.4-.1-.2-.8-.4-1.1-.3-.8-.5-1.7-.9-2.5-.3-.5-1.1-.7-1.2-1.3-.1-1.1 1.7-1.9 1.5-3-.5-2.3-2.7-.1-3.5-.2-1-.1-1.7-1.1-2.7-1.3-.3-.1-2.5.9-2.3-.4.2-1 .5-5.2 3.4-3.6.6.4-.3 1.5 0 2.2.8 1.8 2.7 1 3.5-.3.5-.7.8-1.9.3-2.6-.5-.8-2.1-.2-2.7-.9-.5-.5.5-1.5 0-2.1-.3-.4-.8.8-1.2.6-.3-.1.5-.7.4-1-.4-1-1.3-1.7-1.8-2.7-.4-.7-.4-1.5-.7-2.3-.5-1.3-.9-2.6-1.6-3.8-.2-.5-.1 1.3.4 1.5.6.3 1.3-.6 2-.4.4.1.4 1.3.6 1 2.4-3.4-.6-1.6-1.2-3.2-.4-.9.3-2.1-.1-3-.4-1-2.1-1.5-1.9-2.5.1-.9 1.9-.4 2.5-1.2.3-.4-.9-.1-1.4-.2-.8-.3-1.4-.9-2.2-1.1-.8-.2-2.2.5-2.6-.3-.7-1.3 1.8-8.2 2.4-9.6.4-.9 1.8-1.7 1.5-2.6-.3-.8-1.8-.6-2.6-.4-.4.1.3.8.2 1.1-.4 1-.9 2.1-1.7 2.8-.6.5-4.1-.2-4.8 0-.5.1-.5 1-1 1.2-1.1.5-2.3-1.9-4-1.9-1.5 0-4.3.3-4.5-.4-.4-1.3-1.2-3.3-.1-4.2 1.3-1.1 3.5.5 5.2 0 .9-.2 1.1-1.6 1.9-1.9 8-3.6-4.1 4.6 7.3-1.5.7-.4.6-1.7 1.3-2.1 3.9-1.8 2.2-.1 3.8.8 1 .5 1.9 1.1 3 1.3.7.2.8-3.5 1.9.6.3 1-.6 2-.3 3 .1.4.9-.5.9-.9.1-1.1-.4-2.1-.4-3.2 0-.4.5-.9.2-1.2-.4-.4-1.1-.1-1.6-.4-3.1-1.8-1-2.3-5.2-2.4-.6 0-1.2.3-1.7.5-.7.3-1.3 1.2-1.9 1-2.2-.9-3-3.1-.9-4.3.8-.5 2.3.2 2.8-.6.6-.9-.2-2.1-.5-3.1-.3-.8.9 1.9.3 2.6-.5.6-1.5-.6-2.2-.4-.8.2-1.6.8-1.9 1.5-.6 1.4.5 5.4-.9 6.7-.7.6-1.9-.2-2.8-.2-2.3 0-4.6.5-6.8.9-1 .2-2 1-3 .9-.5-.1.5-1.1 1-1.2.9-.4 2 0 3-.3 1.6-.4 2.1-4.1 1.9-5.2-.1-.3-.7-1-.9-.6-.5 1.3-.1 2.9-.6 4.3-.1.4-.8 1-1.1.7-.7-.6-.2-2-.9-2.6-.6-.4-1.5.5-2.2.2-1.5-.6.8-4.4.7-4.7 0-.7-1.1-1.2-1-1.9.2-1.9 1.7.5 2.3.5 2.2-.1 3.2-.9 3.6-3 .1-.3-.4.5-.7.6-1.6.6-3.5.5-5.1 1.3-.5.2-.1 1-.3 1.5-.1.3-.4.6-.5.9-.3.8-.2 1.7-.8 2.4-.4.4-1.1.4-1.7.6-.8.3-1.6 1.5-2.2.9-1.4-1.3-2.1-3.4-2.5-5.4-.1-.7 1.7-2.3 1-2-1.6.7-2.7 2.3-4 3.3-.5.4-.9 1-1.5.9-.4-.1.1-1.1-.2-1.3-.6-.3-1.4-.2-2 .1-.3.2.3 1 0 1-1-.1-1.8-.7-2.6-1.3-.2-.1.1-.4-.1-.5-1.4-1-2.9-1.8-4.4-2.5-.4-.2 1.2 1.1.8.9-1.8-1.1-4.1-1.8-5.2-3.6-.5-.8 1.5-1.3 2-2.1.3-.5.7-2.3.3-1.8-1.3 1.3-1.3 3.9-3 4.6-1.1.4-1.2-2-2.1-2.7-.4-.3.7.9.5 1.4-.4 1.5-5.1 2.3-5.6 1.4-2.6-4.4.3-1.4 1.8-2 .4-.2-.6-.7-.7-1.2 0-.7.6-1.3.5-1.9-.3-1.1-3.5-1.1-4.3-1.9-.4-.4.4-1.1.4-1.7 0-.5-.4-1-.3-1.5.1-.9.4-1.7.7-2.5.8-2 4.3-.5 6.4-1 .2 0-.6-.2-.4-.3 1.1-.4 2.3-.7 3.5-.7.4 0 .6.6.9.6.4 0 .7-.5 1.1-.6 1-.2 2.1-.1 3.1-.3.8-.1-1.6.4-2.3.2-.8-.2-1.3-1.1-2-1.4-5.5-2.1.4.9-4.5 0-.7-.1-1.8-.4-1.9-1.1-.1-1 .9-1.8 1.3-2.7.3-.5 1.3-2.1.9-1.6-.6.9-.8 2.3-1.8 2.9-.9.5-5.2-1.9-5.6-2.7-1.2-2.7 5 1.2-.1-2.7-.7-.5-1.6-.5-2.4-.9-1.8-.8-3-2.6-4.4-4-.2-.2 0-.4 0-.7 0-1 .6-2.1.2-3-.5-1.2-.4 4-.9 3.6-2.5-1.9-.9-7.1-3.2-7.1-1.7 0-1.8 3.9-3.5 3.7-.9-.1-.4-1.9-1.2-2.3-.8-.4-1.7.8-2.6.5-1-.4-1.4-2-2.4-2.2-1-.2-2.3.2-2.9 1.1-.4.5.8 1.2.7 1.8-.1.5-1 .4-1.2.8-.5.7-.3 1.8-.9 2.5 0 0-2.4-.7-3.5-.9-.1 0-4-.6-4.1-1.1-.2-.7 1.9-1.6 1.2-1.8-1.7-.5-3.5.9-5.3.7-.6-.1 1.9-.6 1.5-1.1-.4-.7-1.7 0-2.4-.4-1-.5-1.8-1.5-2.7-2.2-.2-.1-.5.2-.7.3-1.1.3-2.2.7-3.2 1-1.7.5-3.3 1.6-5.1.6-.4-.2-3.3-3.3-3.4-3.4-.3-.5-.2-1.1-.4-1.6-.2-.6-.4-2.4-.6-1.8-.3.9.4 2 .2 2.9-.3 1.1-2.4 2.2-3.2 2.4-.3.1-.6-.3-.9-.3-1.1.2-2.3.3-3.3.9-.5.3-.3 1.4-.9 1.5-.2 0-2.9-3.6-5.2-1.4-1.8 1.8 2.9 3.4 2.1 4.1-.3.3-3.1.7-3.7.9-3.5 1.3-6.9 3.4-10.9 3.2-1.1-.1-2.1-.5-3.1-.5-.4 0 1.3.4 1 .5-1.8.5-3.7.7-5.5.7-.3 0-.3-.7-.5-.9-1-.6-2.2-2.1-3.3-1.6-.9.4 1.1 1.9.8 2.8-.2.7-1.3.5-1.9.9-.3.2-.4.8-.8.8-1 .1-1.9-.5-2.9-.4-.5.1-.9 1.2-1.3.9-2.3-1.8 1.3-2.4 1.5-2.8 1.5-2.8-.7-2.9-1.2-5.4-.1-.3.6-.3.9-.4 1.8-.1 3.6.1 5.4-.1.6-.1 1.1-.4 1.5-.7.7-.5 1-1.7 1.8-1.8 1 0 1.5 1.7 2.5 1.6.6 0 .3-1.3 0-1.8-.3-.4-1.3-.1-1.4-.6-.2-.6.3-4 1.5-4.5s2.6-.3 3.9-.7c.5-.2-1.8.4-1.6-.1.3-.6 1.4-.2 1.9-.6.8-.6 2.2-1.2 2.1-2.1-.2-.9-1.2 1.6-2.1 2-.3.1-.3-1-.7-.9-3.4 1.5 1.4 4.7-5.4.3-.3-.2.6-.4.6-.7.2-1.1-.3-2.3 0-3.4.1-.3.7.6.9.4.8-1 1-2.3 1.7-3.4 6.2-9.3-.3 1.7 3.3-4.2.9-1.5 2.1-2.8 2.7-4.4.2-.5-.6-1.4-.1-1.5.9-.2 1.7.9 2.6.8 2.3-.2 3.1-2.1 4.3-3.7.2-.3.5-1 .7-.8.4.5-.6 2 .1 1.9.9-.1 1.3-1.4 1.9-2.1 1-1.2 1.9-2.7 3-3.8.2-.2.6.2.7 0 .6-1 1.1-2.1 1.2-3.3.2-1.8-1.8.8-2.9.2-.5-.3 1-.9.8-1.4-.3-1-1.6-1.3-2-2.3-.2-.6 1.8-1.2 1.8-.5 0 .5-1.2 1.4-1 1 .6-1.1 2-1.9 2.3-3.2.1-.6-1.5-.8-1.3-1.3.5-.9 2-.5 2.6-1.3.8-1 .2-2.7 1.1-3.6.9-.9 2.7-.3 3.6-1.2.6-.5-.1-1.6 0-2.3 0-.4.5-.6.8-.8.9-.8 1.7-1.7 2.8-2.2.1-.1.9 3.1.9 3.2.1.3.6.3.9.5.5.5.4 1.4.6 2.1 1.1 2.8 2 3.2.8 6.5-.2.6-1.2.8-1.5 1.4-.3.6.4 1.4-.1 1.8-.8.7-2.2.4-3 1.1-1.5 1.5-2.2 3.6-3.5 5.2-.6.9-1.6 1.5-2.2 2.4-.1.2.1.5 0 .7-.4.6-1.3.8-1.6 1.5-.6 1.5-.3 3.4-1.1 4.8-.5.9-2.5.5-2.6 1.5 0 .8 1.7.1 2.5-.1.7-.2 1.6-.5 1.8-1.1.2-.8-1-1.6-.7-2.4.2-.5 1.2-.2 1.6-.5 1.3-1.2 1.7-3.8 3.5-4.2 1.1-.3.1 2.2.3 3.3 0 .2 0 .5.2.5.7-.1 1.4-.4 2.1-.7 1-.4 2.3-.4 3.1-1.1 1.1-1 1.6-2.5 2.6-3.7.5-.6 1.6-.6 1.8-1.4.2-1-1.2-2.1-.9-3.1.3-.8 1.5-.5 2.3-.7.8-.3 1.5-.7 2.3-.8.4-.1.8.2 1.1.2.9 0 1.8-.4 2.6-.2 1.1.2 1.9 1.3 3 1.4.7.1 1.3-.4 1.8-.9.2-.2-.5-.6-.3-.6 1.6-.1 3.2.4 4.8.3.3 0 .2-.8.5-.8.5 0 .8.5 1.3.6.5.1 1-.2 1.5-.2 2.2-.1 3.7.3 5.6-.7 1.6-.8 2.8-2.2 4.2-3.3 1.3-1 3-1.1 4.4-1.8 2.2-1.1 4.3-2.5 6.5-3.5.7-.3 2.7.1 2.3-.6-1-1.5-5-.6-5.3-2.1-.1-.7 2.1-1.3 1.4-1.7-2.1-1.1-4.2 2.7-7.1.6-.8-.6-2.1-.9-2.4-1.9-.2-.6 1.5.2 1.7-.3.2-.4-1.2-.2-1.2-.6 0-1 .9-1.7 1.3-2.6.7-1.6 1.5-5 3.2-6.1 4.3-2.9 13.7-6.9 19.4-7.2 6-.2-1.6.4 5.3 1.7.7.1 1.3-.5 2-.6 1.6-.3 3.3.1 4.9-.4.4-.1.2-.9.5-1 1.1-.3 2.2-.1 3.4 0 1.2 0 2.6 1 3.5.3.6-.5-1.3-1.1-1.6-1.8-.6-1.1-1.6-2.5-1-3.7.4-.8 1.7.2 2.5.4.9.1 1.8.4 2.7.5 1.2.1 2.4-5.7 3.8.5.5 2.3-4.6 1.3-2.8 2.9.2.1 5.6 1.8 5.3 2-.8.7-2.1-.5-3.1-.4-.5.1.9.3 1.3.6 1.1.8 2 1.8 3.1 2.5.6.4 3.9.5 5 .7.9.1 2.9-.3 2.6.6-.3 1-2.3-.2-3 .6-.4.5.4 1.5 1 1.8.8.4 1.7-.1 2.6 0 .6.1 1.1.3 1.7.4 1.1.1 2.2-.1 3.3.2 1.1.3 2 1.2 3.2 1.4.3.1.8-.6.6-.9-1.2-1.4-2.6-2.5-4.2-3.4-1-.5-2.2-.1-3.2-.5-.7-.2-1.2-.9-1.9-1.3-1-.5-2.2-.6-3.1-1.2-.3-.2.6-.3.9-.2.5.1.9.5 1.4.7 2.3.7 3.6 1.1 5.7 1.4 1 .1 2.1.1 3.1 0 .2 0 .6 0 .5-.2-1.7-1.7-3.9-3-5.4-4.9-.5-.7 1.7.7 2.5 1.1.8.3 1.6.7 2.4 1.1.4.2 1.5.9 1.1.8-.2-.1-5.5-2.8-5.4-3.3 0-.1 5.3 1.6 5.4 1.6.6.2-1.2-.5-1.7-.8-1.2-.6-2.5-.9-3.7-1.6-.6-.4 1.4.6 2.2.6.5 0-2.1-.6-1.6-.6 7 .8 4.4 1.5 10.1 2.5.6.1-2.2-.9-1.6-.8 3.1.5 7 2.6 10.2 4 .2.1-.9-.5-.7-.4 3.3 1.5 6.3 3.3 9.4 4.9 3.1 1.6 7.2 3.8 10.5 6 3.4 2.2 7.6 5.9 10.9 7.6l4.5 3.6 6.4 5.1 7.1 6.7 6.7 7 7.1 8.3 6.5 8.2 4.3 6.6 4.5 7 3.7 6.5 4.2 7.2 3.3 6.8 1.4 4.9 1.9 3.9c-.5.1-1.5-.1-1.5.4 0 1 1 1.8 1.4 2.7 1.5 3.4 1.9 5.6 2.5 9.4 0 .3-.2-1.2-.2-.9-.7 4.6.4 1.2.4 5 0 1-.6 2-.5 3 .2 1.8 1.2 3.8 1.5 5.4 1 4.5 1.6 9.2 2.1 13.8.2 1.9 1.1 7.6.6 9.4-.3.9-1 1.7-1.1 2.6-.1 1 .4 1.9.5 2.9.7 4.7-.3 6.5-1 10.7-.1.7 0 1.5-.3 2.1-.2.4-.8.4-1.1.8-1.9 2.6-1.4 4.1-1.5 7.2 0 .6-.7 1.5-.2 1.8 1.8 1.2 3.6-5 4.1-5.6.4-.6 1.6-.7 1.7-1.4.1-.7-1.3-1.2-1.1-1.9.1-.6 1.4-.3 1.7-.9.2-.5.1-8.1-.1-8.7-.2-1.1-.5-2.2-.8-3.3-.1-.3-.4-.5-.3-.8.2-1.6.9-3.1 1-4.6.2-1.7-.8-6.7.4-7.9.4-.4.4 1.1.6 1.7.6 2 1.2 3.9 1.6 5.9 1 5.3 1.1 10.8 1.2 16.2.2 8.5-.3 16.9-1.4 25.4-.3 2.3-.4 4.9-1.1 7.1-.3.9-1 1.6-1.4 2.4-.4 1-.6 2-1.1 2.9-.2.4-.6.8-.8 1.2-.6 1.3-.9 3.2-1.9 4.5-1.1 1.4-2.3 2.7-3.6 3.9-.2.2-.7.2-.9.4-1.6 1.4-3.2 2.8-4.5 4.4-.4.5 0 2-.7 2s-.6-2.7-.9-2.1l-3.1.9c.1-2.6-1-4.2-.2-2-.2-.7-.8-1.3-1.1-2-.5-1.2-.3-2.9-1.3-3.8-.5-.5-1.4-.5-2-.9-.5-.3-1-1.5-1.5-1.1-.6.5.2 1.6 0 2.3-.2.7-1 1-1.1 1.7-1.3 6.3 1.7-1.5-.8 6.1-.5 1.7-2.3 2.8-3.4 4.2-1.2 1.6 0 2.3-.6 4.6-.1.6-.8.9-1.2 1.4-1 1.5-1.4 3.5-2.8 4.5-.8.6 1.8-3 .8-3-1.1 0-.8 2.1-1.5 3-.3.3.6-1.3.2-1.3-.7 0-.8 1.3-1.5 1.3-.6 0-.5-1.2-1.1-1.3-.5-.1-.5.9-1 1-1 .2-2.2.6-3 0-.6-.4-.2-1.5.1-2.2.2-.7 1-1.2 1.2-2 .1-.3-.3-.6-.2-.8.5-1.2 1.8-2.1 2-3.3.2-.8-.8-1.6-.8-2.4 0-.4.4-.8.6-1.2.4-.8.9-1.5 1.2-2.4.7-1.7.1-3.5.3-5.3.3-2.3 1.3-3.7 1.9-5.9.1-.3-.2-.6-.1-.8.2-.3.9-.2 1.1-.5.4-.6.3-1.5.8-2.1.3-.4.9-.3 1.2-.7.4-.5.3-1.2.5-1.7 1.2-2.6.8.4 1.8-3.5.3-1 .1-2.1.4-3.1.2-.7.7-1.3.9-1.9.3-.9-.1-5.2-.8-5.4-.6-.2-1.4-.1-2 .2-.5.3-.8.9-1.2 1.4-2.8 4 .3.9-4.8 6.2-.2.3-.5.5-.9.6-3.8.6 1.1-1.6-2.6-3.1-.8-.3-1.3 1.9-2.1 1.6-.7-.3.7-1.5.7-2.2 0-.9.3-2.8-.6-2.6-1 .3-.6 2-.8 3-.2 1.1-.3 2.3-.3 3.4 0 .3.4.6.3.9-.1.9-.7 1.6-.8 2.5-.1 1-.5 2.3.1 3.1 1.7 2 2.4-2.9 3.4.8.2.6-.4 1.2-.4 1.8-.2 1.4.2 3.1-.8 3-1-.1-2.2-.1-2.9-.8-.4-.4.7-2.2.2-1.7-1.6 1.6-1.7 6.9-5.1 3.6-.4-.4 1.3-.1 1.6.4.2.4-.7.6-.8 1-.2.6-.3 1.3-.1 2 .2.8.7 1.5 1 2.2.6 1.6 1.1 3.1 1.1 3.1"/><g><path class="st2" d="M353.8 179.9c1 2.7 1.8 5.9.9 8.7-.3.9-1 1.6-1.3 2.5-.7 1.9.3 3.7-2.2 3.4-2.9-.4-1.1-3.6-3.1-5.4-.6-.6-.5 1.7-1 2.3-.7.9-1.8 1.4-2.6 2.1-.7.6-1.1 1.7-1.9 2-.9.3-1.9-1-2.7-.6-.9.4-.8 2.4-1.8 2.4-.9 0-.7-1.7-1.3-2.4-.3-.3-1 0-1.3-.4-.2-.2.5-.3.6-.6.1-1.1 0-2.1-.3-3.1-.2-.6-.8-1.1-1.2-1.7-.5-.8-.2-1-.4-1.9-1.1-4.2-1.8-2.9-.2-6.4.4-.8.5-1.9 1.3-2.4 3.9-2.5 1.7 3.9 2.2 5.3.4 1.1.9 2.2 1.4 3.3 0 .1.1.4.2.3 6.9-7.6-7.4 6.1 3.4-2.3.3-.2-.1-.8.1-1.2.3-1 .3-2.2 1-2.8.6-.5 1.5.5 2.2.1.3-.2-.6-.5-.8-.9-.2-.5-.3-1.2-.2-1.7.1-.4.7-.5.9-.8.5-.6.6-1.8 1.3-1.9.5-.1 0 1.1.3 1.6.1.2.4-.5.4-.4.5 1.6-.6 3.5.4 5 .3.4 1.2-.1 1.4-.6.2-.6-.5-1.2-.4-1.8.1-.3.7-.5.9-.3.3.5-.2 1.1 0 1.6.1.2.5.4.6.2.4-.7-.2-2 .5-2.3.8-.2 2.7 1.1 2.7 1.1zM216.9 118.4c-1.2-.4-2.3-.8-3.5-1.1-.1 0 .1.2.2.3 1.1.6 2.6.8 3.3 1.8.6.8-.7 2.6.3 3 1.2.4 3.6-3.9 2.7-4.5-.6-.4-.4 1.9-1.1 2-.7.1-1.9-1.5-1.9-1.5zM74.6 172.1c.9 1.1 1.7 2.3 2.7 3.4.1.1.3.2.3.1.2-1.2.2-2.4.2-3.6 0-.7 0-1.3-.1-2 0-.3-.2-1.2-.1-.9.8 1.9 1.3 3.9 2.1 5.8.3.9 1.3 1.6 1.2 2.6 0 .5-1.3-.7-1.4-.2-.4 1.2 1.1 2.7.4 3.8-.6.8-2.1.3-3.1.2-.7-.1.4-1.7-.6-3.5-.2-.3-.6.7-1 .5-.8-.4-2.2-1.2-1.8-2 .4-.8 1.9.9 2.6.4.5-.3-.8-.8-.9-1.4-.2-1-.5-3.2-.5-3.2zM113.8 253.3c-.2-1.3-.5-4-.5-4s.4 2.7.5 4zM278.2 222.3c-.4-1-.6-2.1-1.2-3-.3-.5-.9.7-3.8 1.6-.6.2 1.2-.9-.6-1.3-1-.2-2.1.1-3.1-.1-.2 0 .2-.4.4-.4.3-.1.7.2 1 .2 1.1-.1 2.1-.7 3.1-.5.4.1-1.1 1.1-.7 1 3.6-.5 2.5-1.1 2.6-3.5 0-.2 0 .6.2.7.4.3 1.3 0 1.5.5.5 1.4.6 4.8.6 4.8zM270.2 222c5.2 1.1 1.1 2.1 5.2 3.9.5.2 1.3-.8 1.7-.3.3.4-.4 1.1-.9 1.3-.6.3-1.4-.9-1.7-1.1-1.4-1.4-2.9-2.6-4.3-3.8zM62.6 190.3c.1-1.4-.2-2.9.2-4.3.2-.7-.1 1.7.4 2.3.6.8 1.4 1.8 2.4 1.8.8 0 .9-1.8 1.6-1.7.7.1.2 1.4.1 2-.5 2.4-2.1-.5-.4 3.7 1.1 2.6 1.4-.7 2.9 1.7.6 1 .7 2.2.8 3.3 0 .2-.2.7-.3.6-2-1.8-4-3.7-5.5-6-.8-1-1.4-2.2-2.2-3.4zM277.8 207c.3-.1 6.5-1.5 6.9-1.1.7.6-.5 1.9-.5 2.9 0 .4.8-1.1.4-1.1-1.6-.1-3.2 1.5-4.7.9-.8-.3 1.1-2 .4-2.5-.6-.5-2.5.9-2.5.9zM63.3 184.8c-.2-1.3-.5-4-.5-4s.3 2.7.5 4zM278.9 215.6c4-1.1 6.5-3.8 6.3 1.6 0 .9-1.7.6-2 .7-1.1.2-2.4 1.1-3.4.6-.9-.6-.9-2.9-.9-2.9zM60.6 155.5c-.1.2-.4.6-.4.6s.2-.4.4-.6zM73.8 115.1c.2-1.2.4-2.4.7-3.5.1-.2.6-.6.5-.4-.2 1.3-1.2 3.9-1.2 3.9zM57.8 199.8c1.4 2.9 2.8 5.7 4.1 8.6.2.4.5 1.6.3 1.2-2.5-6.2-1.7-5.3-4.4-9.8zM267.6 250c0 1.6 1.1 3.6 0 4.9-.8.9-1.3-2.1-1.3-3.3 0-.7 1.3-1.6 1.3-1.6zM297 167c-.6-.3-1.3-.4-1.7-.9-.2-.3.7-.2 1-.1.3.1.3.5.6.6 4.1.6 2.7.4 5.3-.6.3-.1-.6.2-.7.4-.8.8-1 2.5-2.1 2.6-1 .1-2.4-2-2.4-2zM293.2 205.4c1.1-.2 3.1-1.5 3.2-.5.1 1.4-1.7 2.4-3 2.8-.6.2-1.3-.8-1.3-1.5 0-.4.8-.5 1.1-.8.1 0 0 0 0 0zM305.2 172.3c-1.2-1.1-3.6-5.8-1.7-3.1.7 1 1.2 2.1 1.7 3.1zM300.3 196.9c0-.6-.1-1.8-.1-1.8s.1 1.2.1 1.8zM56.4 219.2c1.4-.1 2.8-.4 4.1-.4.5 0 1.9.3 1.4.4-1.8.2-5.5 0-5.5 0zM49.8 172.5c-.5 1.8-.5 3.9-1.5 5.5-.5.7.4-2.1-.3-2.6-.6-.4-2.1 1.8-1.7 1.2 1-1.6 2.4-2.8 3.5-4.1zM263.6 76.7c-.2-.7-.9-1.4-.7-2.1.6-1.6 3.1-3.9 4.8-4.8.2-.1-.4.4-.5.6-.1.2.1.5 0 .7-1.2 1.8-3.1 3.2-3.9 5.2-.3.8 1.5-1.8 2.3-1.4.8.5.8 2.2.1 2.8-.6.5-1.4-.7-2.1-1zM284.6 93.1c-1.1-.5-3.9-.5-3.2-1.5.9-1.4 3.2-1.1 4.8-.9.6.1-.8.8-1.1 1.3-.3.3-.5 1.1-.5 1.1zM311.4 185.1c.6-.6.9-1.8 1.7-1.7.9.1.8 2.1 1.8 2.1.7 0 1.1-2 .4-2-1.5 0-2.5 1.8-4 2-2.7.3-2-4.2-2-4.9-.1-.9-.7-3.7-.5-2.8.4 1.4.4 2.9.9 4.3.3 1.1 1.1 2 1.7 3zM298.9 111.2c-1.2-.7-2.4-1.3-3.5-2-.4-.3-1.4-1.3-1-1 1.6.9 3 2 4.5 3zM109.2 289.1c.5 1.1 1.6 2 1.7 3.2 0 .7-5.1-.7-5.1-.8-.4-1.3-.5-2.7-.6-4.1-.1-.6-.5-2.1.1-1.9 1.5.8 3.9 3.6 3.9 3.6zM54.3 228.8c-.6 1.1-.4 3.4-1.7 3.3-1.2-.1-1.4-2.4-.8-3.5.4-.7 2.5.2 2.5.2zM251.7 65.9c1.9-1.2 3.8-2.7 5.8-3.7.8-.4 4.4 1 5 1.1 1.1.2 2.2 0 3.2.2.9.2 3.3 1.9 3.8 2.4.2.2.9.9.5.9-.7-.2-1.3-.9-1.9-1.2-.6-.3-1.2-.6-1.9-.7-.7-.1-1.4 0-2-.1-.5-.1-1-.5-1.5-.5s-.9.3-1.4.3c-4.2-.1.6-.7-4-.4-1.4.1-2.7.6-4 1-.6.2-1.1.5-1.6.7-.1.1 0 0 0 0zM51.6 229.7l-1-1 1 1zM53.3 234.2c5.3-2.2 2.8-.5 1.4 1.5-1.1 1.5-1.5 3.3-2.5 4.9-.4.7-.7 1.7-1.5 1.9-.5.2-1.3-.7-1.1-1.1.5-.8 2.1-.4 2.5-1.3.4-.8-.8-1.8-.6-2.7.3-1.3 1.8-3.2 1.8-3.2zM98 292.2c-.8-.5-2.4-1.6-2.4-1.6s1.6 1 2.4 1.6zM50 234.5c-.4 1.4-.6 3.1-1.3 4.3-.2.3-1-.1-1.1-.4-.1-.5.5-.9.7-1.4.5-.9 1.7-2.5 1.7-2.5zM309.9 232.5c.5.3 1.6.8 1.6.8s-1.1-.6-1.6-.8zM88.4 286.4c-1.2 0-2.4.2-3.6 0-.2 0 .3-.5.6-.5.9 0 3 .5 3 .5zM291 84.2c.7 0 1.5.3 2.1 0 .5-.4-1.4 0-2.1 0zM327.4 200.3c-2.5-1.9-5.3-3.4-7.4-5.7-.7-.8-1.8-2.8-.8-3 1-.3.2 2.4 1.1 3 .9.6 2.4-.8 3.4-.1.7.4-.2 1.6 0 2.4.1.3.5.3.7.5 1 .8 2 1.9 3 2.9zM310.3 99.4c-.9.5-2 .8-2.8 1.6-.4.4.1 1.5-.4 1.7-.5.2-1.5-.9-1.1-1.2 1-.5 2.4.5 3.4-.1 1.7-.7 1.3-1.3.9-2zM324.4 202.2c.6.2 1.5 0 1.9.5.9 1.2 1 2.9 1.8 4.2.1.2.3-.5.3-.8-.2-.5-.5-1-.9-1.4-1-.8-3.1-2.5-3.1-2.5zM314.4 232.1c2.3-2.3 4.9-7.8 9.2-6.8 1.2.3-.5 1.3-.5 2.2 0 1.1.6 2.2.7 3.3 0 .6-.1 2.2-.3 1.7-4-11 2.6 3.3-.2-6-.3-1.1-1.2-2.2-2.1-1.4-.4.4-.5 1-.9 1.4-1.9 1.9-3.9 3.7-5.9 5.6zM39.4 230.2c.1.6.7 1.6.1 1.9-.5.3-.2-1.2-.3-1.8.1-.1.2-.1.2-.1zM324.9 122.7c-.9-1.6-2-3.1-2.8-4.7-.3-.5-.2-1.2-.4-1.7-.5-1.3-.9-2.6-1.6-3.8-.3-.6-1.7-2.3-1.3-1.7 1 1.8 2 3.6 3.3 5.2 1.7 2.2 4.3 4 5.4 6.6.3.7-3-.7-2.6.1zM38.9 237.6c-.7 1-1.3 2-2.2 2.9-.3.2-1.3.4-1.1.2.9-1.2 2.2-2.1 3.3-3.1zM59.7 284.9c-.5-1.2-1.1-2.4-1.6-3.7-.1-.2-.5-.6-.3-.7.8-.8 2.4-.7 2.8-1.7 0-.1-1.5-3.6-2-3.9-.9-.5-2.1-1-3.2-.7-1.4.4-3.3 5.5-6 1.8-2.2-3 3.5-3.9 4-4.6.3-.4-1.7-.7-1.3-1 3.5-1.7 4.6 2.6 7.9 2.8 1 .1-1.5-1.5-2.1-2.4-1.2-2-1.2-4.8-3.1-6.3-.3-.2-.8-.2-1-.5-.9-1.6-1.8-3.3-2.2-5.1-.1-.5.8.6 1.2.9.6.5 1.1 1.1 1.8 1.5.9.5 2 .5 2.9 1 1.7.8 2.4 3.1 2.9 4.9.2.7-.2 1.5-.2 2.2 0 1.6.1 3.3.2 4.9.4 4.5 4.2 7.9 6 12 .2.4.5 1.5.1 1.3-1.1-.4-1.9-1.3-2.5-2.3-.4-.7-.3-1.6-.5-2.4-.1-.3.3.7.1.9-.7.8-1.6 1.7-2.7 2-.2.2-1.2-.9-1.2-.9zM337.4 156.1c1 2.3 2.2 4.5 3.1 6.9.2.6.5 1.5.1 1.9-1.3 1.2-4.5-.5-5-1.6-1.2-2.2-1.6-4.8-2.2-7.3 0-.1.2.2.4.2 1.1.1 3.6-.1 3.6-.1zM74.1 295.5c-.6.3-1 .9-1.7 1-1.6.2-5.4-4.7-5.2-5.9.1-.6.9.8 1.4 1.2 1.8 1.2 5.5 3.7 5.5 3.7zM60.5 287.4c2 1.6 4.3 2.7 5.9 4.7.5.6-1.7-.1-2.4-.4-.5-.2-.9-.5-1.3-.8-1.6-1-4.8-3.8-5.3-4.4-2.3-3 1.5-1.4 1.6-1.4.5 0-.8-.4-1.3-.4-.1 0-.3.2-.2.2.8.9 3 2.5 3 2.5zM341 239.5c-.4.1-1.1.2-1.1.2s.8-.2 1.1-.2zM357.9 252.2c.3 2.9-.1 3.4-.7 6.5v-.6c.3-1.5.8-2.9 1-4.4.1-.6-.3-1.5-.3-1.5zM366.4 242.9c.5-1.7.3-.9.1-.5"/></g><g><path class="st3" d="M83.7 39.5c29 42.3 58.6 84.2 88 126.2M49.7 70.4c4.7 1.8 8.7 4.9 12.8 7.8 5.8 4.3 11.6 8.6 17.3 13 17.5 13.5 34.7 27.4 51.9 41.4 9.5 7.8 19 15.6 28.5 23.5l6.9 5.7c.8.6 1.5 1.3 2.3 1.9.8.6 2.3 1.9 2.3 1.9M24.3 108.9c1.4-.2 2.7-.5 4.1-.5 2.6-.1 5.9 1.2 8.4 1.9 6.4 1.8 12.7 4 18.9 6.3 23.2 8.4 45.9 18 68.5 27.8 10.5 4.5 20.9 9.2 31.3 13.9 3.6 1.6 7.3 3.3 10.9 4.9.9.4 1.8.8 2.7 1.3.9.4 2.8 1.3 2.8 1.3"/><path class="st3" d="M9.2 153c2.4-1 4.8-2.3 7.4-3.1 2.2-.7 6.5-.5 8.9-.6 7.4-.2 14.8.2 22.2.6 24.1 1.5 48.1 4.5 72 7.8 11.4 1.6 22.8 3.3 34.2 5.1 4 .6 7.9 1.3 11.9 1.9 1 .2 2 .3 3 .5s3 .5 3 .5M5.6 199.9c4.2-2.9 6.7-5.7 12.7-8.6 2.1-1 6.4-2.1 8.9-2.9 6.5-1.9 13.2-3.5 19.8-4.9 22.8-5 46-8.5 69.1-11.5 12.5-1.6 25-3.1 37.5-4.4l12-1.2 3-.3 3-.3"/><path class="st3" d="M14.2 246.7c.4-1.4.7-2.3 1.3-3.7.3-.7 1.1-1.5 1.6-2 9.9-8.5 17.2-13.3 28.3-20.2 5.6-3.5 16.3-8.7 22.7-11.7 17.6-8.5 35.5-16.4 53.6-23.9 10.9-4.5 21.9-8.9 32.9-13.1 3.8-1.5 7.6-2.9 11.4-4.3 1-.4 1.9-.7 2.9-1.1 1-.4 2.9-1.1 2.9-1.1M34.8 290.3c-.1-1.3-.4-2.6-.3-3.9.3-4 7.3-12.2 9.8-15.3 10.8-12.9 23.8-24.7 36.7-35.5 6.2-5.3 12.3-10.7 18.8-15.7 13.3-10.4 26.6-20.7 40-31l2.4-1.8c9.9-7.2 19.6-14.3 29.6-21.3"/><path class="st3" d="M66.3 327.4c-.4-1.7-1.2-4.5-.9-6.2.8-6 3.2-9.9 4.7-13.1 4.6-9.9 10.3-19.3 16.1-28.5 25.3-40.1 55.1-77.6 85.6-113.8"/><path class="st3" d="M106.8 355c-.6-1.2-1.5-3.3-1.7-3.7-.9-2.5-.3-7.2.1-9.7 1.1-7.6 3.1-15.1 5.2-22.5 9.5-33.5 22.8-66 36.4-97.9 5.1-12 10.5-24 15.9-35.9 2.1-4.7 4.3-9.3 6.4-13.9.4-.9.9-1.8 1.3-2.8.4-.9 1.3-2.8 1.3-2.8"/><path class="st3" d="M153.4 371.1c-1-2-1.8-3.9-2.7-6-.9-2.4-1.3-7.6-1.4-10.4-.3-8.6.1-17.2.5-25.8 1.8-32.5 6.1-64.9 10.9-97.1 2.2-15 4.6-30 7.2-44.9.9-5 1.8-10.1 2.7-15.1.2-1 .4-2 .5-3 .2-1 .5-3 .5-3M202.8 374.2c-1.2-2.1-2.2-4-3.3-6.1-1.5-3-3-9.3-3.8-12.9-2.1-9.2-3.7-18.4-5.2-27.7-5-30.5-8.8-61.3-12.1-92.1-1.6-15.1-3.1-30.2-4.5-45.4-.5-5.1-.9-10.2-1.3-15.3-.2-2-.3-4.1-.5-6.1-.1-1-.2-3-.2-3"/><path class="st3" d="M251.3 364.1c-2.1-3.5-4.3-7-6.3-10.6-2.8-4.8-4.7-10.4-6.9-15.4-4.1-9.4-8-18.9-11.8-28.4-10.5-25.9-20.5-51.9-30.3-78.1-5.4-14.3-10.7-28.6-15.9-42.9-1.8-4.8-3.5-9.6-5.2-14.4l-2.1-5.7c-.3-.9-1-2.9-1-2.9M295.4 341.4c-41.4-58.4-82.5-117-123.6-175.6"/><path class="st3" d="M331.8 307.7c-3.6-4.1-7.2-8.2-10.9-12.2-4.2-4.7-9.3-8.8-14-13.1-8.2-7.5-16.5-14.9-24.9-22.3-18-15.9-36.1-31.6-54.4-47.2-12.3-10.5-24.7-21-37.2-31.5-3.9-3.3-7.8-6.6-11.8-9.8-1.6-1.3-3.1-2.6-4.7-3.9-.8-.6-2.3-1.9-2.3-1.9M358 265.6c-1.6-1.8-2.7-2.9-4.4-4.7-2.5-2.6-8.3-6.5-11.3-8.4-8-5-16.2-9.7-24.4-14.3-27.1-15.1-54.8-29-82.7-42.6-13.7-6.7-27.4-13.2-41.1-19.7-4.6-2.2-9.3-4.3-13.9-6.5-1.8-.9-3.7-1.7-5.5-2.6-.9-.4-2.8-1.3-2.8-1.3"/><path class="st3" d="M371.9 218.1c-1.6-1.6-3.1-3-4.9-4.5-2-1.7-6.8-3.7-9.5-4.8-8.6-3.4-17.5-6.1-26.3-8.7-30.8-8.9-62.2-15.9-93.6-22.2-14.9-3-29.8-5.9-44.7-8.5-5-.9-10.1-1.8-15.1-2.7-1-.2-2-.3-3-.5s-3-.5-3-.5"/><path class="st3" d="M372.7 168.8c-1.6-1.3-3-2.2-4.7-3.3-1.9-1.2-7.1-2.6-9.6-3.1-8.1-1.4-16.3-2.1-24.6-2.6-32.8-2-65.8-.7-98.6 1.1-14.1.8-28.1 1.7-42.2 2.9-5.1.4-10.2.9-15.3 1.3l-3 .3-3 .3"/><path class="st3" d="M360.6 121.2c-1.5-.9-2.5-1.6-4.1-2.3-2.1-1-6.8-1.1-9.3-1.1-8.8.2-17.6 1.7-26.3 3.4-32.1 6.1-63.7 15.6-94.7 25.7-12.4 4-24.8 8.2-37.1 12.6-3.9 1.4-7.7 2.7-11.5 4.1-1 .3-1.9.7-2.9 1.1-1 .4-2.9 1.1-2.9 1.1"/><path class="st3" d="M336.5 78.9c-1.3-.5-2.5-1.3-3.8-1.6-2.3-.6-5.8.5-8 1-8 1.8-15.7 5.3-23 8.7-17.9 8.2-35.3 17.9-52.2 28.1-14.3 8.7-28.8 17.4-42.6 26.8-11.7 7.9-23.4 15.9-35.1 23.9M302.5 44.6c-1.6-.1-3.1-.4-4.7-.3-.7 0-4.4 1.6-4.8 1.9-10.6 7.9-21 16-31.5 24.1-6.6 5.1-14 13.1-20 19-11.9 11.6-23.2 23.8-34.4 36-8 8.7-15.8 17.6-23.5 26.5-2.7 3.1-5.3 6.2-7.9 9.2-.7.8-1.3 1.6-2 2.3-.7.8-2 2.3-2 2.3"/><path class="st3" d="M261.3 20.5c-1.1.2-2.9.5-3.8 1.2-8.5 6.5-13.9 13.9-19.8 22.6-16.4 24.2-30.3 50.2-43.7 76.2-4.9 9.6-9.7 19.2-14.4 28.8-1.8 3.6-3.5 7.3-5.3 10.9-.4.9-.9 1.8-1.3 2.8-.4.9-1.3 2.8-1.3 2.8M215.9 7.9c-1.4 1.2-1.6.8-4.2 3.9-2.8 3.5-3.4 6-4.4 8.4-2.7 6.5-4.9 13.2-7 20-7.4 24.2-13.1 49-18.4 73.8-2.4 11.3-4.7 22.6-6.9 33.9-.8 3.9-1.5 7.9-2.2 11.8l-.6 3c-.2 1-.5 3-.5 3"/><path class="st3" d="M169.3 7.2c-.7 1.2-1 2.1-1.5 3.4-1 2.5-1.4 6.4-1.6 9-.6 6.6-.7 13.3-.7 20-.1 24.7 1.1 49.4 2.6 74.1.7 11.4 1.5 22.8 2.3 34.2.3 4 .6 8 .9 11.9.1 1 .2 2 .2 3 .1 1 .2 3 .2 3"/><path class="st3" d="M124.4 18c-.1 5.1 1.4 10 2.7 14.9 1.7 5.9 3.4 11.8 5.3 17.7 6.9 22.2 14.4 44.2 22 66.2 3.7 10.7 7.5 21.4 11.3 32.1 1.3 3.7 2.7 7.5 4 11.2.3.9.7 1.9 1 2.8.3.9 1 2.8 1 2.8"/><path class="st3" d="M84.3 40.4c-6.3 4.5-8.7 6.5-15.5 12.2C58.7 61 48.2 73.2 40.5 84 6.8 131.8-1.6 194.6 19.1 249.4c2 5.4 4.3 10.7 6.9 15.8 1.8 3.4 3.5 6.9 5.5 10.2 7.9 13 15.6 23.7 26.3 34.6 2.7 2.8 5.6 5.4 8.4 8.1 7.9 7.3 16.7 13.7 25.9 19.3 42 25.7 93.9 32.6 141.2 19.2 11.6-3.3 23.3-7.5 33.8-13.3 4.4-2.4 8.8-4.9 13.2-7.5 9.9-5.8 18.5-12.5 26.5-20.3 22.7-22 38.7-45.3 48.7-75.4 6.9-20.8 10-42.9 8.9-64.8-1.1-22.6-6.6-44.9-16.1-65.4-9.2-19.8-19-29.7-34.6-49.9-2.9-3.7-9-8.5-12.8-11.7-8.8-7.4-18.4-13.8-28.5-19.3-42.7-23.1-94.1-27.6-140.3-12.5-17.2 5.5-32.8 13.9-47.8 23.9"/><path class="st3" d="M91.9 51.5c-8.3 6.2-10.2 7.9-17.4 14.1-6.9 6-14.3 14.9-19.7 22.4-30.3 41.7-38.5 96.9-20.9 145.4 2.9 8 8.8 20.7 13.1 27.4 12.5 19.6 18.3 25.9 33.2 38.6 37.6 31.8 90.1 43 137.6 31.2 11.9-3 23.9-7.2 34.7-13.1 3.1-1.7 6.2-3.4 9.3-5.2 9.2-5.4 15.8-10.4 25.5-19.1 5.1-4.7 10.1-10.1 14.6-15.4 13-15.5 22.9-33.8 29-53.1 10.3-32.4 9.7-67.8-1.8-99.8-2.9-8.1-8.4-21.3-13.2-27.7-1.6-2.1-13.9-20.3-21.8-28.1-23.8-23.4-52.8-39-85.8-44.4-29.5-4.8-60.7-1.1-88 11-10.1 4.4-19.2 9.9-28.4 15.8"/><path class="st3" d="M109.6 76.8c-13.3 10-24.6 21.5-33.4 35.6-17.3 27.8-22.1 63.4-12.5 94.8 1.8 6 3.9 12.2 6.9 17.7 7 12.9 6.7 12.1 16.9 25.4 2.7 3.6 6.2 6.4 9.4 9.6 4.5 4.5 10 8.2 15.3 11.7 25.8 16.8 58.3 22.2 88.2 15.7 8.3-1.8 16.7-4.4 24.4-8.1 3-1.4 5.9-2.9 8.8-4.5 9.8-5.4 16.4-10.8 25.3-19 4.7-4.3 11.4-12.7 15.2-18.2 19.6-28.4 25.7-66.1 15.6-99.1-1.8-6.1-3.9-12.3-7-17.9-5.2-9.6-10.3-18.9-18.2-26.9-7.3-7.4-14.5-14-23.2-19.7-22.7-14.9-50.9-21-77.8-17.7-13.2 1.6-25.8 5.6-37.9 11.2-4.7 2.2-13.2 7.6-14.7 8.5-.3.1-1.3.9-1.3.9"/><path class="st3" d="M137 116.1c-6.7 5.9-10.1 8.3-14.7 14.3-12.2 15.8-15.7 37.6-9.9 56.6 10.1 32.6 44 50 75.8 41.9 5.8-1.5 12.1-4.5 17.5-7.4 5.2-2.8 7-4.6 11.7-9.1 6.1-5.8 12.9-16.6 15.7-24.7 12.5-35.7-9.3-74.9-47.1-82.2-13.7-2.6-27.5-.5-40.1 5.3-3.2 1.5-6 3.5-8.9 5.3"/></g></svg>