<?xml version="1.0" encoding="utf-8"?>
<!-- Generator: Adobe Illustrator 19.1.0, SVG Export Plug-In . SVG Version: 6.00 Build 0)  -->
<svg version="1.1" id="Layer_1" xmlns="http://www.w3.org/2000/svg" xmlns:xlink="http://www.w3.org/1999/xlink" x="0px" y="0px"
	 viewBox="0 0 380 380" style="enable-background:new 0 0 380 380;" xml:space="preserve">
<style type="text/css">
	.st0{fill:#29B5C8;}
	.st1{fill:#58595B;}
	.st2{fill:#009CAD;}
	.st3{fill:none;stroke:#FFFFFF;stroke-width:1.0281;stroke-miterlimit:10;}
</style>
<g>
	<path class="st0" d="M298.4,339.4c82.4-59.9,100.6-175.3,40.7-257.7C279.2-0.6,163.8-18.8,81.4,41.1C-1,101-19.2,216.4,40.8,298.7
		C100.7,381.1,216,399.3,298.4,339.4z"/>
	<g>
		<path class="st1" d="M161.8,199.3c-0.1-0.6-0.3-1.8-0.3-1.8S161.7,198.7,161.8,199.3z"/>
		<path class="st1" d="M208.1,186.9c1,0.3,2.3,0.3,3.1,1c3.4,2.7-3.1,5.3-5.2,3.9c-0.4-0.2,0.9-0.6,0.8-1.1c-1-4.5-3.6,4.5,1.7-1.3
			C209,188.8,208.1,186.9,208.1,186.9z"/>
		<path class="st1" d="M139.1,185.8c2.4,4.4-2.6,2-1.3,5.9c0.2,0.5,1.7-0.7,1.4-0.3c-0.7,1.1-2.2,1.4-2.8,2.5
			c-0.3,0.7,1.1,1.7,0.5,2.2c-0.9,0.7-2.3-0.1-3.4,0c-0.8,0.1-1.7,1.1-2.2,0.5c-0.5-0.6,1.1-1.3,1-2c-0.2-0.8-1.7-1-1.8-1.8
			c-0.1-0.8,0.8-1.3,1.1-2c0.4-0.7,0.4-1.6,1-2c0.5-0.3,1.4,0.7,1.8,0.2c0.3-0.4-0.9-0.8-0.8-1.3c0.1-0.5,0.7-1.2,1.2-1.1
			c0.6,0.1,0.5,1.7,1.1,1.6C137.2,187.8,138,186.5,139.1,185.8L139.1,185.8z"/>
		<path class="st1" d="M150.4,190.5c0.7,0.2,1.4,0.5,2.2,0.5c0.1,0,4.3-1.9,3.4,1.1c-0.2,0.6-2.2,0-1.8,0.4c0.6,0.5,1.8-0.5,2.3,0.1
			c3.2,3.5-0.5,3.5-2.2,4.6c-0.3,0.2-0.3,0.6-0.6,0.9c-0.3,0.4-1.9,0.9-2.2,0.9c-2.5,0.4-5,0.9-7.6,1c-2.9,0.2-4.3-1.2-4.4,0.1
			c0,0.1,3.4,3.6,1.3,3.9c-15.5,2.8,5.3-1.7-7.1-1.6c-0.7,0-1.5,0.9-1.5,1.6c0.1,0.9,1.7,1.1,1.8,2c0.6,3.6-2.7,2.7-4.3,1.7
			c-0.3-0.2,0.9-0.3,1-0.6c0.2-0.8,0.4-2-0.1-2.6c-0.4-0.4-0.3,1.9-0.8,1.6c-0.5-0.3,0.7-1.4,0.2-1.9c-0.3-0.4-0.4,1.1-0.9,1.2
			c-0.3,0.1-0.5-0.5-0.6-0.9c-0.5-2.4-2.1-6.4,2-6.8c2.3-0.2-0.6,3.6,1.2,4.8c3.4,2.2,3.2-4,3.1-4.3c0-0.6-0.8-1.3-0.4-1.9
			c0.2-0.4,1,0.3,1.2,0.7c0.4,0.8,0,1.9,0.4,2.7c0.1,0.2,0.5-0.3,0.5-0.5c0-0.8-0.6-1.6-0.4-2.3c0-0.2,1.8-4.7,3.2-4.6
			c0.7,0,1.1,1,1.1,1.7c0,1.1-1.1,2-1,3.1c0.1,0.5,0.9,1,1.4,0.7c0.4-0.2-0.9-0.6-0.9-1c0.1-5.3,2.2-1.3,4.3-0.8
			c1.1,0.2,3.4-0.6,3.1-2.2c-0.4-2.2-3.2,0.9-5.2,0.1c-6.4-2.4,1.2-3.2,1.2-3.4c0.1-1-6.8-2.1-1.5-4.7c0.9-0.4,1.9,0.6,2.9,0.8
			c0.8,0.2,1.9-0.3,2.3,0.3c1,1.4-3.1,3.2,0.3,4.5C148.3,191.8,150.4,190.5,150.4,190.5z"/>
		<path class="st1" d="M205.2,134c2.3,0,5.7-0.9,2.5,4.7c-0.6,1-4.1,0.3-4.3-1.1c-0.1-0.5,0.9-0.5,1.1-1
			C204.9,135.9,205.2,134,205.2,134z"/>
		<path class="st1" d="M209.2,130.4c-2.1,0.9-4,2.2-6.2,2.6c-0.8,0.1,1.6-1,1.8-1.8c0.2-0.9-1-1.7-1-2.6c0-0.3,0.6-0.3,0.9-0.2
			c1,0.4,1.7,1.2,2.7,1.6C207.9,130.3,209.2,130.4,209.2,130.4z"/>
		<path class="st1" d="M129.7,183.1c-0.8,2.3-1,5.7-4.1,6.2c-0.4,0.1-0.5-0.8-0.4-1.2c0.2-1,1.1-1.7,1.2-2.7
			c0.1-0.6-1.2-1.2-0.7-1.6c0.5-0.4,1.2,0.7,1.9,0.6C128.3,184.3,129.7,183.1,129.7,183.1z"/>
		<path class="st1" d="M125.8,178.8c-0.6-0.4-1.3-0.8-1.9-1.2c-0.2-0.1-0.7-0.6-0.5-0.4C124.2,177.6,125,178.2,125.8,178.8z"/>
		<path class="st1" d="M204.4,197.6c0.2-0.9,0-2,0.6-2.8c0.3-0.4-0.2,1.3,0.3,1.7c0.4,0.3,4.2-0.5,4.3-0.6c0.3-0.3-0.9-0.5-1.3-0.7
			c-1.7-0.9-3.3-1.7-2.7-2.4c2.2-2.4,1.9,1,3,1.1c1.4,0,2.7-1.6,4-1.1c0.8,0.3-0.4,1.8-0.1,2.6c0.2,0.5,1.1,0.3,1.3,0.8
			c0.9,1.9,1.2,4,2.1,5.9c0.2,0.3,0.6-1,0.3-1.1c-2.8-0.6-3.3,1.8-5.2-0.8c-0.2-0.2,0.7,0,0.7-0.3c0.3-1.1,0.5-2.2,0.2-3.3
			c-0.2-0.5-1.2-0.7-1.4-0.3c-0.6,1.1,0.2,2.7-0.3,3.8c-0.2,0.4-0.5-0.9-1-1.1c-0.8-0.3-1.6,0.2-2.4-0.1
			C205.8,198.7,204.4,197.6,204.4,197.6z"/>
		<path class="st1" d="M122.4,176.2c-0.4,0-1,0.3-1.3,0C120.8,176,122.3,175.8,122.4,176.2z"/>
		<path class="st1" d="M140.4,209.9c0,0.1,0,0.4,0,0.4S140.4,210,140.4,209.9L140.4,209.9z"/>
		<path class="st1" d="M119.1,172.8c0.1,1,0.9,2.2,0.3,3c-0.7,0.9-4.1,0-4.5-1c-0.8-1.8-1.1-3.7-1-5.7c0-0.5,0.9,0.3,1.3,0.5
			C116.5,170.6,119.1,172.8,119.1,172.8z"/>
		<path class="st1" d="M126.3,199c-1.7-0.4-0.2-0.2-0.2-0.2C126.3,198.8,126.3,198.9,126.3,199z"/>
		<path class="st1" d="M117.6,190.3c-0.2-0.1-0.7-0.3-0.7-0.3S117.3,190.2,117.6,190.3z"/>
		<path class="st1" d="M120.7,190.6c0.6,2.6,2.6,7.3-5.5,2.8c-0.9-0.5,0-2.3,0.6-3.2c0.3-0.4,1,0.1,1.4,0c0.7-0.1,1.4-0.8,2.2-0.7
			C120,189.6,120.7,190.6,120.7,190.6z"/>
		<path class="st1" d="M124.7,197.8c0.1,1.1,0.7,2.2,0.3,3.2c-0.4,1.1-1.8,1.4-2.5,2.4c-0.1,0.2,0.4,0.3,0.5,0.5
			c0.6,0.8,0.9,1.7,1.6,2.5c0.2,0.2-0.4-0.8-0.1-0.8c3.9,0.2,4,3.9,1.6,7.5c-0.6,0.8-1.4-1.5-2.1-2.2c-0.4-0.4-1-0.5-1.2-1
			c-0.2-0.3,0.4-0.9,0.1-1.2c-0.2-0.2-0.6,0.6-0.8,0.4c-0.9-0.8-1.9-1.8-2.2-3c-0.1-0.5,1.4-0.6,1.2-1.1c-0.5-1-2.8-1-2.7-2.1
			c0.1-1.4,2.1-1.8,3.1-2.8c0.7-0.8,1.6-1.5,1.7-2.5c0.2-1.7-3.1-2.2-0.6-4.2c0.5-0.4,1.3-0.1,1.7,0.3
			C125.1,194.7,124.7,197.8,124.7,197.8z"/>
		<path class="st1" d="M115.3,179.8c-0.6,1.4-1.4,2.8-1.7,4.3c-0.1,0.6,0.6-1.2,1.1-1.6c0.7-0.6,5-2.6,4,0c-0.5,1.4-3.6,0.7-3.8,2.1
			c-0.1,0.9,0.8,2.1,0.3,2.8c-0.4,0.7-1.8,0.7-2.4,0.2c-0.8-0.7-0.5-2.1-1-3c-0.6-1.3-2.7-1.6-3.2-3c-0.3-0.8-0.2-2.1,0.6-2.5
			c0.6-0.3,0.7,1.4,1.4,1.4c0.5,0,0.4-1.1,0.9-1.3c0.2-0.1,1,0.6,0.7,0.4c-0.7-0.5-1.8-0.6-2-1.4c-0.3-1-0.3-2.8,0.7-3.1
			c1.1-0.2,1.3,1.7,2,2.5C113.7,178.4,114.6,179.1,115.3,179.8z"/>
		<path class="st1" d="M178.6,103.8c1,0.7,2.5,1,3,2.1c0.5,1-1.7,3.8-2.5,3.4c-0.9-0.4-0.7-2.3-1.7-2.4c-0.8-0.1-0.2,1.8-0.9,2.1
			c-0.5,0.2-0.6-1-1.1-1.3c-0.9-0.6-2.6-0.3-2.9-1.3c-0.3-0.9,1-1.8,1.9-2.2C175.7,103.6,178.6,103.8,178.6,103.8z"/>
		<path class="st1" d="M171.3,106.6c-0.7-0.4-1.4-1-2.2-1.3c-0.8-0.2-1.8,0.3-2.6-0.1c-0.3-0.1,0-0.8,0.3-1c0.8-0.4,1.8-1,2.6-0.6
			C170.4,104.2,170.7,105.6,171.3,106.6L171.3,106.6z"/>
		<path class="st1" d="M237.9,164.3c-7.3,2.1-6.3-4-7.6-7.2c-1.4-3.7-0.8-0.2-3.2-2.4c-0.4-0.3-0.7-1.1-0.3-1.4
			c0.8-0.6,1.8-0.4,2.8-0.4c0.1,0,0.1,0.2,0.1,0.3c2.5,2.5,5,4.9,7.5,7.3c0.9,0.8,3,1.6,3.5,2.3c0.2,0.3-1,0.7-0.7,0.9
			c0.4,0.3,0.9-0.9,1.3-0.6c0.4,0.3-0.5,1.4,0,1.6c0.4,0.2,0.2-1.1,0.7-1.2c0.3-0.1-0.1,0.9,0.2,1c0.4,0.2,1.1-0.8,1.3-0.3
			c0.4,1.1,0.7,2.6,0,3.6c-0.4,0.6-0.7-1.8-1.5-1.6c-0.7,0.1,0.3,2.3-0.4,2c-0.9-0.4-0.6-2-1.3-2.7
			C239.7,164.9,237.9,164.3,237.9,164.3z"/>
		<path class="st1" d="M108,191.7c-0.4-0.9-1.1-2.8-1.1-2.8S107.6,190.8,108,191.7L108,191.7z"/>
		<path class="st1" d="M123.3,215.1c0.5,2.2,1.3,4.4,1.4,6.6c0,0.6-0.8-0.9-1.1-1.4c-0.5-1-1.2-2-1.3-3.1
			C122.3,216.4,123.3,215.1,123.3,215.1z"/>
		<path class="st1" d="M114.2,200.9c0.5,1,0.9,2,1.4,3c0.4,0.7,1.3,1.3,1.2,2.2c0,0.5-1.1,0.4-1.6,0.2c-1.6-0.6-3-1.9-4.7-1.9
			c-1,0-1.4,1.8-2.4,2c-0.5,0.1-0.9-0.8-0.7-1.3C108.5,202.9,112.4,201.7,114.2,200.9z"/>
		<path class="st1" d="M200.5,101.8c-3.4,2-3.4,3.6-5.3-0.3c-0.1-0.3,0-0.7,0.2-1c0.5-0.9,0.8-2.3,1.8-2.5c0.7-0.2,0.7,1.3,1.2,1.8
			C198.9,100.5,200.5,101.8,200.5,101.8z"/>
		<path class="st1" d="M196.5,98.1c-0.8,1.2-1,3.2-2.4,3.7c-0.9,0.3-1.4-1.5-1.5-2.4c0-0.5,0.9-0.3,1.3-0.5
			C194.8,98.7,195.7,98.4,196.5,98.1z"/>
		<path class="st1" d="M106.1,173.6c0.1,1.2,0.5,2.4,0.2,3.6c-0.2,0.8-0.9,1.7-1.7,2c-0.5,0.1-0.6-0.9-1.1-1.2
			c-2.2-1.5-4.8-2.5-6.9-4.1c-1-0.8-2.2-2.4-1.5-3.4c1-1.4,1.7-3.2,3.1-3.9c0.7-0.4,1.4,1,2.2,1.2c0.4,0.1,0.8-0.3,1.1-0.2
			c1.2,0.3,2.1,1.4,3.4,1.4c0.8,0,1.5-1.8,2.2-1.3c1,0.7,1.1,2.4,0.9,3.6C107.8,172.3,106.1,173.6,106.1,173.6z"/>
		<path class="st1" d="M111.4,195.9c0.3,1.2,1.5,2.6,0.8,3.6c-0.7,0.9-2.3-0.7-3.3-0.2c-0.5,0.2,0.7,0.9,0.5,1.4
			c-0.1,0.5-0.7,0.6-1.2,0.9c-1.1,0.6-2.2,1.6-3.4,1.6c-0.5,0,0.2-1,0.1-1.5c-0.1-0.6-0.8-1-0.8-1.6c0-0.7,0.7-1.1,0.9-1.8
			c0.4-1.1,0.2-2.4,0.8-3.4c0.3-0.4,1.3-0.6,1.5-0.1c0.2,0.7-1.1,1.4-0.8,2.1c0.2,0.5,1.2-0.2,1.6,0.1c0.2,0.1-0.7,0.7-0.4,0.6
			C109,197.3,110.2,196.5,111.4,195.9z"/>
		<path class="st1" d="M249.8,171.7c-1.1-0.9-2.2-1.9-3.4-2.7c-2.8-1.6-4,0.6-2.1-4.3c0.1-0.3,0.1,0.8,0.4,1
			c0.8,0.5,1.7,0.8,2.6,0.9c2.7,0.5,4.6-1.5,7.1-2c0.1,0-0.2,0.2-0.2,0.3c0,0.5-0.1,1,0,1.5c0.2,1.2,1.4,1.2-0.3,2.7
			c-0.3,0.3-0.9,0.2-1.1-0.1c-0.3-0.2,0.2-1.3-0.1-1C251.4,169.1,249.8,171.7,249.8,171.7z"/>
		<path class="st1" d="M171.9,267c-0.8-0.3-1.6-0.5-2.4-0.9c-0.4-0.2-0.9-0.9-1.1-0.5c-0.6,0.9,0.1,2.4-0.7,3.1
			c-0.5,0.5-1.3-0.7-1.9-0.6c-0.3,0,0.1,0.6,0,0.8c-0.6,1.5-0.9,3.2-2,4.3c-0.5,0.5-1.9-0.6-2.2,0.1c-0.3,0.6,1.4,0.3,1.8,0.8
			c0.3,0.4,0.5,1.4,0,1.6c-0.6,0.3-1.1-1-1.8-0.8c-0.1,0,0.5,1.5,0.4,1.8c-0.6,1.2-1.4,2.3-2,3.5c-0.3,0.7-0.6,1.5-0.8,2.3
			c0,0.1,0.6,0.1,0.4,0.1c-0.5,0.1-1.3-0.2-1.7,0.2c-0.3,0.3,0.9,0.1,1.1,0.4c0.2,0.3,0,0.8-0.3,0.9c-0.4,0.1-0.8-0.4-1.2-0.4
			c-0.3,0-1,0.3-0.8,0.6c0.9,1,5.6-0.2,0.7,3.8c-0.6,0.5-1.4-0.5-2.2-0.6c-0.7-0.1-1.8,0.6-2,0c-0.4-1.3,3.3-2.7,0.3-4
			c-0.6-0.3-1.2,1-1.7,0.7c-0.4-0.3,1.2-1.4,0.7-1.4c-3.5,0.1-1.1,3.5-5.1,0.7c-0.3-0.2,1.2,0,1.2-0.4c0-0.6-0.6-1.2-1.1-1.6
			c-0.4-0.3-1.5,0-1.4-0.5c0.1-0.5,1.8,0.1,1.5-0.4c-0.3-0.6-1.3,0-1.9-0.3c-0.4-0.2,1.2,0.5,1.4,0.1c0.3-0.7,0.1-1.7-0.5-2.2
			c-0.3-0.3-1,0.7-1.4,0.4c-0.6-0.4-0.8-1.3-0.9-2.1c-0.1-1.1,0.3-2.2,0.4-3.3c0-0.4,0.4-0.8,0.2-1c-0.5-0.3-1.5,0.5-1.7,0
			c-0.2-0.5,1.2-0.6,1.2-1.2c0-0.5-1.7-0.6-1.2-0.7c1.9-0.6,4.4,1.8,3.6-2.3c-0.1-0.3-0.7,0-1.1,0.1c-1,0.4-1.9,1.6-3,1.3
			c-0.6-0.1,0.2-1.3,0.3-1.9c0-0.8-0.6-1.7-0.2-2.4c1.1-2.3,2.4-0.1,3.7-0.4c0.5-0.1-0.9-0.7-1.5-0.6c-0.8,0-1.4,1.2-2.1,0.9
			c-0.8-0.5-0.7-1.8-1-2.7c0-0.1,0.1-0.2,0.1-0.2c1.4-0.7,2.7-1.4,4.2-1.9c0.7-0.2,1.5,0.4,2.1,0.1c0.7-0.4-1.8-0.4-2.6-0.1
			c-0.9,0.4-3.7,1.8-3.8,1.6c-0.9-0.9-0.6-2.9,0.2-3.8c1.3-1.6,5,0.6,5.7,1.4c0.3,0.3-1,0.1-1.3-0.2c-0.2-0.3,0.6-0.9,0.3-1.1
			c-1.4-0.6-3.4,0.4-4.4-0.7c-1.7-1.9,6-1.2,5.1-1.1c-1.5,0.2-3.2,0.7-4.6,0c-0.6-0.3,0.7-1.5,1.4-1.7c3.6-1-0.9,4.6,4.5,1.9
			c0.7-0.3-1.1-1.2-1.7-1.6c-0.9-0.6-2.2-0.6-2.8-1.5c-0.3-0.4,1-0.4,1.6-0.4c0.8,0,1.6,0.6,2.5,0.5c0.3,0,0.4-0.5,0.5-0.8
			c0.6-1.5,2-2.9,1.7-4.4c-0.2-1-2-0.5-2.9-1c-0.4-0.2-0.3-0.8-0.5-1.2c-0.6-0.8-2.1-1.3-1.9-2.2c0.1-0.7,1.5,0,2.3,0.2
			c1.4,0.4,1,3.2,2.7,2.8c0.9-0.2,0.2-1.8,0.2-2.7c0-0.3,0-0.6-0.2-0.8c-4-2.9,1.7,4.2,0.1-2.5c-0.2-0.7-1.7,0-2.1-0.6
			c-0.4-0.8,0.4-1.8,0.3-2.7c0-1-0.5,8.9-3.7,1.5c-0.4-0.9,2.1-0.5,2.5-1.4c0.3-0.6-1.5-0.9-1.2-1.5c0.2-0.5,1.1,0.5,1.7,0.5
			c0.3,0-0.8-0.1-0.8-0.4c0-0.7,0.9-1.1,0.9-1.8c0-0.4-0.9-0.3-1-0.7c-0.2-0.8,0.2-1.6,0.3-2.4c0.2-0.9,1.1-1.7,0.8-2.5
			c-0.2-0.5-1.4,0.7-1.5,0.2c-1.2-4.6,2.3-3.5,0.2-8.7c-0.1-0.2-0.4-0.1-0.6-0.2c-1.4-0.8-2.9-1.5-4.3-2.4c-0.9-0.6-1.9-1.1-2.5-1.9
			c-0.4-0.5-0.2-1.2-0.2-1.8c0-1.1-0.4-2.2,0.1-3.2c0.2-0.4,1-0.2,1.4,0c1,0.6,1.5,2.1,2.7,2.5c0.8,0.3,1.8-2,1.1-2.4
			c-0.7-0.4-1.7,0-2.5-0.3c-1.7-0.7-0.3-5.2,0-5.5c0.4-0.4,0.9,0.5,1.4,0.7c0.6,0.1,1.3,0,2,0.1c0.9,0.1,1.8,0.4,2.7,0.2
			c3.5-0.7-0.1-4.7,1.5-5.1c1.2-0.3,2.6,0.6,3.7,0.1c0.6-0.2-0.1-1.5,0.4-1.7c0.5-0.2,0.9,1.1,1.3,0.8c0.9-0.7,0.1-3.2,2-3
			c1,0.1,1.3,4.1,1.1,3.3c-0.2-1.1-0.7-2.2-0.7-3.3c0-0.1,2.4-1.1,3.5,0.8c0.4,0.8-1.3,1.7-0.8,2.5c0.4,0.7,1.6,0.2,2.4,0.3
			c1.1,0.1,2.4,0.7,3.3,0.1c0.7-0.4,0.4-1.5,0.4-2.3c0-0.7-0.9-1.9-0.3-2.2c1-0.5,2.1,0.9,3.1,0.9c0.5,0-0.7-0.7-1.1-0.9
			c-0.7-0.4-1.6-0.7-2.3-1.1c-0.5-0.3,1.1,1,1.7,0.7c0.4-0.2-1.5-1.1-1-1.1c1.1-0.1,2.1,0.8,3.3,1c0.1,0,0.1-0.3,0.2-0.3
			c2.2-0.5,4.5-1,6.7-1.3c1.3-0.2-2.7,0.3-3.9,1c-0.6,0.3-1.7,1.8-1,1.8c1.3-0.2,6.6-4.9,7.9-0.3c0.8,2.9-5.6,2.6-5.6,2.6
			c-0.7,0.4-1.2,2-0.5,2.3c0.8,0.4,1.4-1.2,2.2-1.6c1.2-0.5,2.6-1.4,3.9-1c1.4,0.5,0,6.6,0,6.9c0,0.3,0.3-0.6,0.4-0.9
			c0-0.2-0.2-0.5-0.1-0.7c0.4-1.3,0.8-2.7,1.5-3.9c0.2-0.3-0.2,1,0.1,1.2c0.4,0.2,1,0,1.2-0.4c0.3-0.6-0.4-1.4-0.1-1.9
			c0.5-1.2,3.1-0.9,3.6-0.1c0.2,0.3-0.8,4.2-1,4.5c-0.3,0.3-1-0.1-1.4,0.1c-0.8,0.4-2.7,1.3-2,1.7c1.1,0.6,2.4-1,3.6-0.8
			c0.5,0.1,0,1-0.3,1.3c-0.6,0.6-2,0.5-2.3,1.3c-0.1,0.1,2.2,2.7,2.2,3.5c-0.1,0.8-0.9,1.3-1.2,2.1c-0.1,0.2-0.2,0.5,0,0.8
			c0.1,0.1,0.5-0.1,0.5,0c0.2,1.4-0.4,2.8,0,4.2c0.2,0.6,0.1-1.4,0.7-1.6c0.6-0.2,1.6,0.1,1.7,0.7c0.1,0.6-1.5,0.7-1.4,1.3
			c0.3,1.4,4.4,0.6,3.4,1.7c-1.1,1.3-3.9-0.2-4,1.6c-0.1,1.3,3.3,2,3.5,2.2c0.8,0.9,1.7,3.6,0.9,4.1c-0.8,0.5-2,0-2.8,0.6
			c-0.3,0.2,0.6,0.7,1,0.7c0.4,0,0.7-0.9,1.1-0.8c1,0.3,1.9,1,2.5,1.9c0.2,0.4,0,1.2-0.5,1.2c-1.1,0.1-2.2-1.2-3.1-0.7
			c-0.7,0.3-0.1,1.5,0.1,2.2c0.2,0.6,0.7,1.2,1.2,1.5c0.5,0.3,1.9-0.2,1.8,0.4c-0.1,0.8-1.3,1.4-2.1,1.4c-0.9,0-2.3-0.5-2.4-1.4
			c-0.1-0.8,2.4,0.6,2.3-0.2c-0.2-0.8-1.6-0.6-2.4-0.3c-0.4,0.2,0.2,1.3-0.3,1.3c-0.8-0.1-1-1.7-1.8-1.5c-6.5,1.7-0.3,2.6-0.3,3.1
			c-0.1,0.6-1.2,0.2-1.6,0.6c-0.2,0.2,0.1,0.6,0.4,0.8c0.9,0.7,2.1,1,2.9,1.8c0.3,0.3-0.2,1.1,0.2,1.2c0.8,0.1,1.4-1,2.2-1
			c0.7,0,1.3,0.7,2,1.1c0.3,0.2,0.9,0.1,1,0.5c0.1,0.4-0.5,0.8-0.6,1.2c0,0.3,0.3,0.6,0.4,0.9c0.3,1.1,0.6,2.2,0.9,3.3
			c0.1,0.6,0-1.6-0.5-1.6c-0.8-0.1-1.2,1.4-2,1.2c-1.2-0.3-5.8-4-7.3-5.1c-0.7-0.5,1.3,1.1,2,1.5c0.9,0.6,2.8,0.4,2.9,1.5
			c0.1,1.1-1.9,1.1-2.6,1.8c-0.8,0.7-1.7,1.5-2.1,2.4c-0.2,0.4,0.8-0.8,1.2-0.5c0.8,0.4,0.8,1.8,1.6,2.1c0.5,0.2,0.1-1.2,0.6-1.3
			c1.4-0.4,2.9-0.2,4.4-0.3c0.8,0,2.1-0.7,2.4,0.1c0.3,0.8-1,1.5-1.6,2.2c-2.7,3.7-3,4.7-8.7,5.9c-1.4,0.3-3-1.4-4.2-0.5
			c-0.8,0.6,1,2,0.8,3c-0.1,0.6-1.3,0.3-1.7,0.7c-0.3,0.3,0.1,0.8-0.1,1.1c-0.1,0.2-0.4,0-0.5,0.1c-0.5,1-0.3,2.3-1,3.2
			C173.8,266.1,172.7,266.4,171.9,267L171.9,267z"/>
		<path class="st1" d="M129.8,102.8c-0.5,1.4-0.4,3.1-1.4,4.2c-0.4,0.5-1.8,0.2-1.9-0.5c-0.2-0.8,0.9-1.4,1.4-2
			C128.4,104,129.8,102.8,129.8,102.8z"/>
		<path class="st1" d="M243.2,206.6c0-0.3,0-0.8,0-0.8S243.2,206.4,243.2,206.6z"/>
		<path class="st1" d="M101.5,180.8c0.6,0.5,1.6,0.8,1.9,1.5c0.3,0.8-0.6,1.6-0.6,2.5c-0.1,1.1,0.6,2.4,0.1,3.5
			c-0.5,0.9-3.8,1.5-2.7,1.5c1.9,0,3.6-0.9,5.4-1.5c0.2-0.1,0.5-0.7,0.5-0.5c0.1,1,0.2,2.1-0.3,3c-0.4,0.8-1.4,1.1-2.1,1.8
			c-1.9,1.8-4.1,3.4-5.5,5.6c-0.6,1,0.4,2.3,0,3.4c-0.6,1.5-4.2,0.8-5.5-0.4c-3.7-3.5,1.1-3.1,0.5-6.2c-0.1-0.7-1.4,0-2-0.4
			c-1.9-1.4-4-6.8-4-8.1c0-0.9,2.1-0.2,2.4-1c0.6-1.4-0.4-3.1,0.1-4.6c0.3-0.8,1.1-2,2-1.7c1,0.4,1.1,1.9,1.4,2.9
			c0.5,1.7,0.7,3.4,1.1,5.1c0.1,0.2-0.1-0.5,0-0.7c0.2-1,0.8-2,0.7-3c-0.1-1.7-3-5.2,0.2-6.3c0.7-0.2,0.6,1,1.7,3.3
			c0.2,0.3,0.8,1.1,0.7,0.8c-0.1-1-1-1.9-1-2.9c0-0.4,0.9-0.3,1-0.6c0.2-0.6-0.7-1.6-0.1-1.8c0.7-0.3,1.4,0.7,2.1,0.9
			c0.9,0.3,1.8,0.2,2.6,0.5C103.4,177.6,101.5,180.8,101.5,180.8z"/>
		<path class="st1" d="M242.2,211.8c0.1-0.4,0.2-0.9,0.4-1.3C242.8,210.1,242.4,211.4,242.2,211.8z"/>
		<path class="st1" d="M241.9,217.1c0-0.4-0.2-0.8-0.1-1.2C242,215.6,241.9,217.1,241.9,217.1z"/>
		<path class="st1" d="M145.5,245.5c-0.1,1.5,0.2,3.1-0.2,4.5c-0.1,0.4-1-0.7-0.8-1c0.2-0.4,1.3,0.3,1.5-0.2
			C146.3,247.7,145.5,245.5,145.5,245.5z"/>
		<path class="st1" d="M149.6,248.6c-0.2,0.5-0.3,1.1-0.7,1.4C148.5,250.2,149.6,248.6,149.6,248.6z"/>
		<path class="st1" d="M99.6,209.8c-0.1-0.1-0.2-0.4-0.2-0.4S99.5,209.7,99.6,209.8L99.6,209.8z"/>
		<path class="st1" d="M99,206.1c-0.5,1.3-1,2.5-1.5,3.8c-0.2,0.6-0.1,1.5-0.7,1.7c-0.5,0.2-1.2-0.4-1.4-0.9
			c-0.5-1.5-0.6-3.2-0.6-4.8C94.9,204.5,99,206.1,99,206.1z"/>
		<path class="st1" d="M241.7,225.3c-0.9,1.4-0.6-1.2,0-1.1c0.3,0,0.4,0.6,0.4,1C242.1,225.3,241.7,225.3,241.7,225.3z"/>
		<path class="st1" d="M116.1,235.5c-0.2,0.4-0.1,1.3-0.5,1.2c-0.4-0.1,0.2-0.8,0.4-1.2C116,235.4,116,235.5,116.1,235.5z"/>
		<path class="st1" d="M102.9,224.5c-0.5,0.3-0.9,0.8-1.4,0.8c-0.3,0,0-0.7,0.2-0.8C102.1,224.3,102.9,224.5,102.9,224.5z"/>
		<path class="st1" d="M125.1,244.3c0,0.4,0.3,3.3,0.5,3.2c0.2,0,1.9-3,2.4-0.1c0.1,0.5-1.2,0.3-1.2,0.8c0,0.9,1.2,1.4,1.2,2.3
			c0,0.5-1.6-1.1-1.2-0.9c0.8,0.4,2.2,0.5,2.3,1.4c0.1,0.7-2.1,0.6-1.8,1.2c0.6,1.3,2.6,1.5,3.5,2.6c0.2,0.3-0.5,0.9-0.9,0.8
			c-0.8-0.1-1.3-0.9-2-1.1c-1.6-0.3,0.2,1.7,0.1,2.3c0,0.3-0.6,0.3-0.9,0.5c-0.8,0.5-1.5,1.5-2.4,1.6c-0.4,0.1,0.1-0.8,0.1-1.2
			c0-0.4-0.4-0.8-0.3-1.2c0.3-1.1,1.8-2.2,1.3-3.2c-0.4-0.9-2.1,0.6-2.9,0c-0.5-0.3,1.2-0.5,1.3-1.1c0.1-0.4-0.9,0.9-1.2,0.5
			c-0.4-0.5,0.1-5.8-3.3-3c-5.6,4.5-0.1,2.3,0.3,3.6c0.1,0.2-0.9,2.7-0.3,3.1c0.2,0.2,0.3-1.1,0.5-0.8c0.3,0.4-0.2,1.1,0.1,1.6
			c0.2,0.3,0.8-0.2,1.1,0.1c2.6,3.2-0.6,0.8-0.8,1.7c-0.4,1.9,0.9,5.1-0.6,5.5c-0.3,0.1-0.6-0.7-0.9-0.5c-0.4,0.1-0.2,0.8-0.5,1.1
			c-0.7,0.6-1.6,1-2.5,1.3c-0.2,0.1-0.4-0.2-0.6-0.3c-1.2-1.9-2.1-4.1-3.3-6c-0.1-0.2-0.5-0.1-0.7-0.3c-0.2-0.2-3.2-3.8-2.3-4.9
			c0.4-0.4,1.5,1.1,1.6,0.6c0.2-0.7-1.2-0.8-1.4-1.5c-0.1-0.3,0.8-0.1,0.7-0.4c-0.1-0.9-0.5-1.9-1.1-2.6c-2.7-2.9-4.9-2.5-5.9-6
			c-0.7-2.4,3-1.1,4.6,0.4c0.5,0.4-0.8,1.3-0.5,1.9c0.2,0.4,0.6-0.9,1.1-0.9c1,0,2.2,1.5,3,0.9c1.8-1.3-2.5-5.7,3.1-3.5
			c5.7,2.3,0,1.8,0.9,4.3c0.2,0.5,1-0.6,1.6-0.6c0.8,0,1.9,1.3,2.4,0.6c0.5-0.6-0.8-1.3-1.4-1.8c-1-0.9-2.8-1.2-3.2-2.5
			c-0.2-0.7,1.4-0.4,2.1-0.8c0.3-0.2,0-0.6,0.1-0.9c0.3-1,0.9-1.9,0.9-3c0-0.5-0.8-0.7-0.8-1.2c0.1-2.1,2.9,0.3-0.3-2.6
			c-0.6-0.6-1.7-0.6-2.2-1.3c-0.2-0.3,0.5-0.6,0.8-0.9c0.4-0.5,0.7-1.2,1.3-1.6c0.2-0.2,0.9,0.3,0.8,0.1c-0.2-0.4-1.1-0.4-1.2-0.9
			c-0.1-0.4,1-0.3,0.9-0.7c-0.1-0.4-1.1,0.3-1.1-0.1c-0.1-1.4,1-2.7,0.9-4.2c0-0.4-0.9,0.2-1.3,0.3c-1,0.2-2.1,0.5-3.1,0.6
			c-0.2,0,0.1-0.3,0-0.5c-0.1-1.1-0.2-2.2-0.5-3.3c-0.2-0.8,0.4,1.6,0.2,2.4c-0.1,0.3-0.7,0.2-0.8,0c-3.2-5.1-5.5-6.8-2.8-11.6
			c1.6-2.9,4-3.6,7.1-4.8c0.1-0.1,0.1,0.3,0.3,0.4c1.2,0.4,2.6,0.1,3.5,0.9c0.4,0.4-0.2,1.2-0.7,1.5c-0.8,0.5-1.9,0.2-2.7,0.6
			c-1,0.6-1.7,1.5-2.3,2.5c-0.4,0.7-0.5,1.5-0.7,2.3c-0.1,0.4,0.3,1.4-0.1,1.4c-0.9,0-1.6-1.6-2.5-1.4c-0.8,0.2,1.6,0.8,2.1,1.4
			c0.2,0.2-0.5,1-0.4,0.8c0.6-1.4,2-6.2,4.7-6.1c0.8,0,0.2,2.4,0.9,2.1c0.8-0.3-0.8-2.1,0-2.4c0.7-0.3,0.2,2.3,1,2.1
			c0.7-0.2-0.6-1.6-0.3-2.3c0.2-0.4,0.8,0.3,1.2,0.4c0.8,0.4,1.7,0.7,2.5,1.2c1,0.6-0.7,3.9-1.3,4.4c-0.9,0.8-2.4,0.8-2.9,1.8
			c-0.3,0.6,1.2,0.7,1.8,0.5c0.5-0.1,0.6-0.8,0.8-1.2c0.2-0.3-1,0.7-0.7,0.9c1.2,0.6,2.9-0.1,3.8,0.8c0.9,0.8,1.1,2.2,0.8,3.3
			c-0.1,0.5-1-0.3-1.6-0.3c-0.3,0-0.7,0.1-0.8,0.4c-0.3,1-1,4.7,1,5.4c0.9,0.3,1.9-1,2.9-0.7c0.5,0.2,0.6,1.3,0.2,1.7
			c-0.8,0.7-2.3,0-3,0.8c-0.6,0.8-0.9,2.4-0.1,3c0.7,0.5,1.2-1.3,1.9-1.6c0.6-0.2,1.6-0.5,1.8,0.1c0.2,0.6-1.4,0.3-1.5,0.8
			c-0.2,1,1.1,1.9,0.7,2.8c-0.3,0.7-2.4,0-2.2,0.7c0.4,1.3,2.7,1.3,3.3,2.5c0,0.1-4-2.6-3.8,0.2c0,0.7,1,1.1,1.3,1.8
			C125,242.9,125,243.6,125.1,244.3z"/>
		<path class="st1" d="M98.7,231.9c-0.1-0.1-0.3-0.3-0.3-0.3S98.6,231.8,98.7,231.9L98.7,231.9z"/>
		<path class="st1" d="M248.7,237c-0.2,0-0.5-0.1-0.5-0.1S248.5,236.9,248.7,237L248.7,237z"/>
		<path class="st1" d="M199,272.8c-0.9-0.1-2.4,0.5-2.7-0.3c-0.2-0.9,2.2-0.8,2.1-1.7c-0.1-2.2-4.9-0.7-5.2-0.8
			c-0.5-0.2,0.9-0.7,1.4-0.9c0.8-0.3,1.8,0,2.4-0.6c0.4-0.4,0.3-1.5-0.2-1.6c-1.7-0.2-3.3,1-5,0.8c-0.5,0,0.3-0.9,0.5-1.3
			c0.4-0.9,0.5-2,1.1-2.8c1.3-1.7,5,2.7,5.4,2.6c0.7-0.3-1.1-1.8-0.5-2.3c0.5-0.5,1.3,1.1,2,0.9c0.4-0.1-0.6-0.9-0.4-1.3
			c0.3-0.4,1-0.6,1.5-0.4c0.6,0.2,0.9,1.7,1.3,1.3c1.2-1.1,0.8-3.3,2-4.3c0.5-0.4,1.1,1.1,1.8,1c0.6-0.1,0.5-1.4,1-1.4
			c0.5,0-0.8,0.9-0.6,1.4c0.1,0.4,0.8,0,1.1,0.1c0.8,0.3,1.9,0.6,2.4,1.3c0.3,0.6-0.6,1.3-0.4,2c0.1,0.3,1.1-0.3,1.1,0.1
			c-0.1,0.5-1.1,0.5-1.2,0.9c-0.1,0.5,0.8,1,0.5,1.5c-0.3,0.5-1.1,0.2-1.6,0.6c-0.1,0.1,0.4,0.2,0.3,0.4c-0.4,0.8-0.7,1.6-1.4,2
			c-1.9,1.4-4,2.6-6.2,3.3C200.7,273.7,199,272.8,199,272.8z"/>
		<path class="st1" d="M163.6,272.8c0-0.4,0-0.8-0.1-1.2c0-0.1-0.1,0.2,0,0.3C163.5,272.2,163.6,272.5,163.6,272.8z"/>
		<path class="st1" d="M98.1,237.2c-0.3,1.3-0.8,2.5-1,3.8c-0.1,0.9,0.9,2.7,0,2.8c-0.9,0.1-1.6-3.4-1.4-4.3
			c0.1-0.2,0.9-0.4,0.6-0.4c-1.2-0.4-5.1-0.4-5.2-0.5c-0.4-0.7,1.2-1.5,1-2.3c-0.2-0.9-2.3-0.8-2.1-1.7c0.2-0.8,1.6,0.5,2.4,0.2
			c0.6-0.2,0.6-1.1,1-1.5c0.2-0.2,0.5-0.1,0.7-0.2c0.9-0.6,1.6-2.3,2.6-1.9c0.9,0.3-0.4,1.9-0.1,2.7c0.1,0.3,0.8-0.5,1-0.2
			C98.4,234.6,98.1,237.2,98.1,237.2z"/>
		<path class="st1" d="M101.2,248.8c-0.1-0.5-0.5-1.1-0.4-1.6C100.9,246.7,101.2,248.8,101.2,248.8z"/>
		<path class="st1" d="M276.4,217.8c0.3,0.4,0.4,1,0.8,1.2c0.2,0.1,0.3-0.4,0.2-0.6C277.1,218.1,276.7,218,276.4,217.8z"/>
		<path class="st1" d="M68.8,130.5c0-0.4-0.2-1.2,0.1-1.1c0.3,0.2,0,0.8,0,1.1C68.9,130.6,68.8,130.6,68.8,130.5z"/>
		<path class="st1" d="M116.3,272.1c-0.1,0.1-0.4,0.2-0.4,0.2S116.1,272.1,116.3,272.1L116.3,272.1z"/>
		<path class="st1" d="M234.7,283.4c0,0.2,0.1,0.5,0,0.7c0,0.1-0.3,0-0.3-0.1C234.4,283.7,234.7,283.4,234.7,283.4z"/>
		<path class="st1" d="M69,114.3c-0.5-0.5-1.7-0.7-1.6-1.4c0-0.9,1.1-2.8,1.8-2.2C70.1,111.5,69,114.3,69,114.3z"/>
		<path class="st1" d="M54.2,150.1c-1.1,0.2-2.3,0.8-3.4,0.7c-0.5,0,0.7-0.7,1.1-0.8C52.6,149.9,54.2,150.1,54.2,150.1z"/>
		<path class="st1" d="M277.1,249.3c0.7,1.2,1.6,2.2,2,3.5c0.1,0.4-0.8-0.3-1-0.6C277.5,251.3,277.1,249.3,277.1,249.3z"/>
		<path class="st1" d="M238.5,285.3c0.1,0.4,0.6,0.9,0.3,1.3c-0.2,0.3-0.5-0.5-0.6-0.9C238.2,285.6,238.5,285.3,238.5,285.3z"/>
		<path class="st1" d="M239.4,286.9c0,0.1-0.1,0.4-0.1,0.4S239.3,287.1,239.4,286.9L239.4,286.9z"/>
		<path class="st1" d="M241.8,287.1c0,0.2,0.1,0.6,0.1,0.6S241.9,287.3,241.8,287.1L241.8,287.1z"/>
		<path class="st1" d="M273.5,260.2c1.1,1.7,3.8,3.7,0,4.2c-0.7,0.1-1.5-0.1-1.9-0.6c-0.2-0.3,0.6-0.6,0.7-0.9
			C272.8,262,273.5,260.2,273.5,260.2z"/>
		<path class="st1" d="M50.8,153.2c-0.9,1-1.6,2.3-2.7,3.1c-0.3,0.2-0.2-0.9,0.1-1.2C48.9,154.3,50,153.8,50.8,153.2L50.8,153.2z"/>
		<path class="st1" d="M72.2,97.6c-0.1-0.2-0.4-0.6-0.4-0.6S72.1,97.4,72.2,97.6L72.2,97.6z"/>
		<path class="st1" d="M237.3,278.1c1.3,0.3,2.7,0.2,3.8,1c0.4,0.3-0.8,1.7-0.3,1.6c0.7-0.1,0.7-1.4,1.4-1.7
			c6.9-2.9,2.3,4.7,2.4,5.4c0,0.5,1-0.5,1.5-0.6c1.1-0.3,2.3-1,3.4-0.7c1.1,0.3,1.6,1.7,2.7,2.1c0.5,0.2,1.1-0.6,1.6-0.5
			c1.1,0.2,1.8,1.3,2.9,1.4c1.8,0.2,3.7-0.4,5.3,0.4c1.6,0.8-0.9,4.3-1,4.7c0,0.7,1,1.3,0.9,2c0,0.4-0.7,0.2-1.1,0.4
			c-1,0.5-2,1-2.9,1.6c-2.3,1.8-0.3,5.8-6.4,3.1c-0.9-0.4,2-0.9,2.6-1.7c0.5-0.6,1.2-2.2,0.5-2.2c-0.8-0.1-0.6,1.7-1.3,2.1
			c-0.8,0.5-1.8,0.4-2.7,0.6c-0.9,0.2-1.9,1.4-2.6,0.8c-1.1-1-0.1-4.8,0.8-5.8c0.6-0.7,2.2-0.6,2.4-1.5c0-0.2-3.1-4.1-3.5-4.2
			c-0.8,0-0.8,1.7-1.6,1.8c-0.6,0.1-4.2-2.6-5.2-1.8c-0.6,0.6,0.6,3.3,0.5,2.5c-0.3-1.6-0.1-3.4-0.9-4.9c-0.2-0.5-0.5,1-0.9,1.4
			c-0.2,0.2-0.8,0.2-0.9-0.1c-0.2-0.7,0.4-1.4,0.4-2c-0.1-2-1.5,0.2-2.1-1.8C236.7,280.4,237.3,278.1,237.3,278.1z"/>
		<path class="st1" d="M242.5,292.9c2.7,5.4,4.5,4.5,1.5,6c-2.7,1.3-5.4,2.7-8.1,4c-0.6,0.3,1.1-0.5,1.6-1c0.7-0.7,2.4-1.7,1.7-2.2
			c-0.8-0.6-1.9,2.3-2.6,1.6c-0.7-0.8,2.1-2.1,1.4-2.9c-3.6-4.4-2.9,5.6-4-1.2c-0.3-1.7,2.9-1.6,3.4-2c0.4-0.3,0.1-1.1,0.3-1.7
			c0.3-0.8,0.7-1.5,1.1-2.2c0.4-0.5,0.7-1.7,1.3-1.4C241.3,290.4,241.7,291.9,242.5,292.9L242.5,292.9z"/>
		<path class="st1" d="M41.9,163.9c-0.3-0.2-1-0.5-1-0.5S41.6,163.7,41.9,163.9L41.9,163.9z"/>
		<path class="st1" d="M267.9,279.4c0.6,0.4,1.4,0.8,1.9,1.3c0.1,0.1,0.1,0.5-0.1,0.5c-0.8-0.2-1.6-0.4-2.2-1
			C267.3,280,267.7,279.6,267.9,279.4z"/>
		<path class="st1" d="M184.6,38.1c-0.7,0.3-1.5,0.3-2.1,0.8c-0.5,0.3-0.7,0.9-1,1.4c-0.1,0.2,0.5-0.3,0.5-0.6
			c-0.1-0.8-0.8-1.5-0.8-2.3c0-1,0.6-1.9,0.7-2.8c0-0.2-0.4,0.4-0.4,0.2c-0.5-1.6-1.4-3.2-1.1-4.8c0.2-0.7,1.8,0.9,2.1,0.3
			c0.7-1.7-0.2-3.6,0-5.4c0-0.3,0.3-0.6,0.6-0.6c0.8,0.2,1.2,1.2,2,1.2c0.7,0,0.9-1.3,1.6-1.3c0.4,0,0.6,0.8,0.4,1.2
			c-0.2,0.9-1.2,1.5-1.4,2.4c-0.1,0.5,0.6,0.9,0.6,1.5c-0.7,4.7-2.5-3.1-1.9,4.6c0.1,0.7,1.2,1,1.3,1.6
			C185.6,36.4,184.6,38.1,184.6,38.1z"/>
		<path class="st1" d="M35.8,167.8c-0.4,1.7-0.4,3.5-1.1,5.1c-0.3,0.8-1.4,1.1-1.8,1.9c-1,1.8,0.5,2.9-2.4,3.6
			c-0.3,0.1,0.1-0.6,0.1-1c0.2-1.1,0.2-2.3,0.8-3.2c0.2-0.3,0.8,0.9,1,0.6c0.2-0.5-0.7-1.1-0.6-1.6c0.1-0.4,0.8-0.5,0.9-0.9
			c0.2-0.6,0-1.4,0.2-2C33.4,169.1,35.8,167.8,35.8,167.8z"/>
		<path class="st1" d="M105.9,303.3c1.9,1.7,4.1,3.8,3.1,4C107.9,307.5,106.5,304.2,105.9,303.3z"/>
		<path class="st1" d="M125.4,307.3c-0.4,0.1-1.1-0.2-1.2,0.2c-0.2,0.4,0.7,0.7,0.6,1.1c-0.1,0.4-1,0.3-1,0.7
			c-0.1,1.7-0.4,3.7,0.5,5.1c1.5,2.4,3.8-4.7,4.8,1.1c0.1,0.7-1.8,0-2,0.7c-0.2,0.5,1.3,0.3,1.4,0.8c0.2,1-1.4,2.1-0.8,2.9
			c0.5,0.7,1.6-0.9,2.4-0.7c0.5,0.1-1.1,0.4-1.3,0.9c-0.3,0.8,0.5,1.8,0,2.5c-0.3,0.4-1.1-0.1-1.4-0.5c-0.6-1.1-0.3-2.6-1-3.7
			c-0.2-0.3-0.3,0.8-0.6,1c-0.9,0.4-2.1,1.1-2.8,0.5c-0.8-0.7,0.4-2.3-0.3-3.1c-0.7-0.6-1.9,0.3-2.8,0c-4.4-1.3-1.2-1.2-3.5-2.1
			c-0.8-0.3-1.8-0.4-2.6-0.8c-0.2-0.1-0.2-0.6,0-0.7c1-0.3,2.6,0.5,3.1-0.4c0.4-0.7-1.7-0.5-2.2-1.1c-0.3-0.3,0.9,0.1,1.2-0.1
			c1.8-0.9,3.5-1.9,5.1-3c0.6-0.4,0.8-1.3,1.5-1.5C123.5,306.8,125.4,307.3,125.4,307.3z"/>
		<path class="st1" d="M110.9,314.4c0.4,1.9,1.7,3.3-0.6,2.8c-0.9-0.2-1.9-0.4-2.7-0.9c-1.6-1.1,1.2-2.3,2.7-2.6
			C110.6,313.6,110.7,314.2,110.9,314.4L110.9,314.4z"/>
		<path class="st1" d="M187.1,23.5c-1.5-0.7-2.9-1.7-4.4-2.2c-0.6-0.2-5.1-0.2-5.4-1c-0.3-0.8,1.6-0.5,2.4-0.6
			c0.9-0.1,1.9,0.1,2.8-0.2c0.9-0.3,1.5-1,2.4-1.3c0.1-0.1,0.2,0.1,0.3,0.2c1.1,0.3,2.3,0.7,3.4,0.8c0.8,0.1,1.5-0.4,2.3-0.3
			c0.5,0,0.9,0.6,1.3,0.4c0.7-0.2,2.3-1.6,1.6-1.4c-1.6,0.5-3.1,1.4-4.5,2.3C188.3,20.9,187.1,23.5,187.1,23.5z"/>
		<path class="st1" d="M79.2,308.8c-1.4-0.8-2.8-1.4-4.1-2.3C73.9,305.7,79.2,308.8,79.2,308.8z"/>
		<path class="st1" d="M297,296.4c1.2,0.8,3,1.1,3.7,2.3c0.4,0.7-0.3,2-1.1,2.3c-0.7,0.3-1.3-0.7-2.1-0.9c-1.5-0.5-2.7-0.4-2.4-1.1
			C295.6,298.1,297,296.4,297,296.4z"/>
		<path class="st1" d="M322.7,273.5c0.1,0.2,0.4,0.6,0.2,0.7C322.6,274.3,322.7,273.8,322.7,273.5
			C322.6,273.5,322.7,273.6,322.7,273.5z"/>
		<path class="st1" d="M190.8,17.7c0-1.1-0.8-2.7,0.1-3.3c2.6-1.9,6-2.4,9.1-3.3c0.1,0-0.1,0.4,0.1,0.4c0.6,0,1.1-0.3,1.7-0.3
			c1.6,0,3.4,0.8,5,0.6c0.9-0.1,1.8-0.8,2.7-0.7c0.4,0.1,0.3,1,0.7,1.1c1.6,0.7,5,0.5,6.8,0.7c1.5,0.1,6.1,0.9,6.6,1
			c0.2,0-0.3,0.3-0.5,0.3c-0.4,0-0.9-0.2-1.3-0.3c-1.8-0.3-3.7,0.2-5.5,0c-1.2-0.1-2.3-0.4-3.5-0.6c-2-0.3-3.2-1-5-0.3
			c-1,0.3-1.9,0.8-2.9,1c-2.8,0.5-4.8-1-7.9,0.1C194.7,14.9,190.8,17.7,190.8,17.7z"/>
		<path class="st1" d="M314.4,286.8c0,1.5,0.7,3.3-0.1,4.6c-0.7,1.2-2.5,1.4-3.7,2.2c-0.7,0.4-2.3,2-2,1.3c1.1-2.3,3-4.2,4.5-6.3
			C313.6,287.9,314.4,286.8,314.4,286.8z"/>
		<path class="st1" d="M346.8,238.9c0,1.8,0.4,3.7,0,5.4c-0.2,0.8-0.8,1.8-1.6,1.8c-0.6,0,0.5-1.2,0.6-1.8c0-0.2-0.4-0.2-0.3-0.4
			c0.2-0.9,0.8-1.8,1-2.7C346.6,240.5,346.8,238.9,346.8,238.9z"/>
		<path class="st1" d="M212.6,12c0.5-0.1,1.1-0.4,1.6-0.4c0.4,0,0.8,0.4,1.2,0.4c0.8,0.1,1.7-0.3,2.5-0.2c0.9,0.1,3,0.1,2.6,1
			c-0.4,1-3.9-0.2-4.7-0.4C214.7,12.3,212.6,12,212.6,12z"/>
		<path class="st1" d="M222,12.5c3-0.2,4-1.1,5.6,1.9c0.1,0.3-0.6,0-0.9-0.1c-1.2-0.1-2.4,0-3.6-0.5C222.6,13.6,222.4,12.9,222,12.5
			L222,12.5z"/>
		<path class="st1" d="M43.6,301.5c6.1,6.6,11.9,13.4,18,20.1c0.7,0.8,1.6,1.3,2.2,2.2c0.6,0.8-1.2-0.6-1.6-1
			c-3.7-4.1-7.4-8.2-11-12.3c-0.5-0.6-1-1.3-1.5-1.9C47.7,306.2,45.6,303.9,43.6,301.5z"/>
		<path class="st1" d="M327.2,67.7c8.2,11.7,16.4,23.4,24.6,35.1"/>
		<path class="st1" d="M245.5,365.9"/>
		<path class="st1" d="M371,223.3c-0.5,2.6-1.6,8.9-2.7,11c-1.8,3.6-2,2.5-4.9,6.3c-0.4,0.5-0.5,1.3-1,1.8c-1.7,1.7-3.6,3.1-5.3,4.7
			c-0.1,0.1,0,0.2-0.1,0.2c-0.8,0.4-2.3,1.8-2.6,0.9c-0.6-1.9,0.1-4.1,1-5.8l-0.5,0.2l-2.6,0.7c0,1.2-1.1,4-1.3,4.7
			c-0.1,0.2,0.3-0.9,0.1-0.7c-0.6,0.9-2.5,4.4-2.8,5.3c-0.3,0.8-0.3,1.7-0.5,2.5c-1.1,4-5.3,10.8-7.8,14.3c-0.1,0.2-0.5,0-0.6,0.2
			c-2.1,2.2-4,4.5-5.8,6.8c-0.6,0.7-3,5.4-2.7,6.3c0.6,1.5,4.3,0.4,0.7,3.7c-7,6.5-14.6,12.5-22.1,18.5c-0.9,0.7,0.1-3.7,0-3.8
			c-0.8-0.4-1.7,0.4-2.6,0.4c-1,0-2-0.6-2.9-0.4c-0.6,0.2-0.8,1.1-1.3,1.6c-3.2,3.3-6.4,6.5-9.7,9.7c-6.7,6.5-14.4,13.1-21.4,19
			c-2.3,2,0.6-2.3-3.6,0.5c-0.8,0.6-0.8,1.8-1.4,2.6c-2,2.8-4.9,5-6.6,8c-2.6,4.6,2.9,1.8-0.5,5.4c-2.6,2.7-4.2,3.2-7.2,4.9
			c-3.1,1.8-5.1,5-7.5,7.5c-0.2,0.2,0.8-0.6,0.6-0.4c-0.9,0.9-2,1.6-2.9,2.6c-0.2,0.2-0.3,0.8,0,0.9c1,0.1,2-1,2.9-0.6
			c0.6,0.3,0.6,1.5,0.2,2.1c-0.7,0.8-3.6,1.1-3,2.1c-0.1,0,4.4-1.6,4.5-1.6l2.3-0.9l4.4-1.3l4-1.6l4.2-1.7l3.6-1.8l3.4-1.7l4.8-1.9
			l4-2.3l3.9-2l4-2.6l4.4-2.9l4.5-3l5.6-3.8l4.6-3.6l4.3-3.4l2.7-2.2l3.6-3.2l3.6-3.2l3.1-3.6l3.5-3.7l2.7-3l3.8-4.4l3.2-4.5
			l3.5-4.4l3.6-5.1l2.7-4.1l3.4-5.7l2.3-3.9l2-3.6l1.7-3.6l2.2-4.3l2.3-4.9l1.9-4.9l2.1-5.3l2.1-6.1l1.1-3.7l1.2-3.9l1.1-4l1-4.2
			l0.9-3.9L371,223.3z"/>
		<path class="st1" d="M290.5,36c-1.2-0.8-2.4-1.6-3.7-2.3c0,0,0,0,0,0"/>
		<path class="st1" d="M291.6,36.8c-0.4-0.2-0.8-0.5-1.1-0.7"/>
		<path class="st1" d="M22.2,266.2c4.2,4.3,7.8,9.1,11.5,13.8c0.1,0.1-0.3,0.1-0.2,0.2c0.6,1.1,1.1,2.4,2.1,3.2
			c0.2,0.2-0.3-0.8-0.2-0.7c0.5,0.9,1,1.8,1.4,2.7c0.1,0.1-0.4-0.3-0.3-0.2c2.3,2.7,4.7,5.2,7,7.9c0.4,0.5,0.3,1.3,0.7,1.8
			c1.1,1.3,2.8,2.2,3.3,3.8c0.5,1.5,1,5.4,2.4,6.9c0.2,0.2,0.4,0.2,0.6,0.4c0.1,0.2,1.7,5.6,3.7,4c1.3-1-4.3-6.8-1.9-7
			c2.9-0.1,2.2,0.4,5.5,2.3c0.7,0.4,1.5,0.5,2.2,0.8c1.8,1.1,3.3,2.9,5.4,3.4c0.8,0.2-2.1-2.5-1.2-2.3c1.3,0.2,1.6,2.4,2.9,2.6
			c1,0.1-2.1-1.4-2-2.5c0.1-0.8,1.7,0,2.2,0.6c0.5,0.5,0.4,2.9,0.3,2.1c-0.1-1.4-0.2-2.8-0.5-4.1c-0.3-0.9-2.1-2-1.4-2.6
			c1-0.9,2.8-0.2,3.9,0.5c0.6,0.3-1.6,0.2-1.7,0.9c-0.2,0.7,1,1.3,0.9,2c-0.1,0.5-1.6,0.3-1.2,0.6c0.5,0.4,1.3-0.1,1.9-0.1
			c0.3,0,0.9,0.3,1,0c0.4-0.9-0.2-2,0.2-2.9c0.2-0.3,0.9,0.1,1,0.4c0.2,0.7-1.1,1.8-0.4,2c0.9,0.3,1.6-1.1,2.5-1.3
			c0.6-0.1,1.2,0.1,1.8,0.3c1.4,0.4,5.4,3.9,6,3.7c1-0.3,1.1-2.4,2.2-2.2c1.5,0.2,3,0.6,4.5,0.9c0.6,0.1,1.3-0.2,1.9,0.1
			c2.1,0.8-1,2.3,3.1,1.7c0.4-0.1,0-1.1,0.4-1.1c1,0.1,1.7,0.9,2.6,1.4c0.3,0.2,0.6,0.7,0.9,0.7c1,0.1,2-0.8,2.9-0.4
			c0.5,0.3-1.3,0.9-1,1.3c0.6,0.9,1.9,1,2.8,1.6c0.3,0.2,1.2,0.8,0.9,0.6c-1-0.5-3.8-2.7-5.3-1.7c-0.8,0.5-1.7,1.9-1.1,2.7
			c0.8,0.9,2.3,0,3.5,0.1c0.6,0.1,1,0.5,1.6,0.5c0.2,0,0-0.7,0.2-0.6c0.7,0.2,1.2,0.9,2,1.1c1,0.3,2.1,0.2,3.1,0.5
			c0.6,0.2,1.9,1.4,1.8,0.8c0-3.4-2.4-2.2-4.1-3.1c-1.3-0.7-3.3-2.9-4-4.2c-0.4-0.8-1.2-1.8-0.9-2.7c0.3-0.7,2.2,0.2,2.1-0.5
			c-0.2-1.7-4.8-2.5-4.6-3.7c0.1-0.8,1.6,0.4,2.3,0.9c0.5,0.3,0.6,1.1,1.1,1.3c0.9,0.4,4.2,1,3.1-0.9c-1.9-3.3-8.5-5.2-12.2-5.1
			c-1.1,0-2.2,0.5-3.3,0.5c-0.7,0-2.6-0.4-2-0.7c0.9-0.5,2.5,0.9,3.1,0.1c0.7-0.9-1.8-3.1-0.7-3.4c1.2-0.4,1.4,2.3,2.6,2.8
			c0.6,0.3,1.3-0.4,2-0.5c5.6-0.8-3.4,0.8,4.2,1.2c1,0,1.9-0.9,2.9-1c0.7-0.1,5.5,3.5,6.6,4.1c0.5,0.3,1.2,0.3,1.7,0.6
			c1.8,1,3.4,3.5,5.7,3.4c1,0,2,0.1,3-0.2c0.5-0.1,0.7-0.9,1.2-1c1-0.1,2,0.3,3,0.6c0.4,0.1,0.5,0.8,1.1,0.7
			c1.1-0.2,2.2-0.8,3.3-1.1c0.1,0,0.4,0.3,0.4,0.2c0.2-1.4,0.5-2.9,0.1-4.2c-2.8-8.4-0.9,1.9-3.1-0.9c-0.6-0.8-0.6-1.9-0.8-2.9
			c0-0.3,0.7,0.7,0.4,0.7c-0.1,0-6.4-0.4-6.5-0.4c-0.4-0.3,0.6-1.1,1.1-1.1c1.2-0.1,2.3,0.7,3.5,0.8c0.3,0,0.5-0.3,0.8-0.3
			c0.8-0.1,3.1,0.6,2.5,0c-1.4-1.5-3.9-1.6-5.4-3c-0.4-0.4,0.9-0.9,0.9-1.5c0-0.9-2.1,0.4-2.2,0c-0.6-1.4-0.1-3.2-0.5-4.7
			c-0.4-1.6-1.6-0.5-1.2-2.4c0-0.2,0.3,0.5,0.5,0.5c0.6-0.1,1.5-0.1,1.6-0.7c0.2-1.2-0.9-2.2-1-3.4c0-0.3,0.7-0.3,0.7-0.5
			c0-0.3-0.8-0.2-0.8-0.6c0.1-0.4,1.3-0.2,1-0.4c-0.6-0.5-2,0.2-2.2-0.5c-0.1-0.7,1.9-0.1,1.9-0.8c0-0.9-1.7-1-1.8-1.9
			c-0.1-0.6,1.1-0.6,1.2-1.2c0.1-0.3-0.7-0.1-0.7-0.4c0-0.9,0.6-1.7,0.5-2.5c-0.1-2.2-2.8,0.4-3.9,1.9c-0.2,0.3,0.9,0.7,0.6,0.8
			c-0.4,0.2-0.7-0.8-1-0.6c-0.7,0.4-0.6,1.9-1.3,1.9c-0.6,0,0.7-1.6,0.2-1.9c-0.8-0.5-1.9,0.1-2.8,0.4c-0.4,0.1-0.8,1.1-0.9,0.7
			c-0.2-0.7,1-1.7,0.5-2.3c-0.4-0.5-0.9,1-1.5,1.1c-0.7,0.1-2.6,0.1-2.1-0.5c0.8-0.8,2.8,0.3,3.3-0.8c0.4-1-1.8-1.4-2-2.4
			c-0.1-0.6,1.2-0.6,1.3-1.1c0.1-0.3-0.9-0.3-0.9-0.6c0.1-0.7,1.2-1.2,1.1-1.9c-0.2-0.9-2.8-1.5-2-1.9c0.9-0.4,1.5,2.2,2.3,1.7
			c4.3-2.6-0.8-4.3-1.3-5.5c-0.3-0.7,0.3-1.5,0.3-2.3c-0.4-4.4-2.4-6.3-6.2-9.2c-2.1-1.7-2,2.7-2.2,2.9c-0.6,0.7-2.1,0.2-2.6,1
			c-0.6,1,0.5,2.3,0,3.4c-0.2,0.5-1-0.1-1.5,0c-1.2,0.2-3.4,0.6-3.3,1.6c0.2,5,3.5,2.5-1,8.9c-0.4,0.6-1.4,0.6-2.1,0.7
			c-1,0-2.1-0.1-3-0.4c-1.1-0.3-2.1-2.1-3-1.5c-0.9,0.6,0.3,2.3,0,3.4c-0.2,0.7-1.2,1-1.5,1.7c-0.3,0.9,0.3,2-0.3,2.7
			c-0.4,0.5-1.3-0.4-1.8-0.1c-0.5,0.3-0.1,1.6-0.7,1.5c-0.7-0.2-0.3-2-1-1.9c-0.7,0.1,0.1,2.6-0.4,2.1c-3.7-3.5-0.4-2.3-0.6-4.3
			c-0.1-0.9-0.3-1.7-0.6-2.6c-0.1-0.3-0.8-0.5-0.7-0.8c0.6-1.9,2.7-3.3,2.7-5.3c-0.1-2.5-2.3-4.5-3-7c-0.1-0.4,1.2,0.1,1.1-0.3
			c-0.2-1.9-1.1-3.6-1.7-5.4c-0.1-0.2-0.4-0.3-0.4-0.5c0-0.5,0.5-1,0.4-1.6c-0.3-2-0.9-4-1.4-6c-0.4-1.4-1.2-2-2.4-3.1
			c-0.3-0.3-1.3-0.5-1.1-0.9c0.2-0.4,1.1,0.4,1.5,0.1c0.9-0.8,1.2-2.2,1.8-3.2c0.2-0.3,0.7-0.5,0.6-0.9c-0.1-0.7-0.5-1.4-1-1.8
			c-0.2-0.2-1,0.5-0.8,0.3c1.4-1.5,3-2.7,4.4-4.1c0.1-0.1-0.1-0.5,0.1-0.5c1-0.3,2.1-0.5,3.2-0.4c0.5,0,1,0.8,1.5,0.6
			c0.3-0.1-0.2-0.9,0.2-1c0.9-0.2,1.9-0.1,2.7,0.3c0.4,0.2,0.4,0.9,0.7,1.2c0.3,0.3,0.6,0.4,1,0.5c0.5,0.2,1.3,1,1.5,0.5
			c0.3-1.3-0.7-2.5-0.6-3.8c0-0.3,0.9,0.4,0.8,0.1c0-0.9-0.9-1.7-0.9-2.7c0-0.4,0.5-1.1,0.7-0.8c0.4,0.7-0.1,1.6,0.1,2.4
			c0.2,1.2,0.6,2.4,1,3.5c0.9,2.1,6.6,4.4,8.3,1.8c0.5-0.8-1-1.6-1.4-2.5c-0.1-0.2-0.3-0.4-0.4-0.6c0-0.8,0.4-1.6,0.3-2.3
			c-0.1-0.9-1.9-2.7-1-2.6c3.1,0.4,0.6,6.7,2.3,7.2c1.1,0.3,2.4,0.7,3.4,0.2c0.7-0.4-0.2-2,0.5-2.3c0.7-0.3,1.2,0.9,1.4,1.6
			c0.1,0.4-0.6,0.7-0.6,1.1c0,0.5,0.2,1.2,0.6,1.4c0.3,0.2,0.2-1.1,0.5-0.8c2.3,2.2-3.8,3.7,0.6-2.2c0.4-0.6,1.2,1,1.3,1.7
			c0.1,0.7-1.3,1.5-0.8,2c0.8,0.7,4.3,1.3,5.1-0.4c0.5-0.9,0.4-2.1,0.6-3.1c0.1-0.4,0-1.1,0.4-1.2c0.7,0,1.2,1.2,1.9,1
			c0.5-0.1-0.5-1.1-0.2-1.5c0.3-0.4,1.5,0.4,1.5-0.1c0.2-1.4-0.5-2.7-1-4.1c-0.3-0.9-0.3-2.2-1.2-2.5c-1.4-0.4-2,3.7-2.4,3.9
			c-1,0.6-2.3,0.1-3.4,0.4c-0.7,0.2-1.3,0.9-2,1c-0.2,0,0.1-0.4-0.1-0.5c-0.2-0.1-0.8,0.3-0.7,0.1c0.7-1.3,1.6-2.5,2.5-3.8
			c0.5-0.7,2.3-2.5,1.3-3.5c-1.3-1.3-4,2.5-4,0.7c0-0.8,1.3-1,1.7-1.7c0.5-0.9,0.7-1.9,1-2.9c0-0.1-0.2-0.2-0.2-0.3
			c-0.2-0.6-0.8-1.5-0.3-1.8c0.8-0.4,1.9,1.1,2.6,0.6c0.9-0.7,0.4-2.4,1-3.4c0.3-0.5,1.1-0.5,1.5-1c0.8-0.9,1.2-3.2,1-3.3
			c-0.9-0.4-2,0.6-2.9,0.4c-1.2-0.3,0.2-3.4-2.2-0.3c-0.3,0.4,0.1,1.3-0.3,1.6c-1.4,1-2.6-1.9-2.5,1.6c0,1.2,1,2.3,0.9,3.5
			c0,0.4-0.7-0.7-1.1-0.7c-0.7,0-1.8,0.1-2,0.7c-0.2,0.5,1.4-0.1,1.6,0.4c0.2,0.6-0.4,1.5-1,1.5c-1.2,0-2.1-1.4-3.3-1.6
			c-0.5-0.1-0.8,1-1.3,0.9c-2.1-0.4,1.4-2.3,1.4-2.7c-0.2-2.3-2.5,0.5-2.7,0.3c-0.6-0.7-0.6-1.8-0.9-2.6c-0.5-1.3-1.1-2.5-1.7-3.8
			c-0.9-2.1,0-0.1-0.1-3.8c0-0.4-0.4-0.7-0.4-1.1c-0.1-2.1,0.6-4.3,0.1-6.4c-0.1-0.5-1.4-0.1-1.4,0.4c-0.1,1,0.6,1.9,1.2,2.7
			c0.4,0.5,2,0.4,1.6,0.8c-0.5,0.5-1.3-0.4-2-0.5c-1.3-0.2-2.7-0.7-4-0.4c-0.9,0.2-2.6,2.4-2.2,1.6c0.9-1.5,2.6-2.4,3.5-3.9
			c0.2-0.3-0.9,0.5-1,0.1c-0.2-1.4,0.5-2.8,0.4-4.1c-0.1-1-0.7-1.8-0.9-2.8c-0.2-1.1-0.9-2.6-0.1-3.3c0.7-0.6,1.5,1.5,2.3,1.3
			c0.8-0.2,1.2-1.2,1.3-2c0.2-1.1-0.5-2.2-0.4-3.2c0.1-1,0.8-1.8,1-2.7c0.2-0.7,0.1-1.5,0.3-2.1c0.5-1.3,2.3-2.4,1.4-4.2
			c-0.2-0.5-1.1-0.1-1.5-0.5c-0.3-0.3-0.6-1.1-0.2-1.4c0.8-0.6,2.9,0.4,2.8-0.5c-0.1-1-2.2-0.3-2.9-1.1c-0.3-0.4,0.4-0.9,0.8-1.2
			c0.8-0.6,2.7-0.4,2.7-1.4c0-1-4.7-8.1-4.6-8.7c0.1-0.3,0.5-0.8,0.8-0.6c0.8,0.5,1.5,1.4,1.9,2.3c0.2,0.5-0.3,1.1-0.1,1.5
			c0.3,0.8,1.5,2.9,1.4,2.1c-0.5-3.1-1.4-6.2-2.6-9.1c-0.1-0.3-1.1,0.9-0.9,0.6c0.9-1.7,1.9-3.2,3.1-4.7c0.3-0.3,0.8-0.3,1.1-0.6
			c1.3-1.5,2.3-3.2,3.5-4.9c0.1-0.1,0.3-0.2,0.3-0.4c0.2-0.8-0.1-1.7,0.3-2.4c3.3-6.1,2-1.6,4.3-5.2c0.3-0.5,0.6-1.1,0.7-1.6
			c0.1-0.2-0.3-0.5-0.1-0.7c0.4-0.6,0.8-1.3,1.5-1.5c0.3-0.1,0.3,1.1,0.6,0.9c0.8-0.7,1.2-1.9,1.7-2.9c0.3-0.6,0.1-1.5,0.7-1.7
			c0.1,0,1.6,3.1,2.3,0.5c2.8-9.9-5.3,6.4-1-5.9c0.2-0.5,1.2,0.7,1.5,0.3c1.5-2-1-5.1-1.1-7c0-1.1,3.9-4.9,1.2-5.1
			c-1.6-0.1-3,1.9-4.6,1.7c-0.6-0.1-1.1-0.6-1.7-0.5c-1.4,0.2-2.8,0.7-3.9,1.5c-0.6,0.4,2.7,0.3,2.2-0.2c-0.7-0.8-3.3,0.2-3.2-0.9
			c0.1-1.5,3.4-0.7,4.1-2.1c0.3-0.5,2.3-6.8,2-6.7c-0.8,0.2-1.5,0.5-2.3,0.6c-0.8,0.1-1.8-0.6-2.5-0.2c-3.4,1.8-0.4,1.4-3.2,4.1
			c-0.3,0.3-1-0.4-1.2-0.1c-1.3,2.1,1.6,4.2-3.3,2c-1.6-0.7,0.8-2.7,0.9-2.8c0.4-1,0.1-2.1,0.4-3.1c0.1-0.2,0.4,0.8,0.4,0.5
			c0.2-1.1,0.3-2.2,0.1-3.3c-0.1-0.7-0.8-1.1-0.9-1.8c0-0.3,0.9-0.8,0.6-0.8c-1.1,0.1-4.4,2.3-5.2,2.2c-1-0.1-1.3-2.1-2.2-1.9
			c-0.7,0.1-0.2,1.5-0.2,2.3c0,0.7,0.6,2.2,0,2c-1.7-0.6-2.6-2.6-4.1-3.5c-0.3-0.2-0.6,0.4-0.8,0.7c-0.5,1-0.8,2.1-1.2,3
			c-0.5,1-0.9,2.2-1.7,3c-0.3,0.3-1.1-0.4-1.3,0c-0.5,0.9,0.7,2.9-0.3,3.1c-1,0.2-0.7-2-1.5-2.8c-0.4-0.4-1.4,0.2-1.5-0.3
			c-0.1-0.4,1.1-6.5,1.1-6.8c0-0.4-0.4-0.9-0.2-1.3c0.3-0.7,1.1-1.1,1.3-1.8c0.2-0.6-0.1-1.4,0-2c0.3-1.9,0.4-2.7,0.1-2.1
			c-0.6,1.3-0.7,2.8-1.3,4.2c-0.1,0.2-0.5,0.1-0.6,0.2c-0.3,0.6-0.2,1.3-0.5,1.9c-0.3,0.5-1,0.8-1.2,1.4c-0.3,0.9,0.1,1.9-0.1,2.8
			c0,0.2-0.5-0.3-0.5-0.1c0,1,0.6,1.9,0.6,2.8c0,0.6-0.7,1.1-0.8,1.8c0,0.3,0.7,0.1,0.7,0.4c0.1,0.9-0.4,1.8-0.5,2.8
			c0,0.3,0.3,0.5,0.4,0.8c0,0.4,0,0.8-0.2,1.2c-0.1,0.1-0.4,0-0.4,0.1c0.2,4.2,1.1,0.9,4,4.7c0.3,0.4-0.7,0.7-0.7,1.2
			c0.1,0.7,0.8,1.2,1,1.9c1.4,5.6,0.1,0.7-0.7,3.4c-0.2,0.5,0.2,2.1,0.1,1.6c-0.3-1.7,0.7-6.2-2.1-6.5c-0.6-0.1-0.3,1.9-0.8,1.6
			c-0.7-0.4,0.4-2.1-0.3-2.3c-2.4-0.8-0.9,2.7-0.6,3.7c0.5,1.3,1.5,2.4,1.4,3.8c-0.1,1.7-1.2,3.3-2,4.8c-0.1,0.2-0.1-0.5-0.3-0.5
			c-0.5,0-1.4,1.4-1.5,1.5c-0.1,0.5,0.8,1.1,0.5,1.5c-0.2,0.4-0.5-0.9-0.9-0.9c-0.5,0-1,0.6-1.2,1.1c-0.5,0.9-0.4,2-0.8,3
			c-0.3,0.8-2.1,3.5-2.6,4.3c-0.8,1.2-1.5,2.5-2.5,3.6c-0.5,0.6-1.7,0.7-2,1.5c-0.2,0.5,1,0.8,1,1.3c-0.1,0.7-1.1,1-1.3,1.7
			c-0.1,0.2,0.7-0.1,0.8,0.1c0.3,1.7-1.6,0.2-1.9,0.3c-0.3,0.1,0.2,0.6,0.1,0.9c-0.2,0.3-1.2,0.5-0.9,0.6c0.8,0.3,1.6-0.1,2.4-0.1
			c0.4,0,1.3-0.3,1.1,0c-0.8,1.2-1.9,2.3-3.2,3c-0.4,0.2-0.7-0.6-1.1-0.7c-0.2,0-1.3,1.8-1.8,2.1c-1,0.6-4.7,1.3-4.8,1.5
			c-0.5,0.8,1.1,2.1,0.5,2.8c-0.8,1-4.5,0.1-3.4,0.8c0.8,0.6,3.3,0.6,2.7,1.5c-0.6,0.9-2-0.6-3.1-0.9c-0.2-0.1-0.5-0.3-0.6-0.1
			c-0.4,0.7-0.2,1.6-0.6,2.3c-0.4,0.8,0.3-2.8-0.7-1.3c-0.5,0.8-0.4,1.9-1.1,2.5c-0.8,0.8-2.3,0.7-2.9,1.7c-0.6,1.1,0.8,3.1-0.3,3.8
			c-0.8,0.6-0.7-1.9-1.4-2.6c-0.3-0.3-0.9,0-1.1,0.3c-0.5,0.9-0.5,2.1-0.9,3.1c-0.1,0.3-0.7,0.4-0.7,0.7c-0.1,0.7,0.4,1.4,0.3,2
			c0,0.3-0.6,0.4-0.7,0.7c-0.3,1.1-0.1,2.4-0.6,3.4c-0.3,0.6-1.2,0.6-1.6,1.1c-1,1.2-1.5,2.9-2.7,4c-1.4,1.3-2-1.7-1.7-1.9
			c0.5-0.4,2.1,1.1,2,0.4c-0.2-1.3-1.3-2.3-2.4-3c-0.3-0.2-0.1,0.9-0.4,1c-0.3,0.1-0.5-0.4-0.8-0.4c-1.4,0-2.9,0.2-4.3,0.4
			c-0.1,0,0.1,0.4,0,0.3c-0.5-0.3-0.8-1.1-1.3-1c-0.6,0.1-0.8,1-1.3,1.3c-2.7,2-4.2,1.6-5.2,4.9c-0.5,1.4,0.9,3.3,0.1,4.6
			c-0.4,0.5-1.5-1.1-1.9-0.6c-0.9,1.1-0.6,2.8-1,4.2c-0.1,0.2-0.5,0.1-0.5,0.3c-0.4,2.8,0,6.3-0.4,9.3c-0.3,2.3-0.4,0.7-1.1,3.8
			c-0.5,2.1-0.7,4.1-0.6,6.3c0,1,0.8,2.5,0,3.1c-0.7,0.5-0.7-3.4-0.8-2.5c-0.1,2,0.4,4.1,0.6,6.1c0.1,1.4,0,4.6,0.3,6.7
			c0.2,1.2,0.4,2.4,0.6,3.5c0,0.3,0.1,0.5,0.1,0.8c0,0.2,0,0.4,0.1,0.6c0.1,0.4,0.4,1.6,0.3,1.2c-0.1-1.4-0.5-2.7-0.6-4.1
			c-0.2-3-0.2-5.6-0.1-8.5c0.2-4.7,0-1.6,0-5.3c0-0.4,0.2-3.9,1.1-3.1c0.8,0.8,0.2,2.2,0.3,3.3c0.3,4.7-0.7,1.8-0.6,6.9
			c0,1.9,0.4,3.7,0.5,5.6c0,0.1-0.2,0.2-0.2,0.3c0,1.4,0,2.8,0.2,4.2c0.9,5.4,2.1,10.7,3.3,16l1.5,4.4l1.9,4l1.5,4l1.6,4.6
			L22.2,266.2z"/>
		<path class="st1" d="M323.4,242.5c-0.1,0.8-0.7,1.6-0.4,2.4c0.5,1.3,2.7,1.6,2.8,3c0.1,0.6-0.7,1.2-0.4,1.7
			c0.6,0.8,1.6,1.2,2.6,1.2c1.1,0,2.6-2.4,3.1-1.4c0.6,1.3-1.4,2.6-1.9,4c-0.1,0.3,0.3,0.6,0.3,0.9c0,0.7-0.3,1.3-0.4,1.9
			c-0.1,0.6,0.4,1.4,0,1.8c-0.4,0.3-1.1-0.8-1.4-0.4c-1.5,1.8-2.3,4-3.4,6.1c-0.5,1-1.6,2.1-1.3,3.2c2.1,8.4,2.3,0.4,3.6,1
			c0.8,0.3,0.6,1.8,1.4,2.2c0.7,0.4,1.8-0.5,2.5,0c0.4,0.3-1,0.4-1.3,0.8c-0.2,0.4,0.2,1-0.1,1.3c-0.3,0.3-0.8-0.2-1.2,0
			c-1.1,0.4-2.1,2.4-3,1.7c-1-0.8,3-5.5,3-5.9c0-0.9-1.3,1.1-1.8,1.8c-0.1,0.1,0.2,0.1,0.2,0.2c-0.6,1.1-1,2.4-2,3.2
			c-0.8,0.6-1.9,0.4-2.9,0.7c-1.3,0.3-2.5,1.6-3.8,1.2c-1-0.3-1.3-1.9-2.4-2.2c-0.8-0.3-1.6,0.3-2.3,0.7c-3.2,1.7-6,4.1-9.4,5.4
			c-1,0.4-2.1-0.8-3.2-0.6c-1.5,0.2-4.6,3.6-4.6,4.6c0,4.4,5.3,0.6,6,0.5c5.7-0.8-1.3,2.4,4.7-0.1c1.2-0.5,2.3-1.2,3.4-1.8
			c0.5-0.3,0.9-1.1,1.5-1c0.8,0.1,1.3,1,1.9,1.5c0.2,0.2,0.2,0.9,0.5,0.8c0.6-0.1,1.1-1.5,1.6-1.1c0.6,0.4-0.1,1.5-0.1,2.2
			c0,0.8,0.5,1.7,0.3,2.5c-0.1,0.4-0.7,1.3-1,0.9c-1.7-2.3,2-3.8-3.1-2.9c-0.4,0.1-0.4,0.8-0.8,0.9c-0.6,0.2-1.4-0.1-1.9,0.2
			c-0.7,0.3-1,1.1-1.6,1.5c-2.1,1.1-4.2,2.1-6.4,2.9c-2.1,0.8-5.4-1.5-7.1,0.4c-1.6,1.7-3.4,3.4-4.7,5.4c-0.7,1.3-0.9,2.8-1.8,4
			c-1.7,2.3-4.1,4.2-5.7,6.7c-0.2,0.4,0.7,0.6,0.8,1c0.3,1.2-3.6,4.9-4.1,5.6c-0.2,0.2-0.3,0.6-0.3,0.9c-0.2,0.9-0.7,1.8-0.7,2.8
			c0,0.7,0.9,1.2,1,2c0.1,0.8-0.5,1.5-0.5,2.3c0,0.4,0.7,0.7,0.5,1c-0.5,0.8-1.4,1.3-2.1,2c-2.9,2.7-4.8,7.3-8.6,8
			c-1.1,0.2-2.3,0.4-3.4,0.6c-1,0.2-2.1,0.3-3.1,0.7c-0.5,0.2-0.7,1.1-1.3,1.1c-1.4,0-2.7-1-4.1-1.3c-0.6-0.1-1.2,0.5-1.7,0.3
			c-1.4-0.7,0.8-2.9,0.5-5.1c-0.3-1.7-3.4-3.1-4.4-3.8c-0.1,0,0.1-0.2,0.1-0.2c3.9-2.4,7.9-4.6,11.8-7c2.7-1.7,5.7-5.4,6.7-7.9
			c1-2.6-6.9-2.1-6.5-4c0.1-0.4,1.4-0.7,1.1-0.5c-0.7,0.3-1.2,0.9-2,1c-0.2,0,0.3-0.8,0.1-0.7c-1.8,0.5-3.3,1.9-5.1,2.2
			c-0.8,0.1-1.9-0.4-2-1.1c-0.1-0.7,1.1-1,1.5-1.6c2.1-3.1,1.7-5.1,4.6-6.2c1.1-0.4,2.5-0.2,3.3-1c0.6-0.5,0.1-1.5,0.5-2.2
			c0.4-0.9,1.6-1.4,1.6-2.4c0-0.7-1.4-0.8-1.4-1.5c0.1-0.9,1.1-1.3,1.6-2c0.4-0.6,0.9-1.3,1.1-2c0.1-0.2-0.3-0.4-0.2-0.5
			c0.5-0.5,1.7-0.5,1.8-1.2c0.3-1.6-2.2-2.7-2-4.3c0.6-5.1,1.7-1.4,4.1-4.7c0.5-0.7-0.2-1.8,0.4-2.4c0.4-0.4,1.3,0.3,1.7,0
			c0.9-0.7,2.3-1.7,2-2.7c-0.2-0.8-1.7,0.8-2.6,0.6c-1.7-0.4-2.5-2.2-3.8-3.1c-1.1-0.8-2.8-0.9-3.4-2.1c-0.7-1.1,3.7-3.9,1.9-4.1
			c-0.9-0.1-1.3,1.2-1.8,2c-0.3,0.4-0.7,1.8-0.5,1.3c0.4-0.9,0.9-1.7,1.1-2.7c0.3-1.1-0.3-2.4,0.4-3.3c0.4-0.5,0.7,1,1.2,1.3
			c0.2,0.1,3.4,0.8,2.9,2.4c-0.1,0.3-0.9,0-0.9,0.3c-0.1,2.8,5.3,4.4,6.3,4.4c4,0.1-0.2-4,2.4-4.9c1.3-0.4,2.4,0.8,3.6-0.7
			c0.6-0.8,0.3-1.9,0.6-2.9c0.2-0.7,0.8-1.2,1-1.8c0.1-0.4-0.2-0.9-0.1-1.3c0.1-0.6,0.3-1.2,0.6-1.7c0.9-2,2.1-3.8,3.2-5.7
			c0.5-0.9,1.4-1.6,1.7-2.5c0.1-0.3-0.5-0.2-0.8-0.3c-1.1-0.6-2.4-1-3.4-1.9c-0.8-0.7-1.4-1.5-1.7-2.5c-1.6-5.1,1-1.8,1.6-6.7
			c0.1-0.6-0.5-1.5-1.1-1.5c-2.6,0.1,1.4,5.8-3.9,0.3c-0.3-0.3,0.4-0.8,0.5-1.2c0.3-1.2,0-2.6,0.5-3.8c0.3-0.8,1.4-1,1.7-1.8
			c0.7-1.6,0.1-3.5,0.6-5.1c0.3-0.8,1.8-2,1.1-2.3c-0.8-0.3-1.1,1.4-1.8,2c-0.7,0.6-1.7,0.8-2.3,1.5c-0.5,0.7-0.2,1.7-0.6,2.4
			c-0.1,0.2-0.7-0.3-0.7-0.1c-0.1,0.6,0.5,1.2,0.5,1.9c-0.1,2.3-0.7,1-1.2,2.7c-0.3,1.2-0.3,2.5-0.8,3.7c-0.1,0.4,0.2-1.3-0.2-1.2
			c-1.4,0.4-2.4,1.8-3.8,2.2c-1.7,0.4-1.7-2-2.5-2.5c-1.4-0.8-3.4-0.5-4.5-1.7c-0.7-0.7,0.1-2.1-0.3-3.1c-0.1-0.3-0.7-0.1-0.8-0.5
			c-0.3-1-0.1-2.1-0.3-3.2c0-0.1-0.3,0-0.3-0.1c-0.5-1-1.1-1.9-1.4-3c-0.1-0.6,0.6-1.2,0.3-1.7c-1.1-1.8-3-0.8-4,0.2
			c-1.2,1.2-3,3.7-1.1,5.4c0.2,0.2,0.7-0.3,0.9-0.1c0.4,0.4,0,1.3,0.4,1.6c2.4,1.7,2.3-3.5,2.9,2.8c0.1,0.8-0.6,1.6-0.6,2.4
			c0,1.2,0.9,2.3,0.9,3.6c0,0.7-0.5,1.6-0.1,2.2c0.6,0.9,2,0.9,2.7,1.7c0.2,0.2-0.6,0.6-0.4,0.8c0.7,0.8,1.6,1.6,2.7,1.8
			c0.5,0.1,0.7-0.9,1.3-1.1c1.1-0.3,2.3-0.3,3.4-0.3c0.2,0,0.4,0.1,0.4,0.3c0.5,2.9-1.7,3.7-3.3,5.7c-0.4,0.5,0.8-1.1,1.5-1.2
			c0.8-0.1,2.1-0.2,2.4,0.6c0.3,0.8-1.4,1.4-1.3,2.3c0.1,0.6,0.9-0.9,1.4-1c0.4,0-0.8,0.6-0.7,0.9c0.8,2,1.8,0.8,3.1,1.7
			c0.2,0.2,0.1,0.5,0.2,0.8c0.1,1.9,0,3.8,0.3,5.6c0.2,1,1.2,1.7,1.2,2.6c0,0.3-1.8,2.5-2.1,2.4c-0.4-0.1,0-0.9-0.3-1.1
			c-0.8-0.4-1.8,0-2.5-0.4c-0.3-0.1,0.8-0.2,0.7-0.5c0-0.5-0.5-0.9-0.9-1c-4.8-1.6,3.4,4.3-4.5-0.6c-0.6-0.4-0.7-1.4-1.3-1.8
			c-4.8-3.6-0.2,0.6-4-0.4c-0.8-0.2-1.8-2.2-1.9-1.4c-0.2,1,1.6,1.6,1.7,2.6c0.1,0.5-1.1,0.4-1.3,0.9c-0.2,0.3,0.1,0.7,0.3,1
			c0.1,0.1,0.4-0.1,0.4,0.1c0,1.2,0,2.4-0.3,3.5c0,0.2-0.4-0.1-0.6,0c-0.8,0.8-1.1,1.9-2,2.5c-0.2,0.2,0.3-0.9,0-0.9
			c-1.2-0.1-2.3,0.9-3.4,0.7c-5-0.8,1.1-4.7-1.5-7.1c-0.5-0.5-3,5-4.1,2.1c-0.5-1.2,1.1-2.2,1.7-3.3c0.4-0.6,2.1-2.1,1.5-1.7
			c-1.5,1.1-2.4,4-4.3,3.7c-1.5-0.3,2.1-2.9,1.4-4.2c-0.6-1-1.6,1.7-2.6,2.1c-0.3,0.1-1-0.4-0.8-0.7c0.5-0.7,2.1-0.4,2.2-1.3
			c0.5-2.6-3.5-3,0.1-4.7c0.5-0.2,1.1,0.3,1.6,0.1c0.2-0.1,0-0.6-0.2-0.7c-0.5-0.2-1.3,0.3-1.5-0.1c-0.2-0.5,0.9-0.7,0.9-1.3
			c0-0.3-0.9,0.1-0.9-0.2c0-0.3,0.7,0,0.9-0.3c0.2-0.5-0.2-1.2,0-1.8c0.4-1,1.6-1.7,1.9-2.8c0.1-0.4-0.8-1-1.1-0.7
			c-0.4,0.4,0.1,1.3-0.1,1.8c-0.2,0.6-0.8,1.9-1.3,1.5c-0.8-0.7-0.4-2-0.5-3.1c0-0.4-0.1-0.8,0.1-1.1c0.3-0.3,1.1-0.1,1.2-0.5
			c0.1-0.3-0.9,0-1-0.3c-0.2-0.6,0.5-1.1,0.4-1.7c-0.1-0.5-1.1,1.9-1,1.4c0.2-1.1,0.7-2.2,0.8-3.3c0-0.4-0.3,1.3-0.6,1.1
			c-2.4-1.3-0.7-2.7-1.3-4.5c-0.4-1.2-1.8-2.1-1.9-3.4c-0.1-0.8,1.5-1,1.4-1.8c-0.1-1.1-1.4-1.9-1.7-3c-0.4-1.2,1.3-3,0.1-2.8
			c-0.7,0.1-1,1.8-1.7,1.5c-0.6-0.3,0.9-1.2,0.7-1.9c-0.2-0.9-1.7-1.3-1.8-2.2c0-0.7,1.7-0.8,1.6-1.5c-0.1-0.6-1.4,0.1-1.8-0.3
			c-0.3-0.3-0.4-1.4,0.1-1.4c0.6-0.1,0.6,1.4,1.1,1.2c3.3-1-0.6-2.6-0.6-2.9c0.1-0.6,1.5-0.4,1.6-1c0.1-0.5-0.8-0.9-1.3-0.9
			c-0.5,0-1.1,1.4-1,0.9c0.1-1.1,1-2.1,1.2-3.2c0.9-3.5-2.3-2.6,0.2-6.7c0.6-1,4.7-2.8,5.2-2.8c0.7,0,1,1.2,1.7,1.2
			c0.5,0,1-0.7,1-1.2c0-0.4-1.1-0.3-1-0.7c0.2-0.6,0.9-1.5,1.5-1.2c0.6,0.2-0.5,1.5,0.1,1.8c0.5,0.2,0.7-0.9,1-1.3
			c0.1-0.2,0.1-0.5,0.3-0.5c0.4,0,0.7,0.8,1.1,0.5c4.3-2.7,7.8-6.8,12.4-8.8c1-0.5,1.9,3.3,1.8,4.1c-0.1,2-3.5,7.5-4.7,7.6
			c-0.1,0-0.5-0.3-0.3-0.3c1.4,0,2.9-0.2,4.3,0.3c0.6,0.2,0.3,1.3,0.8,1.6c1,0.5,2.1,0.6,3.2,0.5c1.7-0.2,2.9-5,2.8-5.3
			c-0.3-1-1.4,1.7-2.4,2c-0.6,0.1-1.5-0.5-1.4-1.1c0.2-1,1.1-1.8,2-2.3c0.3-0.2,0.5,1.3,0.7,0.9c0.5-1.4,1.5-3.2,0.7-4.5
			c-0.6-1-2.3,0.5-3.4,0.2c-0.4-0.1-0.2-0.8-0.4-1.1c-0.3-0.8-0.5-1.7-0.9-2.5c-0.3-0.5-1.1-0.7-1.2-1.3c-0.1-1.1,1.7-1.9,1.5-3
			c-0.5-2.3-2.7-0.1-3.5-0.2c-1-0.1-1.7-1.1-2.7-1.3c-0.3-0.1-2.5,0.9-2.3-0.4c0.2-1,0.5-5.2,3.4-3.6c0.6,0.4-0.3,1.5,0,2.2
			c0.8,1.8,2.7,1,3.5-0.3c0.5-0.7,0.8-1.9,0.3-2.6c-0.5-0.8-2.1-0.2-2.7-0.9c-0.5-0.5,0.5-1.5,0-2.1c-0.3-0.4-0.8,0.8-1.2,0.6
			c-0.3-0.1,0.5-0.7,0.4-1c-0.4-1-1.3-1.7-1.8-2.7c-0.4-0.7-0.4-1.5-0.7-2.3c-0.5-1.3-0.9-2.6-1.6-3.8c-0.2-0.5-0.1,1.3,0.4,1.5
			c0.6,0.3,1.3-0.6,2-0.4c0.4,0.1,0.4,1.3,0.6,1c2.4-3.4-0.6-1.6-1.2-3.2c-0.4-0.9,0.3-2.1-0.1-3c-0.4-1-2.1-1.5-1.9-2.5
			c0.1-0.9,1.9-0.4,2.5-1.2c0.3-0.4-0.9-0.1-1.4-0.2c-0.8-0.3-1.4-0.9-2.2-1.1c-0.8-0.2-2.2,0.5-2.6-0.3c-0.7-1.3,1.8-8.2,2.4-9.6
			c0.4-0.9,1.8-1.7,1.5-2.6c-0.3-0.8-1.8-0.6-2.6-0.4c-0.4,0.1,0.3,0.8,0.2,1.1c-0.4,1-0.9,2.1-1.7,2.8c-0.6,0.5-4.1-0.2-4.8,0
			c-0.5,0.1-0.5,1-1,1.2c-1.1,0.5-2.3-1.9-4-1.9c-1.5,0-4.3,0.3-4.5-0.4c-0.4-1.3-1.2-3.3-0.1-4.2c1.3-1.1,3.5,0.5,5.2,0
			c0.9-0.2,1.1-1.6,1.9-1.9c8-3.6-4.1,4.6,7.3-1.5c0.7-0.4,0.6-1.7,1.3-2.1c3.9-1.8,2.2-0.1,3.8,0.8c1,0.5,1.9,1.1,3,1.3
			c0.7,0.2,0.8-3.5,1.9,0.6c0.3,1-0.6,2-0.3,3c0.1,0.4,0.9-0.5,0.9-0.9c0.1-1.1-0.4-2.1-0.4-3.2c0-0.4,0.5-0.9,0.2-1.2
			c-0.4-0.4-1.1-0.1-1.6-0.4c-3.1-1.8-1-2.3-5.2-2.4c-0.6,0-1.2,0.3-1.7,0.5c-0.7,0.3-1.3,1.2-1.9,1c-2.2-0.9-3-3.1-0.9-4.3
			c0.8-0.5,2.3,0.2,2.8-0.6c0.6-0.9-0.2-2.1-0.5-3.1c-0.3-0.8,0.9,1.9,0.3,2.6c-0.5,0.6-1.5-0.6-2.2-0.4c-0.8,0.2-1.6,0.8-1.9,1.5
			c-0.6,1.4,0.5,5.4-0.9,6.7c-0.7,0.6-1.9-0.2-2.8-0.2c-2.3,0-4.6,0.5-6.8,0.9c-1,0.2-2,1-3,0.9c-0.5-0.1,0.5-1.1,1-1.2
			c0.9-0.4,2,0,3-0.3c1.6-0.4,2.1-4.1,1.9-5.2c-0.1-0.3-0.7-1-0.9-0.6c-0.5,1.3-0.1,2.9-0.6,4.3c-0.1,0.4-0.8,1-1.1,0.7
			c-0.7-0.6-0.2-2-0.9-2.6c-0.6-0.4-1.5,0.5-2.2,0.2c-1.5-0.6,0.8-4.4,0.7-4.7c0-0.7-1.1-1.2-1-1.9c0.2-1.9,1.7,0.5,2.3,0.5
			c2.2-0.1,3.2-0.9,3.6-3c0.1-0.3-0.4,0.5-0.7,0.6c-1.6,0.6-3.5,0.5-5.1,1.3c-0.5,0.2-0.1,1-0.3,1.5c-0.1,0.3-0.4,0.6-0.5,0.9
			c-0.3,0.8-0.2,1.7-0.8,2.4c-0.4,0.4-1.1,0.4-1.7,0.6c-0.8,0.3-1.6,1.5-2.2,0.9c-1.4-1.3-2.1-3.4-2.5-5.4c-0.1-0.7,1.7-2.3,1-2
			c-1.6,0.7-2.7,2.3-4,3.3c-0.5,0.4-0.9,1-1.5,0.9c-0.4-0.1,0.1-1.1-0.2-1.3c-0.6-0.3-1.4-0.2-2,0.1c-0.3,0.2,0.3,1,0,1
			c-1-0.1-1.8-0.7-2.6-1.3c-0.2-0.1,0.1-0.4-0.1-0.5c-1.4-1-2.9-1.8-4.4-2.5c-0.4-0.2,1.2,1.1,0.8,0.9c-1.8-1.1-4.1-1.8-5.2-3.6
			c-0.5-0.8,1.5-1.3,2-2.1c0.3-0.5,0.7-2.3,0.3-1.8c-1.3,1.3-1.3,3.9-3,4.6c-1.1,0.4-1.2-2-2.1-2.7c-0.4-0.3,0.7,0.9,0.5,1.4
			c-0.4,1.5-5.1,2.3-5.6,1.4c-2.6-4.4,0.3-1.4,1.8-2c0.4-0.2-0.6-0.7-0.7-1.2c0-0.7,0.6-1.3,0.5-1.9c-0.3-1.1-3.5-1.1-4.3-1.9
			c-0.4-0.4,0.4-1.1,0.4-1.7c0-0.5-0.4-1-0.3-1.5c0.1-0.9,0.4-1.7,0.7-2.5c0.8-2,4.3-0.5,6.4-1c0.2,0-0.6-0.2-0.4-0.3
			c1.1-0.4,2.3-0.7,3.5-0.7c0.4,0,0.6,0.6,0.9,0.6c0.4,0,0.7-0.5,1.1-0.6c1-0.2,2.1-0.1,3.1-0.3c0.8-0.1-1.6,0.4-2.3,0.2
			c-0.8-0.2-1.3-1.1-2-1.4c-5.5-2.1,0.4,0.9-4.5,0c-0.7-0.1-1.8-0.4-1.9-1.1c-0.1-1,0.9-1.8,1.3-2.7c0.3-0.5,1.3-2.1,0.9-1.6
			c-0.6,0.9-0.8,2.3-1.8,2.9c-0.9,0.5-5.2-1.9-5.6-2.7c-1.2-2.7,5,1.2-0.1-2.7c-0.7-0.5-1.6-0.5-2.4-0.9c-1.8-0.8-3-2.6-4.4-4
			c-0.2-0.2,0-0.4,0-0.7c0-1,0.6-2.1,0.2-3c-0.5-1.2-0.4,4-0.9,3.6c-2.5-1.9-0.9-7.1-3.2-7.1c-1.7,0-1.8,3.9-3.5,3.7
			c-0.9-0.1-0.4-1.9-1.2-2.3c-0.8-0.4-1.7,0.8-2.6,0.5c-1-0.4-1.4-2-2.4-2.2c-1-0.2-2.3,0.2-2.9,1.1c-0.4,0.5,0.8,1.2,0.7,1.8
			c-0.1,0.5-1,0.4-1.2,0.8c-0.5,0.7-0.3,1.8-0.9,2.5c0,0-2.4-0.7-3.5-0.9c-0.1,0-4-0.6-4.1-1.1c-0.2-0.7,1.9-1.6,1.2-1.8
			c-1.7-0.5-3.5,0.9-5.3,0.7c-0.6-0.1,1.9-0.6,1.5-1.1c-0.4-0.7-1.7,0-2.4-0.4c-1-0.5-1.8-1.5-2.7-2.2c-0.2-0.1-0.5,0.2-0.7,0.3
			c-1.1,0.3-2.2,0.7-3.2,1c-1.7,0.5-3.3,1.6-5.1,0.6c-0.4-0.2-3.3-3.3-3.4-3.4c-0.3-0.5-0.2-1.1-0.4-1.6c-0.2-0.6-0.4-2.4-0.6-1.8
			c-0.3,0.9,0.4,2,0.2,2.9c-0.3,1.1-2.4,2.2-3.2,2.4c-0.3,0.1-0.6-0.3-0.9-0.3c-1.1,0.2-2.3,0.3-3.3,0.9c-0.5,0.3-0.3,1.4-0.9,1.5
			c-0.2,0-2.9-3.6-5.2-1.4c-1.8,1.8,2.9,3.4,2.1,4.1c-0.3,0.3-3.1,0.7-3.7,0.9c-3.5,1.3-6.9,3.4-10.9,3.2c-1.1-0.1-2.1-0.5-3.1-0.5
			c-0.4,0,1.3,0.4,1,0.5c-1.8,0.5-3.7,0.7-5.5,0.7c-0.3,0-0.3-0.7-0.5-0.9c-1-0.6-2.2-2.1-3.3-1.6c-0.9,0.4,1.1,1.9,0.8,2.8
			c-0.2,0.7-1.3,0.5-1.9,0.9c-0.3,0.2-0.4,0.8-0.8,0.8c-1,0.1-1.9-0.5-2.9-0.4c-0.5,0.1-0.9,1.2-1.3,0.9c-2.3-1.8,1.3-2.4,1.5-2.8
			c1.5-2.8-0.7-2.9-1.2-5.4c-0.1-0.3,0.6-0.3,0.9-0.4c1.8-0.1,3.6,0.1,5.4-0.1c0.6-0.1,1.1-0.4,1.5-0.7c0.7-0.5,1-1.7,1.8-1.8
			c1,0,1.5,1.7,2.5,1.6c0.6,0,0.3-1.3,0-1.8c-0.3-0.4-1.3-0.1-1.4-0.6c-0.2-0.6,0.3-4,1.5-4.5c1.2-0.5,2.6-0.3,3.9-0.7
			c0.5-0.2-1.8,0.4-1.6-0.1c0.3-0.6,1.4-0.2,1.9-0.6c0.8-0.6,2.2-1.2,2.1-2.1c-0.2-0.9-1.2,1.6-2.1,2c-0.3,0.1-0.3-1-0.7-0.9
			c-3.4,1.5,1.4,4.7-5.4,0.3c-0.3-0.2,0.6-0.4,0.6-0.7c0.2-1.1-0.3-2.3,0-3.4c0.1-0.3,0.7,0.6,0.9,0.4c0.8-1,1-2.3,1.7-3.4
			c6.2-9.3-0.3,1.7,3.3-4.2c0.9-1.5,2.1-2.8,2.7-4.4c0.2-0.5-0.6-1.4-0.1-1.5c0.9-0.2,1.7,0.9,2.6,0.8c2.3-0.2,3.1-2.1,4.3-3.7
			c0.2-0.3,0.5-1,0.7-0.8c0.4,0.5-0.6,2,0.1,1.9c0.9-0.1,1.3-1.4,1.9-2.1c1-1.2,1.9-2.7,3-3.8c0.2-0.2,0.6,0.2,0.7,0
			c0.6-1,1.1-2.1,1.2-3.3c0.2-1.8-1.8,0.8-2.9,0.2c-0.5-0.3,1-0.9,0.8-1.4c-0.3-1-1.6-1.3-2-2.3c-0.2-0.6,1.8-1.2,1.8-0.5
			c0,0.5-1.2,1.4-1,1c0.6-1.1,2-1.9,2.3-3.2c0.1-0.6-1.5-0.8-1.3-1.3c0.5-0.9,2-0.5,2.6-1.3c0.8-1,0.2-2.7,1.1-3.6
			c0.9-0.9,2.7-0.3,3.6-1.2c0.6-0.5-0.1-1.6,0-2.3c0-0.4,0.5-0.6,0.8-0.8c0.9-0.8,1.7-1.7,2.8-2.2c0.1-0.1,0.9,3.1,0.9,3.2
			c0.1,0.3,0.6,0.3,0.9,0.5c0.5,0.5,0.4,1.4,0.6,2.1c1.1,2.8,2,3.2,0.8,6.5c-0.2,0.6-1.2,0.8-1.5,1.4c-0.3,0.6,0.4,1.4-0.1,1.8
			c-0.8,0.7-2.2,0.4-3,1.1c-1.5,1.5-2.2,3.6-3.5,5.2c-0.6,0.9-1.6,1.5-2.2,2.4c-0.1,0.2,0.1,0.5,0,0.7c-0.4,0.6-1.3,0.8-1.6,1.5
			c-0.6,1.5-0.3,3.4-1.1,4.8c-0.5,0.9-2.5,0.5-2.6,1.5c0,0.8,1.7,0.1,2.5-0.1c0.7-0.2,1.6-0.5,1.8-1.1c0.2-0.8-1-1.6-0.7-2.4
			c0.2-0.5,1.2-0.2,1.6-0.5c1.3-1.2,1.7-3.8,3.5-4.2c1.1-0.3,0.1,2.2,0.3,3.3c0,0.2,0,0.5,0.2,0.5c0.7-0.1,1.4-0.4,2.1-0.7
			c1-0.4,2.3-0.4,3.1-1.1c1.1-1,1.6-2.5,2.6-3.7c0.5-0.6,1.6-0.6,1.8-1.4c0.2-1-1.2-2.1-0.9-3.1c0.3-0.8,1.5-0.5,2.3-0.7
			c0.8-0.3,1.5-0.7,2.3-0.8c0.4-0.1,0.8,0.2,1.1,0.2c0.9,0,1.8-0.4,2.6-0.2c1.1,0.2,1.9,1.3,3,1.4c0.7,0.1,1.3-0.4,1.8-0.9
			c0.2-0.2-0.5-0.6-0.3-0.6c1.6-0.1,3.2,0.4,4.8,0.3c0.3,0,0.2-0.8,0.5-0.8c0.5,0,0.8,0.5,1.3,0.6c0.5,0.1,1-0.2,1.5-0.2
			c2.2-0.1,3.7,0.3,5.6-0.7c1.6-0.8,2.8-2.2,4.2-3.3c1.3-1,3-1.1,4.4-1.8c2.2-1.1,4.3-2.5,6.5-3.5c0.7-0.3,2.7,0.1,2.3-0.6
			c-1-1.5-5-0.6-5.3-2.1c-0.1-0.7,2.1-1.3,1.4-1.7c-2.1-1.1-4.2,2.7-7.1,0.6c-0.8-0.6-2.1-0.9-2.4-1.9c-0.2-0.6,1.5,0.2,1.7-0.3
			c0.2-0.4-1.2-0.2-1.2-0.6c0-1,0.9-1.7,1.3-2.6c0.7-1.6,1.5-5,3.2-6.1c4.3-2.9,13.7-6.9,19.4-7.2c6-0.2-1.6,0.4,5.3,1.7
			c0.7,0.1,1.3-0.5,2-0.6c1.6-0.3,3.3,0.1,4.9-0.4c0.4-0.1,0.2-0.9,0.5-1c1.1-0.3,2.2-0.1,3.4,0c1.2,0,2.6,1,3.5,0.3
			c0.6-0.5-1.3-1.1-1.6-1.8c-0.6-1.1-1.6-2.5-1-3.7c0.4-0.8,1.7,0.2,2.5,0.4c0.9,0.1,1.8,0.4,2.7,0.5c1.2,0.1,2.4-5.7,3.8,0.5
			c0.5,2.3-4.6,1.3-2.8,2.9c0.2,0.1,5.6,1.8,5.3,2c-0.8,0.7-2.1-0.5-3.1-0.4c-0.5,0.1,0.9,0.3,1.3,0.6c1.1,0.8,2,1.8,3.1,2.5
			c0.6,0.4,3.9,0.5,5,0.7c0.9,0.1,2.9-0.3,2.6,0.6c-0.3,1-2.3-0.2-3,0.6c-0.4,0.5,0.4,1.5,1,1.8c0.8,0.4,1.7-0.1,2.6,0
			c0.6,0.1,1.1,0.3,1.7,0.4c1.1,0.1,2.2-0.1,3.3,0.2c1.1,0.3,2,1.2,3.2,1.4c0.3,0.1,0.8-0.6,0.6-0.9c-1.2-1.4-2.6-2.5-4.2-3.4
			c-1-0.5-2.2-0.1-3.2-0.5c-0.7-0.2-1.2-0.9-1.9-1.3c-1-0.5-2.2-0.6-3.1-1.2c-0.3-0.2,0.6-0.3,0.9-0.2c0.5,0.1,0.9,0.5,1.4,0.7
			c2.3,0.7,3.6,1.1,5.7,1.4c1,0.1,2.1,0.1,3.1,0c0.2,0,0.6,0,0.5-0.2c-1.7-1.7-3.9-3-5.4-4.9c-0.5-0.7,1.7,0.7,2.5,1.1
			c0.8,0.3,1.6,0.7,2.4,1.1c0.4,0.2,1.5,0.9,1.1,0.8c-0.2-0.1-5.5-2.8-5.4-3.3c0-0.1,5.3,1.6,5.4,1.6c0.6,0.2-1.2-0.5-1.7-0.8
			c-1.2-0.6-2.5-0.9-3.7-1.6c-0.6-0.4,1.4,0.6,2.2,0.6c0.5,0-2.1-0.6-1.6-0.6c7,0.8,4.4,1.5,10.1,2.5c0.6,0.1-2.2-0.9-1.6-0.8
			c3.1,0.5,7,2.6,10.2,4c0.2,0.1-0.9-0.5-0.7-0.4c3.3,1.5,6.3,3.3,9.4,4.9c3.1,1.6,7.2,3.8,10.5,6c3.4,2.2,7.6,5.9,10.9,7.6l4.5,3.6
			l6.4,5.1l7.1,6.7l6.7,7l7.1,8.3l6.5,8.2l4.3,6.6l4.5,7l3.7,6.5l4.2,7.2l3.3,6.8l1.4,4.9l1.9,3.9c-0.5,0.1-1.5-0.1-1.5,0.4
			c0,1,1,1.8,1.4,2.7c1.5,3.4,1.9,5.6,2.5,9.4c0,0.3-0.2-1.2-0.2-0.9c-0.7,4.6,0.4,1.2,0.4,5c0,1-0.6,2-0.5,3
			c0.2,1.8,1.2,3.8,1.5,5.4c1,4.5,1.6,9.2,2.1,13.8c0.2,1.9,1.1,7.6,0.6,9.4c-0.3,0.9-1,1.7-1.1,2.6c-0.1,1,0.4,1.9,0.5,2.9
			c0.7,4.7-0.3,6.5-1,10.7c-0.1,0.7,0,1.5-0.3,2.1c-0.2,0.4-0.8,0.4-1.1,0.8c-1.9,2.6-1.4,4.1-1.5,7.2c0,0.6-0.7,1.5-0.2,1.8
			c1.8,1.2,3.6-5,4.1-5.6c0.4-0.6,1.6-0.7,1.7-1.4c0.1-0.7-1.3-1.2-1.1-1.9c0.1-0.6,1.4-0.3,1.7-0.9c0.2-0.5,0.1-8.1-0.1-8.7
			c-0.2-1.1-0.5-2.2-0.8-3.3c-0.1-0.3-0.4-0.5-0.3-0.8c0.2-1.6,0.9-3.1,1-4.6c0.2-1.7-0.8-6.7,0.4-7.9c0.4-0.4,0.4,1.1,0.6,1.7
			c0.6,2,1.2,3.9,1.6,5.9c1,5.3,1.1,10.8,1.2,16.2c0.2,8.5-0.3,16.9-1.4,25.4c-0.3,2.3-0.4,4.9-1.1,7.1c-0.3,0.9-1,1.6-1.4,2.4
			c-0.4,1-0.6,2-1.1,2.9c-0.2,0.4-0.6,0.8-0.8,1.2c-0.6,1.3-0.9,3.2-1.9,4.5c-1.1,1.4-2.3,2.7-3.6,3.9c-0.2,0.2-0.7,0.2-0.9,0.4
			c-1.6,1.4-3.2,2.8-4.5,4.4c-0.4,0.5,0,2-0.7,2c-0.7,0-0.6-2.7-0.9-2.1l-3.1,0.9c0.1-2.6-1-4.2-0.2-2c-0.2-0.7-0.8-1.3-1.1-2
			c-0.5-1.2-0.3-2.9-1.3-3.8c-0.5-0.5-1.4-0.5-2-0.9c-0.5-0.3-1-1.5-1.5-1.1c-0.6,0.5,0.2,1.6,0,2.3c-0.2,0.7-1,1-1.1,1.7
			c-1.3,6.3,1.7-1.5-0.8,6.1c-0.5,1.7-2.3,2.8-3.4,4.2c-1.2,1.6,0,2.3-0.6,4.6c-0.1,0.6-0.8,0.9-1.2,1.4c-1,1.5-1.4,3.5-2.8,4.5
			c-0.8,0.6,1.8-3,0.8-3c-1.1,0-0.8,2.1-1.5,3c-0.3,0.3,0.6-1.3,0.2-1.3c-0.7,0-0.8,1.3-1.5,1.3c-0.6,0-0.5-1.2-1.1-1.3
			c-0.5-0.1-0.5,0.9-1,1c-1,0.2-2.2,0.6-3,0c-0.6-0.4-0.2-1.5,0.1-2.2c0.2-0.7,1-1.2,1.2-2c0.1-0.3-0.3-0.6-0.2-0.8
			c0.5-1.2,1.8-2.1,2-3.3c0.2-0.8-0.8-1.6-0.8-2.4c0-0.4,0.4-0.8,0.6-1.2c0.4-0.8,0.9-1.5,1.2-2.4c0.7-1.7,0.1-3.5,0.3-5.3
			c0.3-2.3,1.3-3.7,1.9-5.9c0.1-0.3-0.2-0.6-0.1-0.8c0.2-0.3,0.9-0.2,1.1-0.5c0.4-0.6,0.3-1.5,0.8-2.1c0.3-0.4,0.9-0.3,1.2-0.7
			c0.4-0.5,0.3-1.2,0.5-1.7c1.2-2.6,0.8,0.4,1.8-3.5c0.3-1,0.1-2.1,0.4-3.1c0.2-0.7,0.7-1.3,0.9-1.9c0.3-0.9-0.1-5.2-0.8-5.4
			c-0.6-0.2-1.4-0.1-2,0.2c-0.5,0.3-0.8,0.9-1.2,1.4c-2.8,4,0.3,0.9-4.8,6.2c-0.2,0.3-0.5,0.5-0.9,0.6c-3.8,0.6,1.1-1.6-2.6-3.1
			c-0.8-0.3-1.3,1.9-2.1,1.6c-0.7-0.3,0.7-1.5,0.7-2.2c0-0.9,0.3-2.8-0.6-2.6c-1,0.3-0.6,2-0.8,3c-0.2,1.1-0.3,2.3-0.3,3.4
			c0,0.3,0.4,0.6,0.3,0.9c-0.1,0.9-0.7,1.6-0.8,2.5c-0.1,1-0.5,2.3,0.1,3.1c1.7,2,2.4-2.9,3.4,0.8c0.2,0.6-0.4,1.2-0.4,1.8
			c-0.2,1.4,0.2,3.1-0.8,3c-1-0.1-2.2-0.1-2.9-0.8c-0.4-0.4,0.7-2.2,0.2-1.7c-1.6,1.6-1.7,6.9-5.1,3.6c-0.4-0.4,1.3-0.1,1.6,0.4
			c0.2,0.4-0.7,0.6-0.8,1c-0.2,0.6-0.3,1.3-0.1,2c0.2,0.8,0.7,1.5,1,2.2C322.9,241,323.4,242.5,323.4,242.5"/>
	</g>
	<g>
		<path class="st2" d="M353.8,179.9c1,2.7,1.8,5.9,0.9,8.7c-0.3,0.9-1,1.6-1.3,2.5c-0.7,1.9,0.3,3.7-2.2,3.4
			c-2.9-0.4-1.1-3.6-3.1-5.4c-0.6-0.6-0.5,1.7-1,2.3c-0.7,0.9-1.8,1.4-2.6,2.1c-0.7,0.6-1.1,1.7-1.9,2c-0.9,0.3-1.9-1-2.7-0.6
			c-0.9,0.4-0.8,2.4-1.8,2.4c-0.9,0-0.7-1.7-1.3-2.4c-0.3-0.3-1,0-1.3-0.4c-0.2-0.2,0.5-0.3,0.6-0.6c0.1-1.1,0-2.1-0.3-3.1
			c-0.2-0.6-0.8-1.1-1.2-1.7c-0.5-0.8-0.2-1-0.4-1.9c-1.1-4.2-1.8-2.9-0.2-6.4c0.4-0.8,0.5-1.9,1.3-2.4c3.9-2.5,1.7,3.9,2.2,5.3
			c0.4,1.1,0.9,2.2,1.4,3.3c0,0.1,0.1,0.4,0.2,0.3c6.9-7.6-7.4,6.1,3.4-2.3c0.3-0.2-0.1-0.8,0.1-1.2c0.3-1,0.3-2.2,1-2.8
			c0.6-0.5,1.5,0.5,2.2,0.1c0.3-0.2-0.6-0.5-0.8-0.9c-0.2-0.5-0.3-1.2-0.2-1.7c0.1-0.4,0.7-0.5,0.9-0.8c0.5-0.6,0.6-1.8,1.3-1.9
			c0.5-0.1,0,1.1,0.3,1.6c0.1,0.2,0.4-0.5,0.4-0.4c0.5,1.6-0.6,3.5,0.4,5c0.3,0.4,1.2-0.1,1.4-0.6c0.2-0.6-0.5-1.2-0.4-1.8
			c0.1-0.3,0.7-0.5,0.9-0.3c0.3,0.5-0.2,1.1,0,1.6c0.1,0.2,0.5,0.4,0.6,0.2c0.4-0.7-0.2-2,0.5-2.3
			C351.9,178.6,353.8,179.9,353.8,179.9z"/>
		<path class="st2" d="M216.9,118.4c-1.2-0.4-2.3-0.8-3.5-1.1c-0.1,0,0.1,0.2,0.2,0.3c1.1,0.6,2.6,0.8,3.3,1.8
			c0.6,0.8-0.7,2.6,0.3,3c1.2,0.4,3.6-3.9,2.7-4.5c-0.6-0.4-0.4,1.9-1.1,2C218.1,120,216.9,118.4,216.9,118.4z"/>
		<path class="st2" d="M74.6,172.1c0.9,1.1,1.7,2.3,2.7,3.4c0.1,0.1,0.3,0.2,0.3,0.1c0.2-1.2,0.2-2.4,0.2-3.6c0-0.7,0-1.3-0.1-2
			c0-0.3-0.2-1.2-0.1-0.9c0.8,1.9,1.3,3.9,2.1,5.8c0.3,0.9,1.3,1.6,1.2,2.6c0,0.5-1.3-0.7-1.4-0.2c-0.4,1.2,1.1,2.7,0.4,3.8
			c-0.6,0.8-2.1,0.3-3.1,0.2c-0.7-0.1,0.4-1.7-0.6-3.5c-0.2-0.3-0.6,0.7-1,0.5c-0.8-0.4-2.2-1.2-1.8-2c0.4-0.8,1.9,0.9,2.6,0.4
			c0.5-0.3-0.8-0.8-0.9-1.4C74.9,174.3,74.6,172.1,74.6,172.1z"/>
		<path class="st2" d="M113.8,253.3c-0.2-1.3-0.5-4-0.5-4S113.7,252,113.8,253.3L113.8,253.3z"/>
		<path class="st2" d="M278.2,222.3c-0.4-1-0.6-2.1-1.2-3c-0.3-0.5-0.9,0.7-3.8,1.6c-0.6,0.2,1.2-0.9-0.6-1.3
			c-1-0.2-2.1,0.1-3.1-0.1c-0.2,0,0.2-0.4,0.4-0.4c0.3-0.1,0.7,0.2,1,0.2c1.1-0.1,2.1-0.7,3.1-0.5c0.4,0.1-1.1,1.1-0.7,1
			c3.6-0.5,2.5-1.1,2.6-3.5c0-0.2,0,0.6,0.2,0.7c0.4,0.3,1.3,0,1.5,0.5C278.1,218.9,278.2,222.3,278.2,222.3z"/>
		<path class="st2" d="M270.2,222c5.2,1.1,1.1,2.1,5.2,3.9c0.5,0.2,1.3-0.8,1.7-0.3c0.3,0.4-0.4,1.1-0.9,1.3
			c-0.6,0.3-1.4-0.9-1.7-1.1C273.1,224.4,271.6,223.2,270.2,222z"/>
		<path class="st2" d="M62.6,190.3c0.1-1.4-0.2-2.9,0.2-4.3c0.2-0.7-0.1,1.7,0.4,2.3c0.6,0.8,1.4,1.8,2.4,1.8c0.8,0,0.9-1.8,1.6-1.7
			c0.7,0.1,0.2,1.4,0.1,2c-0.5,2.4-2.1-0.5-0.4,3.7c1.1,2.6,1.4-0.7,2.9,1.7c0.6,1,0.7,2.2,0.8,3.3c0,0.2-0.2,0.7-0.3,0.6
			c-2-1.8-4-3.7-5.5-6C64,192.7,63.4,191.5,62.6,190.3z"/>
		<path class="st2" d="M277.8,207c0.3-0.1,6.5-1.5,6.9-1.1c0.7,0.6-0.5,1.9-0.5,2.9c0,0.4,0.8-1.1,0.4-1.1c-1.6-0.1-3.2,1.5-4.7,0.9
			c-0.8-0.3,1.1-2,0.4-2.5C279.7,205.6,277.8,207,277.8,207z"/>
		<path class="st2" d="M63.3,184.8c-0.2-1.3-0.5-4-0.5-4S63.1,183.5,63.3,184.8L63.3,184.8z"/>
		<path class="st2" d="M278.9,215.6c4-1.1,6.5-3.8,6.3,1.6c0,0.9-1.7,0.6-2,0.7c-1.1,0.2-2.4,1.1-3.4,0.6
			C278.9,217.9,278.9,215.6,278.9,215.6z"/>
		<path class="st2" d="M60.6,155.5c-0.1,0.2-0.4,0.6-0.4,0.6S60.4,155.7,60.6,155.5L60.6,155.5z"/>
		<path class="st2" d="M73.8,115.1c0.2-1.2,0.4-2.4,0.7-3.5c0.1-0.2,0.6-0.6,0.5-0.4C74.8,112.5,73.8,115.1,73.8,115.1z"/>
		<path class="st2" d="M57.8,199.8c1.4,2.9,2.8,5.7,4.1,8.6c0.2,0.4,0.5,1.6,0.3,1.2C59.7,203.4,60.5,204.3,57.8,199.8z"/>
		<path class="st2" d="M267.6,250c0,1.6,1.1,3.6,0,4.9c-0.8,0.9-1.3-2.1-1.3-3.3C266.3,250.9,267.6,250,267.6,250z"/>
		<path class="st2" d="M297,167c-0.6-0.3-1.3-0.4-1.7-0.9c-0.2-0.3,0.7-0.2,1-0.1c0.3,0.1,0.3,0.5,0.6,0.6c4.1,0.6,2.7,0.4,5.3-0.6
			c0.3-0.1-0.6,0.2-0.7,0.4c-0.8,0.8-1,2.5-2.1,2.6C298.4,169.1,297,167,297,167z"/>
		<path class="st2" d="M293.2,205.4c1.1-0.2,3.1-1.5,3.2-0.5c0.1,1.4-1.7,2.4-3,2.8c-0.6,0.2-1.3-0.8-1.3-1.5
			C292.1,205.8,292.9,205.7,293.2,205.4C293.3,205.4,293.2,205.4,293.2,205.4z"/>
		<path class="st2" d="M305.2,172.3c-1.2-1.1-3.6-5.8-1.7-3.1C304.2,170.2,304.7,171.3,305.2,172.3z"/>
		<path class="st2" d="M300.3,196.9c0-0.6-0.1-1.8-0.1-1.8S300.3,196.3,300.3,196.9L300.3,196.9z"/>
		<path class="st2" d="M56.4,219.2c1.4-0.1,2.8-0.4,4.1-0.4c0.5,0,1.9,0.3,1.4,0.4C60.1,219.4,56.4,219.2,56.4,219.2z"/>
		<path class="st2" d="M49.8,172.5c-0.5,1.8-0.5,3.9-1.5,5.5c-0.5,0.7,0.4-2.1-0.3-2.6c-0.6-0.4-2.1,1.8-1.7,1.2
			C47.3,175,48.7,173.8,49.8,172.5z"/>
		<path class="st2" d="M263.6,76.7c-0.2-0.7-0.9-1.4-0.7-2.1c0.6-1.6,3.1-3.9,4.8-4.8c0.2-0.1-0.4,0.4-0.5,0.6
			c-0.1,0.2,0.1,0.5,0,0.7c-1.2,1.8-3.1,3.2-3.9,5.2c-0.3,0.8,1.5-1.8,2.3-1.4c0.8,0.5,0.8,2.2,0.1,2.8
			C265.1,78.2,264.3,77,263.6,76.7C263.6,76.7,263.6,76.7,263.6,76.7z"/>
		<path class="st2" d="M284.6,93.1c-1.1-0.5-3.9-0.5-3.2-1.5c0.9-1.4,3.2-1.1,4.8-0.9c0.6,0.1-0.8,0.8-1.1,1.3
			C284.8,92.3,284.6,93.1,284.6,93.1z"/>
		<path class="st2" d="M311.4,185.1c0.6-0.6,0.9-1.8,1.7-1.7c0.9,0.1,0.8,2.1,1.8,2.1c0.7,0,1.1-2,0.4-2c-1.5,0-2.5,1.8-4,2
			c-2.7,0.3-2-4.2-2-4.9c-0.1-0.9-0.7-3.7-0.5-2.8c0.4,1.4,0.4,2.9,0.9,4.3C310,183.2,310.8,184.1,311.4,185.1z"/>
		<path class="st2" d="M298.9,111.2c-1.2-0.7-2.4-1.3-3.5-2c-0.4-0.3-1.4-1.3-1-1C296,109.1,297.4,110.2,298.9,111.2
			C298.9,111.2,298.9,111.2,298.9,111.2z"/>
		<path class="st2" d="M109.2,289.1c0.5,1.1,1.6,2,1.7,3.2c0,0.7-5.1-0.7-5.1-0.8c-0.4-1.3-0.5-2.7-0.6-4.1
			c-0.1-0.6-0.5-2.1,0.1-1.9C106.8,286.3,109.2,289.1,109.2,289.1z"/>
		<path class="st2" d="M54.3,228.8c-0.6,1.1-0.4,3.4-1.7,3.3c-1.2-0.1-1.4-2.4-0.8-3.5C52.2,227.9,54.3,228.8,54.3,228.8z"/>
		<path class="st2" d="M251.7,65.9c1.9-1.2,3.8-2.7,5.8-3.7c0.8-0.4,4.4,1,5,1.1c1.1,0.2,2.2,0,3.2,0.2c0.9,0.2,3.3,1.9,3.8,2.4
			c0.2,0.2,0.9,0.9,0.5,0.9c-0.7-0.2-1.3-0.9-1.9-1.2c-0.6-0.3-1.2-0.6-1.9-0.7c-0.7-0.1-1.4,0-2-0.1c-0.5-0.1-1-0.5-1.5-0.5
			c-0.5,0-0.9,0.3-1.4,0.3c-4.2-0.1,0.6-0.7-4-0.4c-1.4,0.1-2.7,0.6-4,1C252.7,65.4,252.2,65.7,251.7,65.9
			C251.6,66,251.7,65.9,251.7,65.9z"/>
		<path class="st2" d="M51.6,229.7c-0.3-0.3-1-1-1-1S51.3,229.4,51.6,229.7L51.6,229.7z"/>
		<path class="st2" d="M53.3,234.2c5.3-2.2,2.8-0.5,1.4,1.5c-1.1,1.5-1.5,3.3-2.5,4.9c-0.4,0.7-0.7,1.7-1.5,1.9
			c-0.5,0.2-1.3-0.7-1.1-1.1c0.5-0.8,2.1-0.4,2.5-1.3c0.4-0.8-0.8-1.8-0.6-2.7C51.8,236.1,53.3,234.2,53.3,234.2z"/>
		<path class="st2" d="M98,292.2c-0.8-0.5-2.4-1.6-2.4-1.6S97.2,291.6,98,292.2L98,292.2z"/>
		<path class="st2" d="M50,234.5c-0.4,1.4-0.6,3.1-1.3,4.3c-0.2,0.3-1-0.1-1.1-0.4c-0.1-0.5,0.5-0.9,0.7-1.4
			C48.8,236.1,50,234.5,50,234.5z"/>
		<path class="st2" d="M309.9,232.5c0.5,0.3,1.6,0.8,1.6,0.8S310.4,232.7,309.9,232.5z"/>
		<path class="st2" d="M88.4,286.4c-1.2,0-2.4,0.2-3.6,0c-0.2,0,0.3-0.5,0.6-0.5C86.3,285.9,88.4,286.4,88.4,286.4z"/>
		<path class="st2" d="M291,84.2c0.7,0,1.5,0.3,2.1,0C293.6,83.8,291.7,84.2,291,84.2C291,84.2,291,84.2,291,84.2z"/>
		<path class="st2" d="M327.4,200.3c-2.5-1.9-5.3-3.4-7.4-5.7c-0.7-0.8-1.8-2.8-0.8-3c1-0.3,0.2,2.4,1.1,3c0.9,0.6,2.4-0.8,3.4-0.1
			c0.7,0.4-0.2,1.6,0,2.4c0.1,0.3,0.5,0.3,0.7,0.5C325.4,198.2,326.4,199.3,327.4,200.3z"/>
		<path class="st2" d="M310.3,99.4c-0.9,0.5-2,0.8-2.8,1.6c-0.4,0.4,0.1,1.5-0.4,1.7c-0.5,0.2-1.5-0.9-1.1-1.2
			c1-0.5,2.4,0.5,3.4-0.1C311.1,100.7,310.7,100.1,310.3,99.4z"/>
		<path class="st2" d="M324.4,202.2c0.6,0.2,1.5,0,1.9,0.5c0.9,1.2,1,2.9,1.8,4.2c0.1,0.2,0.3-0.5,0.3-0.8c-0.2-0.5-0.5-1-0.9-1.4
			C326.5,203.9,324.4,202.2,324.4,202.2z"/>
		<path class="st2" d="M314.4,232.1c2.3-2.3,4.9-7.8,9.2-6.8c1.2,0.3-0.5,1.3-0.5,2.2c0,1.1,0.6,2.2,0.7,3.3c0,0.6-0.1,2.2-0.3,1.7
			c-4-11,2.6,3.3-0.2-6c-0.3-1.1-1.2-2.2-2.1-1.4c-0.4,0.4-0.5,1-0.9,1.4C318.4,228.4,316.4,230.2,314.4,232.1z"/>
		<path class="st2" d="M39.4,230.2c0.1,0.6,0.7,1.6,0.1,1.9c-0.5,0.3-0.2-1.2-0.3-1.8C39.3,230.2,39.4,230.2,39.4,230.2z"/>
		<path class="st2" d="M324.9,122.7c-0.9-1.6-2-3.1-2.8-4.7c-0.3-0.5-0.2-1.2-0.4-1.7c-0.5-1.3-0.9-2.6-1.6-3.8
			c-0.3-0.6-1.7-2.3-1.3-1.7c1,1.8,2,3.6,3.3,5.2c1.7,2.2,4.3,4,5.4,6.6C327.8,123.3,324.5,121.9,324.9,122.7z"/>
		<path class="st2" d="M38.9,237.6c-0.7,1-1.3,2-2.2,2.9c-0.3,0.2-1.3,0.4-1.1,0.2C36.5,239.5,37.8,238.6,38.9,237.6z"/>
		<path class="st2" d="M59.7,284.9c-0.5-1.2-1.1-2.4-1.6-3.7c-0.1-0.2-0.5-0.6-0.3-0.7c0.8-0.8,2.4-0.7,2.8-1.7c0-0.1-1.5-3.6-2-3.9
			c-0.9-0.5-2.1-1-3.2-0.7c-1.4,0.4-3.3,5.5-6,1.8c-2.2-3,3.5-3.9,4-4.6c0.3-0.4-1.7-0.7-1.3-1c3.5-1.7,4.6,2.6,7.9,2.8
			c1,0.1-1.5-1.5-2.1-2.4c-1.2-2-1.2-4.8-3.1-6.3c-0.3-0.2-0.8-0.2-1-0.5c-0.9-1.6-1.8-3.3-2.2-5.1c-0.1-0.5,0.8,0.6,1.2,0.9
			c0.6,0.5,1.1,1.1,1.8,1.5c0.9,0.5,2,0.5,2.9,1c1.7,0.8,2.4,3.1,2.9,4.9c0.2,0.7-0.2,1.5-0.2,2.2c0,1.6,0.1,3.3,0.2,4.9
			c0.4,4.5,4.2,7.9,6,12c0.2,0.4,0.5,1.5,0.1,1.3c-1.1-0.4-1.9-1.3-2.5-2.3c-0.4-0.7-0.3-1.6-0.5-2.4c-0.1-0.3,0.3,0.7,0.1,0.9
			c-0.7,0.8-1.6,1.7-2.7,2C60.7,286,59.7,284.9,59.7,284.9z"/>
		<path class="st2" d="M337.4,156.1c1,2.3,2.2,4.5,3.1,6.9c0.2,0.6,0.5,1.5,0.1,1.9c-1.3,1.2-4.5-0.5-5-1.6
			c-1.2-2.2-1.6-4.8-2.2-7.3c0-0.1,0.2,0.2,0.4,0.2C334.9,156.3,337.4,156.1,337.4,156.1z"/>
		<path class="st2" d="M74.1,295.5c-0.6,0.3-1,0.9-1.7,1c-1.6,0.2-5.4-4.7-5.2-5.9c0.1-0.6,0.9,0.8,1.4,1.2
			C70.4,293,74.1,295.5,74.1,295.5z"/>
		<path class="st2" d="M60.5,287.4c2,1.6,4.3,2.7,5.9,4.7c0.5,0.6-1.7-0.1-2.4-0.4c-0.5-0.2-0.9-0.5-1.3-0.8c-1.6-1-4.8-3.8-5.3-4.4
			c-2.3-3,1.5-1.4,1.6-1.4c0.5,0-0.8-0.4-1.3-0.4c-0.1,0-0.3,0.2-0.2,0.2C58.3,285.8,60.5,287.4,60.5,287.4z"/>
		<path class="st2" d="M341,239.5c-0.4,0.1-1.1,0.2-1.1,0.2S340.7,239.5,341,239.5L341,239.5z"/>
		<path class="st2" d="M357.9,252.2c0.3,2.9-0.1,3.4-0.7,6.5c0,0.2,0-0.4,0-0.6c0.3-1.5,0.8-2.9,1-4.4
			C358.3,253.1,357.9,252.2,357.9,252.2z"/>
		<path class="st2" d="M366.4,242.9c0.5-1.7,0.3-0.9,0.1-0.5"/>
	</g>
	<g>
		<path class="st3" d="M83.7,39.5c29,42.3,58.6,84.2,88,126.2"/>
		<path class="st3" d="M49.7,70.4c4.7,1.8,8.7,4.9,12.8,7.8c5.8,4.3,11.6,8.6,17.3,13c17.5,13.5,34.7,27.4,51.9,41.4
			c9.5,7.8,19,15.6,28.5,23.5c2.3,1.9,4.6,3.8,6.9,5.7c0.8,0.6,1.5,1.3,2.3,1.9c0.8,0.6,2.3,1.9,2.3,1.9"/>
		<path class="st3" d="M24.3,108.9c1.4-0.2,2.7-0.5,4.1-0.5c2.6-0.1,5.9,1.2,8.4,1.9c6.4,1.8,12.7,4,18.9,6.3
			c23.2,8.4,45.9,18,68.5,27.8c10.5,4.5,20.9,9.2,31.3,13.9c3.6,1.6,7.3,3.3,10.9,4.9c0.9,0.4,1.8,0.8,2.7,1.3
			c0.9,0.4,2.8,1.3,2.8,1.3"/>
		<path class="st3" d="M9.2,153c2.4-1,4.8-2.3,7.4-3.1c2.2-0.7,6.5-0.5,8.9-0.6c7.4-0.2,14.8,0.2,22.2,0.6c24.1,1.5,48.1,4.5,72,7.8
			c11.4,1.6,22.8,3.3,34.2,5.1c4,0.6,7.9,1.3,11.9,1.9c1,0.2,2,0.3,3,0.5c1,0.2,3,0.5,3,0.5"/>
		<path class="st3" d="M5.6,199.9c4.2-2.9,6.7-5.7,12.7-8.6c2.1-1,6.4-2.1,8.9-2.9c6.5-1.9,13.2-3.5,19.8-4.9
			c22.8-5,46-8.5,69.1-11.5c12.5-1.6,25-3.1,37.5-4.4c4-0.4,8-0.8,12-1.2c1-0.1,2-0.2,3-0.3c1-0.1,3-0.3,3-0.3"/>
		<path class="st3" d="M14.2,246.7c0.4-1.4,0.7-2.3,1.3-3.7c0.3-0.7,1.1-1.5,1.6-2c9.9-8.5,17.2-13.3,28.3-20.2
			c5.6-3.5,16.3-8.7,22.7-11.7c17.6-8.5,35.5-16.4,53.6-23.9c10.9-4.5,21.9-8.9,32.9-13.1c3.8-1.5,7.6-2.9,11.4-4.3
			c1-0.4,1.9-0.7,2.9-1.1c1-0.4,2.9-1.1,2.9-1.1"/>
		<path class="st3" d="M34.8,290.3c-0.1-1.3-0.4-2.6-0.3-3.9c0.3-4,7.3-12.2,9.8-15.3c10.8-12.9,23.8-24.7,36.7-35.5
			c6.2-5.3,12.3-10.7,18.8-15.7c13.3-10.4,26.6-20.7,40-31c0.8-0.6,1.6-1.2,2.4-1.8c9.9-7.2,19.6-14.3,29.6-21.3"/>
		<path class="st3" d="M66.3,327.4c-0.4-1.7-1.2-4.5-0.9-6.2c0.8-6,3.2-9.9,4.7-13.1c4.6-9.9,10.3-19.3,16.1-28.5
			c25.3-40.1,55.1-77.6,85.6-113.8"/>
		<path class="st3" d="M106.8,355c-0.6-1.2-1.5-3.3-1.7-3.7c-0.9-2.5-0.3-7.2,0.1-9.7c1.1-7.6,3.1-15.1,5.2-22.5
			c9.5-33.5,22.8-66,36.4-97.9c5.1-12,10.5-24,15.9-35.9c2.1-4.7,4.3-9.3,6.4-13.9c0.4-0.9,0.9-1.8,1.3-2.8c0.4-0.9,1.3-2.8,1.3-2.8
			"/>
		<path class="st3" d="M153.4,371.1c-1-2-1.8-3.9-2.7-6c-0.9-2.4-1.3-7.6-1.4-10.4c-0.3-8.6,0.1-17.2,0.5-25.8
			c1.8-32.5,6.1-64.9,10.9-97.1c2.2-15,4.6-30,7.2-44.9c0.9-5,1.8-10.1,2.7-15.1c0.2-1,0.4-2,0.5-3c0.2-1,0.5-3,0.5-3"/>
		<path class="st3" d="M202.8,374.2c-1.2-2.1-2.2-4-3.3-6.1c-1.5-3-3-9.3-3.8-12.9c-2.1-9.2-3.7-18.4-5.2-27.7
			c-5-30.5-8.8-61.3-12.1-92.1c-1.6-15.1-3.1-30.2-4.5-45.4c-0.5-5.1-0.9-10.2-1.3-15.3c-0.2-2-0.3-4.1-0.5-6.1c-0.1-1-0.2-3-0.2-3"
			/>
		<path class="st3" d="M251.3,364.1c-2.1-3.5-4.3-7-6.3-10.6c-2.8-4.8-4.7-10.4-6.9-15.4c-4.1-9.4-8-18.9-11.8-28.4
			c-10.5-25.9-20.5-51.9-30.3-78.1c-5.4-14.3-10.7-28.6-15.9-42.9c-1.8-4.8-3.5-9.6-5.2-14.4c-0.7-1.9-1.4-3.8-2.1-5.7
			c-0.3-0.9-1-2.9-1-2.9"/>
		<path class="st3" d="M295.4,341.4c-41.4-58.4-82.5-117-123.6-175.6"/>
		<path class="st3" d="M331.8,307.7c-3.6-4.1-7.2-8.2-10.9-12.2c-4.2-4.7-9.3-8.8-14-13.1c-8.2-7.5-16.5-14.9-24.9-22.3
			c-18-15.9-36.1-31.6-54.4-47.2c-12.3-10.5-24.7-21-37.2-31.5c-3.9-3.3-7.8-6.6-11.8-9.8c-1.6-1.3-3.1-2.6-4.7-3.9
			c-0.8-0.6-2.3-1.9-2.3-1.9"/>
		<path class="st3" d="M358,265.6c-1.6-1.8-2.7-2.9-4.4-4.7c-2.5-2.6-8.3-6.5-11.3-8.4c-8-5-16.2-9.7-24.4-14.3
			c-27.1-15.1-54.8-29-82.7-42.6c-13.7-6.7-27.4-13.2-41.1-19.7c-4.6-2.2-9.3-4.3-13.9-6.5c-1.8-0.9-3.7-1.7-5.5-2.6
			c-0.9-0.4-2.8-1.3-2.8-1.3"/>
		<path class="st3" d="M371.9,218.1c-1.6-1.6-3.1-3-4.9-4.5c-2-1.7-6.8-3.7-9.5-4.8c-8.6-3.4-17.5-6.1-26.3-8.7
			c-30.8-8.9-62.2-15.9-93.6-22.2c-14.9-3-29.8-5.9-44.7-8.5c-5-0.9-10.1-1.8-15.1-2.7c-1-0.2-2-0.3-3-0.5c-1-0.2-3-0.5-3-0.5"/>
		<path class="st3" d="M372.7,168.8c-1.6-1.3-3-2.2-4.7-3.3c-1.9-1.2-7.1-2.6-9.6-3.1c-8.1-1.4-16.3-2.1-24.6-2.6
			c-32.8-2-65.8-0.7-98.6,1.1c-14.1,0.8-28.1,1.7-42.2,2.9c-5.1,0.4-10.2,0.9-15.3,1.3c-1,0.1-2,0.2-3,0.3c-1,0.1-3,0.3-3,0.3"/>
		<path class="st3" d="M360.6,121.2c-1.5-0.9-2.5-1.6-4.1-2.3c-2.1-1-6.8-1.1-9.3-1.1c-8.8,0.2-17.6,1.7-26.3,3.4
			c-32.1,6.1-63.7,15.6-94.7,25.7c-12.4,4-24.8,8.2-37.1,12.6c-3.9,1.4-7.7,2.7-11.5,4.1c-1,0.3-1.9,0.7-2.9,1.1
			c-1,0.4-2.9,1.1-2.9,1.1"/>
		<path class="st3" d="M336.5,78.9c-1.3-0.5-2.5-1.3-3.8-1.6c-2.3-0.6-5.8,0.5-8,1c-8,1.8-15.7,5.3-23,8.7
			c-17.9,8.2-35.3,17.9-52.2,28.1c-14.3,8.7-28.8,17.4-42.6,26.8c-11.7,7.9-23.4,15.9-35.1,23.9"/>
		<path class="st3" d="M302.5,44.6c-1.6-0.1-3.1-0.4-4.7-0.3c-0.7,0-4.4,1.6-4.8,1.9c-10.6,7.9-21,16-31.5,24.1
			c-6.6,5.1-14,13.1-20,19c-11.9,11.6-23.2,23.8-34.4,36c-8,8.7-15.8,17.6-23.5,26.5c-2.7,3.1-5.3,6.2-7.9,9.2
			c-0.7,0.8-1.3,1.6-2,2.3c-0.7,0.8-2,2.3-2,2.3"/>
		<path class="st3" d="M261.3,20.5c-1.1,0.2-2.9,0.5-3.8,1.2c-8.5,6.5-13.9,13.9-19.8,22.6c-16.4,24.2-30.3,50.2-43.7,76.2
			c-4.9,9.6-9.7,19.2-14.4,28.8c-1.8,3.6-3.5,7.3-5.3,10.9c-0.4,0.9-0.9,1.8-1.3,2.8c-0.4,0.9-1.3,2.8-1.3,2.8"/>
		<path class="st3" d="M215.9,7.9c-1.4,1.2-1.6,0.8-4.2,3.9c-2.8,3.5-3.4,6-4.4,8.4c-2.7,6.5-4.9,13.2-7,20
			c-7.4,24.2-13.1,49-18.4,73.8c-2.4,11.3-4.7,22.6-6.9,33.9c-0.8,3.9-1.5,7.9-2.2,11.8c-0.2,1-0.4,2-0.6,3c-0.2,1-0.5,3-0.5,3"/>
		<path class="st3" d="M169.3,7.2c-0.7,1.2-1,2.1-1.5,3.4c-1,2.5-1.4,6.4-1.6,9c-0.6,6.6-0.7,13.3-0.7,20
			c-0.1,24.7,1.1,49.4,2.6,74.1c0.7,11.4,1.5,22.8,2.3,34.2c0.3,4,0.6,8,0.9,11.9c0.1,1,0.2,2,0.2,3c0.1,1,0.2,3,0.2,3"/>
		<path class="st3" d="M124.4,18c-0.1,5.1,1.4,10,2.7,14.9c1.7,5.9,3.4,11.8,5.3,17.7c6.9,22.2,14.4,44.2,22,66.2
			c3.7,10.7,7.5,21.4,11.3,32.1c1.3,3.7,2.7,7.5,4,11.2c0.3,0.9,0.7,1.9,1,2.8c0.3,0.9,1,2.8,1,2.8"/>
		<path class="st3" d="M84.3,40.4c-6.3,4.5-8.7,6.5-15.5,12.2C58.7,61,48.2,73.2,40.5,84C6.8,131.8-1.6,194.6,19.1,249.4
			c2,5.4,4.3,10.7,6.9,15.8c1.8,3.4,3.5,6.9,5.5,10.2c7.9,13,15.6,23.7,26.3,34.6c2.7,2.8,5.6,5.4,8.4,8.1
			c7.9,7.3,16.7,13.7,25.9,19.3c42,25.7,93.9,32.6,141.2,19.2c11.6-3.3,23.3-7.5,33.8-13.3c4.4-2.4,8.8-4.9,13.2-7.5
			c9.9-5.8,18.5-12.5,26.5-20.3c22.7-22,38.7-45.3,48.7-75.4c6.9-20.8,10-42.9,8.9-64.8c-1.1-22.6-6.6-44.9-16.1-65.4
			c-9.2-19.8-19-29.7-34.6-49.9c-2.9-3.7-9-8.5-12.8-11.7c-8.8-7.4-18.4-13.8-28.5-19.3C229.7,5.9,178.3,1.4,132.1,16.5
			C114.9,22,99.3,30.4,84.3,40.4"/>
		<path class="st3" d="M91.9,51.5c-8.3,6.2-10.2,7.9-17.4,14.1C67.6,71.6,60.2,80.5,54.8,88c-30.3,41.7-38.5,96.9-20.9,145.4
			c2.9,8,8.8,20.7,13.1,27.4c12.5,19.6,18.3,25.9,33.2,38.6c37.6,31.8,90.1,43,137.6,31.2c11.9-3,23.9-7.2,34.7-13.1
			c3.1-1.7,6.2-3.4,9.3-5.2c9.2-5.4,15.8-10.4,25.5-19.1c5.1-4.7,10.1-10.1,14.6-15.4c13-15.5,22.9-33.8,29-53.1
			c10.3-32.4,9.7-67.8-1.8-99.8c-2.9-8.1-8.4-21.3-13.2-27.7c-1.6-2.1-13.9-20.3-21.8-28.1c-23.8-23.4-52.8-39-85.8-44.4
			c-29.5-4.8-60.7-1.1-88,11C110.2,40.1,101.1,45.6,91.9,51.5"/>
		<path class="st3" d="M109.6,76.8c-13.3,10-24.6,21.5-33.4,35.6c-17.3,27.8-22.1,63.4-12.5,94.8c1.8,6,3.9,12.2,6.9,17.7
			c7,12.9,6.7,12.1,16.9,25.4c2.7,3.6,6.2,6.4,9.4,9.6c4.5,4.5,10,8.2,15.3,11.7c25.8,16.8,58.3,22.2,88.2,15.7
			c8.3-1.8,16.7-4.4,24.4-8.1c3-1.4,5.9-2.9,8.8-4.5c9.8-5.4,16.4-10.8,25.3-19c4.7-4.3,11.4-12.7,15.2-18.2
			c19.6-28.4,25.7-66.1,15.6-99.1c-1.8-6.1-3.9-12.3-7-17.9c-5.2-9.6-10.3-18.9-18.2-26.9c-7.3-7.4-14.5-14-23.2-19.7
			c-22.7-14.9-50.9-21-77.8-17.7c-13.2,1.6-25.8,5.6-37.9,11.2c-4.7,2.2-13.2,7.6-14.7,8.5C110.6,76,109.6,76.8,109.6,76.8"/>
		<path class="st3" d="M137,116.1c-6.7,5.9-10.1,8.3-14.7,14.3c-12.2,15.8-15.7,37.6-9.9,56.6c10.1,32.6,44,50,75.8,41.9
			c5.8-1.5,12.1-4.5,17.5-7.4c5.2-2.8,7-4.6,11.7-9.1c6.1-5.8,12.9-16.6,15.7-24.7c12.5-35.7-9.3-74.9-47.1-82.2
			c-13.7-2.6-27.5-0.5-40.1,5.3C142.7,112.3,139.9,114.3,137,116.1"/>
	</g>
</g>
</svg>
